<svg width="351" height="178" viewBox="0 0 351 178" fill="none" xmlns="http://www.w3.org/2000/svg">
<g filter="url(#filter0_d_33766_14149)">
<g opacity="0.25" filter="url(#filter1_f_33766_14149)">
<ellipse cx="131.815" cy="128.025" rx="131.815" ry="128.025" transform="matrix(-1 0 0 1 307.315 43.448)" fill="white"/>
</g>
<g filter="url(#filter2_i_33766_14149)">
<rect x="42.4209" y="38.8154" width="266.158" height="266.158" rx="16" fill="#0F1113"/>
</g>
<rect x="42.6709" y="39.0654" width="265.658" height="265.658" rx="15.75" stroke="white" stroke-opacity="0.08" stroke-width="0.5"/>
<g clip-path="url(#clip0_33766_14149)">
<rect x="277.415" y="273.809" width="203.83" height="203.83" rx="20.2145" transform="rotate(-180 277.415 273.809)" fill="black"/>
<circle cx="78.2185" cy="70.4006" r="1.26341" fill="#14171A"/>
<circle cx="84.114" cy="70.4006" r="1.26341" fill="#14171A"/>
<circle cx="90.0105" cy="70.4006" r="1.26341" fill="#14171A"/>
<circle cx="95.906" cy="70.4006" r="1.26341" fill="#14171A"/>
<circle cx="101.801" cy="70.4006" r="1.26341" fill="#14171A"/>
<circle cx="107.698" cy="70.4006" r="1.26341" fill="#14171A"/>
<circle cx="113.593" cy="70.4006" r="1.26341" fill="#14171A"/>
<circle cx="119.49" cy="70.4006" r="1.26341" fill="#14171A"/>
<circle cx="125.385" cy="70.4006" r="1.26341" fill="#14171A"/>
<circle cx="131.281" cy="70.4006" r="1.26341" fill="#14171A"/>
<circle cx="137.177" cy="70.4006" r="1.26341" fill="#14171A"/>
<circle cx="143.073" cy="70.4006" r="1.26341" fill="#14171A"/>
<circle cx="148.969" cy="70.4006" r="1.26341" fill="#14171A"/>
<circle cx="154.865" cy="70.4006" r="1.26341" fill="#14171A"/>
<circle cx="160.76" cy="70.4006" r="1.26341" fill="#14171A"/>
<circle cx="166.657" cy="70.4006" r="1.26341" fill="#14171A"/>
<circle cx="172.552" cy="70.4006" r="1.26341" fill="#14171A"/>
<circle cx="178.449" cy="70.4006" r="1.26341" fill="#14171A"/>
<circle cx="184.344" cy="70.4006" r="1.26341" fill="#14171A"/>
<circle cx="190.24" cy="70.4006" r="1.26341" fill="#14171A"/>
<circle cx="196.136" cy="70.4006" r="1.26341" fill="#14171A"/>
<circle cx="202.032" cy="70.4006" r="1.26341" fill="#14171A"/>
<circle cx="207.928" cy="70.4006" r="1.26341" fill="#14171A"/>
<circle cx="213.824" cy="70.4006" r="1.26341" fill="#14171A"/>
<circle cx="219.719" cy="70.4006" r="1.26341" fill="#14171A"/>
<circle cx="225.616" cy="70.4006" r="1.26341" fill="#14171A"/>
<circle cx="231.511" cy="70.4006" r="1.26341" fill="#14171A"/>
<circle cx="237.408" cy="70.4006" r="1.26341" fill="#14171A"/>
<circle cx="243.303" cy="70.4006" r="1.26341" fill="#14171A"/>
<circle cx="249.199" cy="70.4006" r="1.26341" fill="#14171A"/>
<circle cx="255.095" cy="70.4006" r="1.26341" fill="#14171A"/>
<circle cx="260.991" cy="70.4006" r="1.26341" fill="#14171A"/>
<circle cx="266.887" cy="70.4006" r="1.26341" fill="#14171A"/>
<circle cx="272.783" cy="70.4006" r="1.26341" fill="#14171A"/>
<circle cx="278.678" cy="70.4006" r="1.26341" fill="#14171A"/>
<circle cx="78.2185" cy="76.2965" r="1.26341" fill="#14171A"/>
<circle cx="84.114" cy="76.2965" r="1.26341" fill="#14171A"/>
<circle cx="90.0105" cy="76.2965" r="1.26341" fill="#14171A"/>
<circle cx="95.906" cy="76.2965" r="1.26341" fill="#14171A"/>
<circle cx="101.801" cy="76.2965" r="1.26341" fill="#14171A"/>
<circle cx="107.698" cy="76.2965" r="1.26341" fill="#14171A"/>
<circle cx="113.593" cy="76.2965" r="1.26341" fill="#14171A"/>
<circle cx="119.49" cy="76.2965" r="1.26341" fill="#14171A"/>
<circle cx="125.385" cy="76.2965" r="1.26341" fill="#14171A"/>
<circle cx="131.281" cy="76.2965" r="1.26341" fill="#14171A"/>
<circle cx="137.177" cy="76.2965" r="1.26341" fill="#14171A"/>
<circle cx="143.073" cy="76.2965" r="1.26341" fill="#14171A"/>
<circle cx="148.969" cy="76.2965" r="1.26341" fill="#14171A"/>
<circle cx="154.865" cy="76.2965" r="1.26341" fill="#14171A"/>
<circle cx="160.76" cy="76.2965" r="1.26341" fill="#14171A"/>
<circle cx="166.657" cy="76.2965" r="1.26341" fill="#14171A"/>
<circle cx="172.552" cy="76.2965" r="1.26341" fill="#14171A"/>
<circle cx="178.449" cy="76.2965" r="1.26341" fill="#14171A"/>
<circle cx="184.344" cy="76.2965" r="1.26341" fill="#14171A"/>
<circle cx="190.24" cy="76.2965" r="1.26341" fill="#14171A"/>
<circle cx="196.136" cy="76.2965" r="1.26341" fill="#14171A"/>
<circle cx="202.032" cy="76.2965" r="1.26341" fill="#14171A"/>
<circle cx="207.928" cy="76.2965" r="1.26341" fill="#14171A"/>
<circle cx="213.824" cy="76.2965" r="1.26341" fill="#14171A"/>
<circle cx="219.719" cy="76.2965" r="1.26341" fill="#14171A"/>
<circle cx="225.616" cy="76.2965" r="1.26341" fill="#14171A"/>
<circle cx="231.511" cy="76.2965" r="1.26341" fill="#14171A"/>
<circle cx="237.408" cy="76.2965" r="1.26341" fill="#14171A"/>
<circle cx="243.303" cy="76.2965" r="1.26341" fill="#14171A"/>
<circle cx="249.199" cy="76.2965" r="1.26341" fill="#14171A"/>
<circle cx="255.095" cy="76.2965" r="1.26341" fill="#14171A"/>
<circle cx="260.991" cy="76.2965" r="1.26341" fill="#14171A"/>
<circle cx="266.887" cy="76.2965" r="1.26341" fill="#14171A"/>
<circle cx="272.783" cy="76.2965" r="1.26341" fill="#14171A"/>
<circle cx="278.678" cy="76.2965" r="1.26341" fill="#14171A"/>
<circle cx="78.2185" cy="82.1924" r="1.26341" fill="#14171A"/>
<circle cx="84.114" cy="82.1924" r="1.26341" fill="#14171A"/>
<circle cx="90.0105" cy="82.1924" r="1.26341" fill="#14171A"/>
<circle cx="95.906" cy="82.1924" r="1.26341" fill="#14171A"/>
<circle cx="101.801" cy="82.1924" r="1.26341" fill="#14171A"/>
<circle cx="107.698" cy="82.1924" r="1.26341" fill="#14171A"/>
<circle cx="113.593" cy="82.1924" r="1.26341" fill="#14171A"/>
<circle cx="119.49" cy="82.1924" r="1.26341" fill="#14171A"/>
<circle cx="125.385" cy="82.1924" r="1.26341" fill="#14171A"/>
<circle cx="131.281" cy="82.1924" r="1.26341" fill="#14171A"/>
<circle cx="137.177" cy="82.1924" r="1.26341" fill="#14171A"/>
<circle cx="143.073" cy="82.1924" r="1.26341" fill="#14171A"/>
<circle cx="148.969" cy="82.1924" r="1.26341" fill="#14171A"/>
<circle cx="154.865" cy="82.1924" r="1.26341" fill="#14171A"/>
<circle cx="160.76" cy="82.1924" r="1.26341" fill="#14171A"/>
<circle cx="166.657" cy="82.1924" r="1.26341" fill="#14171A"/>
<circle cx="172.552" cy="82.1924" r="1.26341" fill="#14171A"/>
<circle cx="178.449" cy="82.1924" r="1.26341" fill="#14171A"/>
<circle cx="184.344" cy="82.1924" r="1.26341" fill="#14171A"/>
<circle cx="190.24" cy="82.1924" r="1.26341" fill="#14171A"/>
<circle cx="196.136" cy="82.1924" r="1.26341" fill="#14171A"/>
<circle cx="202.032" cy="82.1924" r="1.26341" fill="#14171A"/>
<circle cx="207.928" cy="82.1924" r="1.26341" fill="#14171A"/>
<circle cx="213.824" cy="82.1924" r="1.26341" fill="#14171A"/>
<circle cx="219.719" cy="82.1924" r="1.26341" fill="#14171A"/>
<circle cx="225.616" cy="82.1924" r="1.26341" fill="#14171A"/>
<circle cx="231.511" cy="82.1924" r="1.26341" fill="#14171A"/>
<circle cx="237.408" cy="82.1924" r="1.26341" fill="#14171A"/>
<circle cx="243.303" cy="82.1924" r="1.26341" fill="#14171A"/>
<circle cx="249.199" cy="82.1924" r="1.26341" fill="#14171A"/>
<circle cx="255.095" cy="82.1924" r="1.26341" fill="#14171A"/>
<circle cx="260.991" cy="82.1924" r="1.26341" fill="#14171A"/>
<circle cx="266.887" cy="82.1924" r="1.26341" fill="#14171A"/>
<circle cx="272.783" cy="82.1924" r="1.26341" fill="#14171A"/>
<circle cx="278.678" cy="82.1924" r="1.26341" fill="#14171A"/>
<circle cx="78.2185" cy="88.0884" r="1.26341" fill="#14171A"/>
<circle cx="84.114" cy="88.0884" r="1.26341" fill="#14171A"/>
<circle cx="90.0105" cy="88.0884" r="1.26341" fill="#14171A"/>
<circle cx="95.906" cy="88.0884" r="1.26341" fill="#14171A"/>
<circle cx="101.801" cy="88.0884" r="1.26341" fill="#14171A"/>
<circle cx="107.698" cy="88.0884" r="1.26341" fill="#14171A"/>
<circle cx="113.593" cy="88.0884" r="1.26341" fill="#14171A"/>
<circle cx="119.49" cy="88.0884" r="1.26341" fill="#14171A"/>
<circle cx="125.385" cy="88.0884" r="1.26341" fill="#14171A"/>
<circle cx="131.281" cy="88.0884" r="1.26341" fill="#14171A"/>
<circle cx="137.177" cy="88.0884" r="1.26341" fill="#14171A"/>
<circle cx="143.073" cy="88.0884" r="1.26341" fill="#14171A"/>
<circle cx="148.969" cy="88.0884" r="1.26341" fill="#14171A"/>
<circle cx="154.865" cy="88.0884" r="1.26341" fill="#14171A"/>
<circle cx="160.76" cy="88.0884" r="1.26341" fill="#14171A"/>
<circle cx="166.657" cy="88.0884" r="1.26341" fill="#14171A"/>
<circle cx="172.552" cy="88.0884" r="1.26341" fill="#14171A"/>
<circle cx="178.449" cy="88.0884" r="1.26341" fill="#14171A"/>
<circle cx="184.344" cy="88.0884" r="1.26341" fill="#14171A"/>
<circle cx="190.24" cy="88.0884" r="1.26341" fill="#14171A"/>
<circle cx="196.136" cy="88.0884" r="1.26341" fill="#14171A"/>
<circle cx="202.032" cy="88.0884" r="1.26341" fill="#14171A"/>
<circle cx="207.928" cy="88.0884" r="1.26341" fill="#14171A"/>
<circle cx="213.824" cy="88.0884" r="1.26341" fill="#14171A"/>
<circle cx="219.719" cy="88.0884" r="1.26341" fill="#14171A"/>
<circle cx="225.616" cy="88.0884" r="1.26341" fill="#14171A"/>
<circle cx="231.511" cy="88.0884" r="1.26341" fill="#14171A"/>
<circle cx="237.408" cy="88.0884" r="1.26341" fill="#14171A"/>
<circle cx="243.303" cy="88.0884" r="1.26341" fill="#14171A"/>
<circle cx="249.199" cy="88.0884" r="1.26341" fill="#14171A"/>
<circle cx="255.095" cy="88.0884" r="1.26341" fill="#14171A"/>
<circle cx="260.991" cy="88.0884" r="1.26341" fill="#14171A"/>
<circle cx="266.887" cy="88.0884" r="1.26341" fill="#14171A"/>
<circle cx="272.783" cy="88.0884" r="1.26341" fill="#14171A"/>
<circle cx="278.678" cy="88.0884" r="1.26341" fill="#14171A"/>
<circle cx="78.2185" cy="93.9842" r="1.26341" fill="#14171A"/>
<circle cx="84.114" cy="93.9842" r="1.26341" fill="#14171A"/>
<circle cx="90.0105" cy="93.9842" r="1.26341" fill="#14171A"/>
<circle cx="95.906" cy="93.9842" r="1.26341" fill="#14171A"/>
<circle cx="101.801" cy="93.9842" r="1.26341" fill="#14171A"/>
<circle cx="107.698" cy="93.9842" r="1.26341" fill="#14171A"/>
<circle cx="113.593" cy="93.9842" r="1.26341" fill="#14171A"/>
<circle cx="119.49" cy="93.9842" r="1.26341" fill="#14171A"/>
<circle cx="125.385" cy="93.9842" r="1.26341" fill="#14171A"/>
<circle cx="131.281" cy="93.9842" r="1.26341" fill="#14171A"/>
<circle cx="137.177" cy="93.9842" r="1.26341" fill="#14171A"/>
<circle cx="143.073" cy="93.9842" r="1.26341" fill="#14171A"/>
<circle cx="148.969" cy="93.9842" r="1.26341" fill="#14171A"/>
<circle cx="154.865" cy="93.9842" r="1.26341" fill="#14171A"/>
<circle cx="160.76" cy="93.9842" r="1.26341" fill="#14171A"/>
<circle cx="166.657" cy="93.9842" r="1.26341" fill="#14171A"/>
<circle cx="172.552" cy="93.9842" r="1.26341" fill="#14171A"/>
<circle cx="178.449" cy="93.9842" r="1.26341" fill="#14171A"/>
<circle cx="184.344" cy="93.9842" r="1.26341" fill="#14171A"/>
<circle cx="190.24" cy="93.9842" r="1.26341" fill="#14171A"/>
<circle cx="196.136" cy="93.9842" r="1.26341" fill="#14171A"/>
<circle cx="202.032" cy="93.9842" r="1.26341" fill="#14171A"/>
<circle cx="207.928" cy="93.9842" r="1.26341" fill="#14171A"/>
<circle cx="213.824" cy="93.9842" r="1.26341" fill="#14171A"/>
<circle cx="219.719" cy="93.9842" r="1.26341" fill="#14171A"/>
<circle cx="225.616" cy="93.9842" r="1.26341" fill="#14171A"/>
<circle cx="231.511" cy="93.9842" r="1.26341" fill="#14171A"/>
<circle cx="237.408" cy="93.9842" r="1.26341" fill="#14171A"/>
<circle cx="243.303" cy="93.9842" r="1.26341" fill="#14171A"/>
<circle cx="249.199" cy="93.9842" r="1.26341" fill="#14171A"/>
<circle cx="255.095" cy="93.9842" r="1.26341" fill="#14171A"/>
<circle cx="260.991" cy="93.9842" r="1.26341" fill="#14171A"/>
<circle cx="266.887" cy="93.9842" r="1.26341" fill="#14171A"/>
<circle cx="272.783" cy="93.9842" r="1.26341" fill="#14171A"/>
<circle cx="278.678" cy="93.9842" r="1.26341" fill="#14171A"/>
<circle cx="78.2185" cy="99.8801" r="1.26341" fill="#14171A"/>
<circle cx="84.114" cy="99.8801" r="1.26341" fill="#14171A"/>
<circle cx="90.0105" cy="99.8801" r="1.26341" fill="#14171A"/>
<circle cx="95.906" cy="99.8801" r="1.26341" fill="#14171A"/>
<circle cx="101.801" cy="99.8801" r="1.26341" fill="#14171A"/>
<circle cx="107.698" cy="99.8801" r="1.26341" fill="#14171A"/>
<circle cx="113.593" cy="99.8801" r="1.26341" fill="#14171A"/>
<circle cx="119.49" cy="99.8801" r="1.26341" fill="#14171A"/>
<circle cx="125.385" cy="99.8801" r="1.26341" fill="#14171A"/>
<circle cx="131.281" cy="99.8801" r="1.26341" fill="#14171A"/>
<circle cx="137.177" cy="99.8801" r="1.26341" fill="#14171A"/>
<circle cx="143.073" cy="99.8801" r="1.26341" fill="#14171A"/>
<circle cx="148.969" cy="99.8801" r="1.26341" fill="#14171A"/>
<circle cx="154.865" cy="99.8801" r="1.26341" fill="#14171A"/>
<circle cx="160.76" cy="99.8801" r="1.26341" fill="#14171A"/>
<circle cx="166.657" cy="99.8801" r="1.26341" fill="#14171A"/>
<circle cx="172.552" cy="99.8801" r="1.26341" fill="#14171A"/>
<circle cx="178.449" cy="99.8801" r="1.26341" fill="#14171A"/>
<circle cx="184.344" cy="99.8801" r="1.26341" fill="#14171A"/>
<circle cx="190.24" cy="99.8801" r="1.26341" fill="#14171A"/>
<circle cx="196.136" cy="99.8801" r="1.26341" fill="#14171A"/>
<circle cx="202.032" cy="99.8801" r="1.26341" fill="#14171A"/>
<circle cx="207.928" cy="99.8801" r="1.26341" fill="#14171A"/>
<circle cx="213.824" cy="99.8801" r="1.26341" fill="#14171A"/>
<circle cx="219.719" cy="99.8801" r="1.26341" fill="#14171A"/>
<circle cx="225.616" cy="99.8801" r="1.26341" fill="#14171A"/>
<circle cx="231.511" cy="99.8801" r="1.26341" fill="#14171A"/>
<circle cx="237.408" cy="99.8801" r="1.26341" fill="#14171A"/>
<circle cx="243.303" cy="99.8801" r="1.26341" fill="#14171A"/>
<circle cx="249.199" cy="99.8801" r="1.26341" fill="#14171A"/>
<circle cx="255.095" cy="99.8801" r="1.26341" fill="#14171A"/>
<circle cx="260.991" cy="99.8801" r="1.26341" fill="#14171A"/>
<circle cx="266.887" cy="99.8801" r="1.26341" fill="#14171A"/>
<circle cx="272.783" cy="99.8801" r="1.26341" fill="#14171A"/>
<circle cx="278.678" cy="99.8801" r="1.26341" fill="#14171A"/>
<circle cx="78.2185" cy="105.776" r="1.26341" fill="#14171A"/>
<circle cx="84.114" cy="105.776" r="1.26341" fill="#14171A"/>
<circle cx="90.0105" cy="105.776" r="1.26341" fill="#14171A"/>
<circle cx="95.906" cy="105.776" r="1.26341" fill="#14171A"/>
<circle cx="101.801" cy="105.776" r="1.26341" fill="#14171A"/>
<circle cx="107.698" cy="105.776" r="1.26341" fill="#14171A"/>
<circle cx="113.593" cy="105.776" r="1.26341" fill="#14171A"/>
<circle cx="119.49" cy="105.776" r="1.26341" fill="#14171A"/>
<circle cx="125.385" cy="105.776" r="1.26341" fill="#14171A"/>
<circle cx="131.281" cy="105.776" r="1.26341" fill="#14171A"/>
<circle cx="137.177" cy="105.776" r="1.26341" fill="#14171A"/>
<circle cx="143.073" cy="105.776" r="1.26341" fill="#14171A"/>
<circle cx="148.969" cy="105.776" r="1.26341" fill="#14171A"/>
<circle cx="154.865" cy="105.776" r="1.26341" fill="#14171A"/>
<circle cx="160.76" cy="105.776" r="1.26341" fill="#14171A"/>
<circle cx="166.657" cy="105.776" r="1.26341" fill="#14171A"/>
<circle cx="172.552" cy="105.776" r="1.26341" fill="#14171A"/>
<circle cx="178.449" cy="105.776" r="1.26341" fill="#14171A"/>
<circle cx="184.344" cy="105.776" r="1.26341" fill="#14171A"/>
<circle cx="190.24" cy="105.776" r="1.26341" fill="#14171A"/>
<circle cx="196.136" cy="105.776" r="1.26341" fill="#14171A"/>
<circle cx="202.032" cy="105.776" r="1.26341" fill="#14171A"/>
<circle cx="207.928" cy="105.776" r="1.26341" fill="#14171A"/>
<circle cx="213.824" cy="105.776" r="1.26341" fill="#14171A"/>
<circle cx="219.719" cy="105.776" r="1.26341" fill="#14171A"/>
<circle cx="225.616" cy="105.776" r="1.26341" fill="#14171A"/>
<circle cx="231.511" cy="105.776" r="1.26341" fill="#14171A"/>
<circle cx="237.408" cy="105.776" r="1.26341" fill="#14171A"/>
<circle cx="243.303" cy="105.776" r="1.26341" fill="#14171A"/>
<circle cx="249.199" cy="105.776" r="1.26341" fill="#14171A"/>
<circle cx="255.095" cy="105.776" r="1.26341" fill="#14171A"/>
<circle cx="260.991" cy="105.776" r="1.26341" fill="#14171A"/>
<circle cx="266.887" cy="105.776" r="1.26341" fill="#14171A"/>
<circle cx="272.783" cy="105.776" r="1.26341" fill="#14171A"/>
<circle cx="278.678" cy="105.776" r="1.26341" fill="#14171A"/>
<circle cx="78.2185" cy="111.672" r="1.26341" fill="#14171A"/>
<circle cx="84.114" cy="111.672" r="1.26341" fill="#14171A"/>
<circle cx="90.0105" cy="111.672" r="1.26341" fill="#14171A"/>
<circle cx="95.906" cy="111.672" r="1.26341" fill="#14171A"/>
<circle cx="101.801" cy="111.672" r="1.26341" fill="#14171A"/>
<circle cx="107.698" cy="111.672" r="1.26341" fill="#14171A"/>
<circle cx="113.593" cy="111.672" r="1.26341" fill="#14171A"/>
<circle cx="119.49" cy="111.672" r="1.26341" fill="#14171A"/>
<circle cx="125.385" cy="111.672" r="1.26341" fill="#14171A"/>
<circle cx="131.281" cy="111.672" r="1.26341" fill="#14171A"/>
<circle cx="137.177" cy="111.672" r="1.26341" fill="#14171A"/>
<circle cx="143.073" cy="111.672" r="1.26341" fill="#14171A"/>
<circle cx="148.969" cy="111.672" r="1.26341" fill="#14171A"/>
<circle cx="154.865" cy="111.672" r="1.26341" fill="#14171A"/>
<circle cx="160.76" cy="111.672" r="1.26341" fill="#14171A"/>
<circle cx="166.657" cy="111.672" r="1.26341" fill="#14171A"/>
<circle cx="172.552" cy="111.672" r="1.26341" fill="#14171A"/>
<circle cx="178.449" cy="111.672" r="1.26341" fill="#14171A"/>
<circle cx="184.344" cy="111.672" r="1.26341" fill="#14171A"/>
<circle cx="190.24" cy="111.672" r="1.26341" fill="#14171A"/>
<circle cx="196.136" cy="111.672" r="1.26341" fill="#14171A"/>
<circle cx="202.032" cy="111.672" r="1.26341" fill="#14171A"/>
<circle cx="207.928" cy="111.672" r="1.26341" fill="#14171A"/>
<circle cx="213.824" cy="111.672" r="1.26341" fill="#14171A"/>
<circle cx="219.719" cy="111.672" r="1.26341" fill="#14171A"/>
<circle cx="225.616" cy="111.672" r="1.26341" fill="#14171A"/>
<circle cx="231.511" cy="111.672" r="1.26341" fill="#14171A"/>
<circle cx="237.408" cy="111.672" r="1.26341" fill="#14171A"/>
<circle cx="243.303" cy="111.672" r="1.26341" fill="#14171A"/>
<circle cx="249.199" cy="111.672" r="1.26341" fill="#14171A"/>
<circle cx="255.095" cy="111.672" r="1.26341" fill="#14171A"/>
<circle cx="260.991" cy="111.672" r="1.26341" fill="#14171A"/>
<circle cx="266.887" cy="111.672" r="1.26341" fill="#14171A"/>
<circle cx="272.783" cy="111.672" r="1.26341" fill="#14171A"/>
<circle cx="278.678" cy="111.672" r="1.26341" fill="#14171A"/>
<circle cx="78.2185" cy="117.568" r="1.26341" fill="#14171A"/>
<circle cx="84.114" cy="117.568" r="1.26341" fill="#14171A"/>
<circle cx="90.0105" cy="117.568" r="1.26341" fill="#14171A"/>
<circle cx="95.906" cy="117.568" r="1.26341" fill="#14171A"/>
<circle cx="101.801" cy="117.568" r="1.26341" fill="#14171A"/>
<circle cx="107.698" cy="117.568" r="1.26341" fill="#14171A"/>
<circle cx="113.593" cy="117.568" r="1.26341" fill="#14171A"/>
<circle cx="119.49" cy="117.568" r="1.26341" fill="#14171A"/>
<circle cx="125.385" cy="117.568" r="1.26341" fill="#14171A"/>
<circle cx="131.281" cy="117.568" r="1.26341" fill="#14171A"/>
<circle cx="137.177" cy="117.568" r="1.26341" fill="#14171A"/>
<circle cx="143.073" cy="117.568" r="1.26341" fill="#14171A"/>
<circle cx="148.969" cy="117.568" r="1.26341" fill="#14171A"/>
<circle cx="154.865" cy="117.568" r="1.26341" fill="#14171A"/>
<circle cx="160.76" cy="117.568" r="1.26341" fill="#14171A"/>
<circle cx="166.657" cy="117.568" r="1.26341" fill="#14171A"/>
<circle cx="172.552" cy="117.568" r="1.26341" fill="#14171A"/>
<circle cx="178.449" cy="117.568" r="1.26341" fill="#14171A"/>
<circle cx="184.344" cy="117.568" r="1.26341" fill="#14171A"/>
<circle cx="190.24" cy="117.568" r="1.26341" fill="#14171A"/>
<circle cx="196.136" cy="117.568" r="1.26341" fill="#14171A"/>
<circle cx="202.032" cy="117.568" r="1.26341" fill="#14171A"/>
<circle cx="207.928" cy="117.568" r="1.26341" fill="#14171A"/>
<circle cx="213.824" cy="117.568" r="1.26341" fill="#14171A"/>
<circle cx="219.719" cy="117.568" r="1.26341" fill="#14171A"/>
<circle cx="225.616" cy="117.568" r="1.26341" fill="#14171A"/>
<circle cx="231.511" cy="117.568" r="1.26341" fill="#14171A"/>
<circle cx="237.408" cy="117.568" r="1.26341" fill="#14171A"/>
<circle cx="243.303" cy="117.568" r="1.26341" fill="#14171A"/>
<circle cx="249.199" cy="117.568" r="1.26341" fill="#14171A"/>
<circle cx="255.095" cy="117.568" r="1.26341" fill="#14171A"/>
<circle cx="260.991" cy="117.568" r="1.26341" fill="#14171A"/>
<circle cx="266.887" cy="117.568" r="1.26341" fill="#14171A"/>
<circle cx="272.783" cy="117.568" r="1.26341" fill="#14171A"/>
<circle cx="278.678" cy="117.568" r="1.26341" fill="#14171A"/>
<circle cx="78.2185" cy="123.464" r="1.26341" fill="#14171A"/>
<circle cx="84.114" cy="123.464" r="1.26341" fill="#14171A"/>
<circle cx="90.0105" cy="123.464" r="1.26341" fill="#14171A"/>
<circle cx="95.906" cy="123.464" r="1.26341" fill="#14171A"/>
<circle cx="101.801" cy="123.464" r="1.26341" fill="#14171A"/>
<circle cx="107.698" cy="123.464" r="1.26341" fill="#14171A"/>
<circle cx="113.593" cy="123.464" r="1.26341" fill="#14171A"/>
<circle cx="119.49" cy="123.464" r="1.26341" fill="#14171A"/>
<circle cx="125.385" cy="123.464" r="1.26341" fill="#14171A"/>
<circle cx="131.281" cy="123.464" r="1.26341" fill="#14171A"/>
<circle cx="137.177" cy="123.464" r="1.26341" fill="#14171A"/>
<circle cx="143.073" cy="123.464" r="1.26341" fill="#14171A"/>
<circle cx="148.969" cy="123.464" r="1.26341" fill="#14171A"/>
<circle cx="154.865" cy="123.464" r="1.26341" fill="#14171A"/>
<circle cx="160.76" cy="123.464" r="1.26341" fill="#14171A"/>
<circle cx="166.657" cy="123.464" r="1.26341" fill="#14171A"/>
<circle cx="172.552" cy="123.464" r="1.26341" fill="#14171A"/>
<circle cx="178.449" cy="123.464" r="1.26341" fill="#14171A"/>
<circle cx="184.344" cy="123.464" r="1.26341" fill="#14171A"/>
<circle cx="190.24" cy="123.464" r="1.26341" fill="#14171A"/>
<circle cx="196.136" cy="123.464" r="1.26341" fill="#14171A"/>
<circle cx="202.032" cy="123.464" r="1.26341" fill="#14171A"/>
<circle cx="207.928" cy="123.464" r="1.26341" fill="#14171A"/>
<circle cx="213.824" cy="123.464" r="1.26341" fill="#14171A"/>
<circle cx="219.719" cy="123.464" r="1.26341" fill="#14171A"/>
<circle cx="225.616" cy="123.464" r="1.26341" fill="#14171A"/>
<circle cx="231.511" cy="123.464" r="1.26341" fill="#14171A"/>
<circle cx="237.408" cy="123.464" r="1.26341" fill="#14171A"/>
<circle cx="243.303" cy="123.464" r="1.26341" fill="#14171A"/>
<circle cx="249.199" cy="123.464" r="1.26341" fill="#14171A"/>
<circle cx="255.095" cy="123.464" r="1.26341" fill="#14171A"/>
<circle cx="260.991" cy="123.464" r="1.26341" fill="#14171A"/>
<circle cx="266.887" cy="123.464" r="1.26341" fill="#14171A"/>
<circle cx="272.783" cy="123.464" r="1.26341" fill="#14171A"/>
<circle cx="278.678" cy="123.464" r="1.26341" fill="#14171A"/>
<circle cx="78.2185" cy="129.36" r="1.26341" fill="#14171A"/>
<circle cx="84.114" cy="129.36" r="1.26341" fill="#14171A"/>
<circle cx="90.0105" cy="129.36" r="1.26341" fill="#14171A"/>
<circle cx="95.906" cy="129.36" r="1.26341" fill="#14171A"/>
<circle cx="101.801" cy="129.36" r="1.26341" fill="#14171A"/>
<circle cx="107.698" cy="129.36" r="1.26341" fill="#14171A"/>
<circle cx="113.593" cy="129.36" r="1.26341" fill="#14171A"/>
<circle cx="119.49" cy="129.36" r="1.26341" fill="#14171A"/>
<circle cx="125.385" cy="129.36" r="1.26341" fill="#14171A"/>
<circle cx="131.281" cy="129.36" r="1.26341" fill="#14171A"/>
<circle cx="137.177" cy="129.36" r="1.26341" fill="#14171A"/>
<circle cx="143.073" cy="129.36" r="1.26341" fill="#14171A"/>
<circle cx="148.969" cy="129.36" r="1.26341" fill="#14171A"/>
<circle cx="154.865" cy="129.36" r="1.26341" fill="#14171A"/>
<circle cx="160.76" cy="129.36" r="1.26341" fill="#14171A"/>
<circle cx="166.657" cy="129.36" r="1.26341" fill="#14171A"/>
<circle cx="172.552" cy="129.36" r="1.26341" fill="#14171A"/>
<circle cx="178.449" cy="129.36" r="1.26341" fill="#14171A"/>
<circle cx="184.344" cy="129.36" r="1.26341" fill="#14171A"/>
<circle cx="190.24" cy="129.36" r="1.26341" fill="#14171A"/>
<circle cx="196.136" cy="129.36" r="1.26341" fill="#14171A"/>
<circle cx="202.032" cy="129.36" r="1.26341" fill="#14171A"/>
<circle cx="207.928" cy="129.36" r="1.26341" fill="#14171A"/>
<circle cx="213.824" cy="129.36" r="1.26341" fill="#14171A"/>
<circle cx="219.719" cy="129.36" r="1.26341" fill="#14171A"/>
<circle cx="225.616" cy="129.36" r="1.26341" fill="#14171A"/>
<circle cx="231.511" cy="129.36" r="1.26341" fill="#14171A"/>
<circle cx="237.408" cy="129.36" r="1.26341" fill="#14171A"/>
<circle cx="243.303" cy="129.36" r="1.26341" fill="#14171A"/>
<circle cx="249.199" cy="129.36" r="1.26341" fill="#14171A"/>
<circle cx="255.095" cy="129.36" r="1.26341" fill="#14171A"/>
<circle cx="260.991" cy="129.36" r="1.26341" fill="#14171A"/>
<circle cx="266.887" cy="129.36" r="1.26341" fill="#14171A"/>
<circle cx="272.783" cy="129.36" r="1.26341" fill="#14171A"/>
<circle cx="278.678" cy="129.36" r="1.26341" fill="#14171A"/>
<circle cx="78.2185" cy="135.255" r="1.26341" fill="#14171A"/>
<circle cx="84.114" cy="135.255" r="1.26341" fill="#14171A"/>
<circle cx="90.0105" cy="135.255" r="1.26341" fill="#14171A"/>
<circle cx="95.906" cy="135.255" r="1.26341" fill="#14171A"/>
<circle cx="101.801" cy="135.255" r="1.26341" fill="#14171A"/>
<circle cx="107.698" cy="135.255" r="1.26341" fill="#14171A"/>
<circle cx="113.593" cy="135.255" r="1.26341" fill="#14171A"/>
<circle cx="119.49" cy="135.255" r="1.26341" fill="#14171A"/>
<circle cx="125.385" cy="135.255" r="1.26341" fill="#14171A"/>
<circle cx="131.281" cy="135.255" r="1.26341" fill="#14171A"/>
<circle cx="137.177" cy="135.255" r="1.26341" fill="#14171A"/>
<circle cx="143.073" cy="135.255" r="1.26341" fill="#14171A"/>
<circle cx="148.969" cy="135.255" r="1.26341" fill="#14171A"/>
<circle cx="154.865" cy="135.255" r="1.26341" fill="#14171A"/>
<circle cx="160.76" cy="135.255" r="1.26341" fill="#14171A"/>
<circle cx="166.657" cy="135.255" r="1.26341" fill="#14171A"/>
<circle cx="172.552" cy="135.255" r="1.26341" fill="#14171A"/>
<circle cx="178.449" cy="135.255" r="1.26341" fill="#14171A"/>
<circle cx="184.344" cy="135.255" r="1.26341" fill="#14171A"/>
<circle cx="190.24" cy="135.255" r="1.26341" fill="#14171A"/>
<circle cx="196.136" cy="135.255" r="1.26341" fill="#14171A"/>
<circle cx="202.032" cy="135.255" r="1.26341" fill="#14171A"/>
<circle cx="207.928" cy="135.255" r="1.26341" fill="#14171A"/>
<circle cx="213.824" cy="135.255" r="1.26341" fill="#14171A"/>
<circle cx="219.719" cy="135.255" r="1.26341" fill="#14171A"/>
<circle cx="225.616" cy="135.255" r="1.26341" fill="#14171A"/>
<circle cx="231.511" cy="135.255" r="1.26341" fill="#14171A"/>
<circle cx="237.408" cy="135.255" r="1.26341" fill="#14171A"/>
<circle cx="243.303" cy="135.255" r="1.26341" fill="#14171A"/>
<circle cx="249.199" cy="135.255" r="1.26341" fill="#14171A"/>
<circle cx="255.095" cy="135.255" r="1.26341" fill="#14171A"/>
<circle cx="260.991" cy="135.255" r="1.26341" fill="#14171A"/>
<circle cx="266.887" cy="135.255" r="1.26341" fill="#14171A"/>
<circle cx="272.783" cy="135.255" r="1.26341" fill="#14171A"/>
<circle cx="278.678" cy="135.255" r="1.26341" fill="#14171A"/>
<circle cx="78.2185" cy="141.151" r="1.26341" fill="#14171A"/>
<circle cx="84.114" cy="141.151" r="1.26341" fill="#14171A"/>
<circle cx="90.0105" cy="141.151" r="1.26341" fill="#14171A"/>
<circle cx="95.906" cy="141.151" r="1.26341" fill="#14171A"/>
<circle cx="101.801" cy="141.151" r="1.26341" fill="#14171A"/>
<circle cx="107.698" cy="141.151" r="1.26341" fill="#14171A"/>
<circle cx="113.593" cy="141.151" r="1.26341" fill="#14171A"/>
<circle cx="119.49" cy="141.151" r="1.26341" fill="#14171A"/>
<circle cx="125.385" cy="141.151" r="1.26341" fill="#14171A"/>
<circle cx="131.281" cy="141.151" r="1.26341" fill="#14171A"/>
<circle cx="137.177" cy="141.151" r="1.26341" fill="#14171A"/>
<circle cx="143.073" cy="141.151" r="1.26341" fill="#14171A"/>
<circle cx="148.969" cy="141.151" r="1.26341" fill="#14171A"/>
<circle cx="154.865" cy="141.151" r="1.26341" fill="#14171A"/>
<circle cx="160.76" cy="141.151" r="1.26341" fill="#14171A"/>
<circle cx="166.657" cy="141.151" r="1.26341" fill="#14171A"/>
<circle cx="172.552" cy="141.151" r="1.26341" fill="#14171A"/>
<circle cx="178.449" cy="141.151" r="1.26341" fill="#14171A"/>
<circle cx="184.344" cy="141.151" r="1.26341" fill="#14171A"/>
<circle cx="190.24" cy="141.151" r="1.26341" fill="#14171A"/>
<circle cx="196.136" cy="141.151" r="1.26341" fill="#14171A"/>
<circle cx="202.032" cy="141.151" r="1.26341" fill="#14171A"/>
<circle cx="207.928" cy="141.151" r="1.26341" fill="#14171A"/>
<circle cx="213.824" cy="141.151" r="1.26341" fill="#14171A"/>
<circle cx="219.719" cy="141.151" r="1.26341" fill="#14171A"/>
<circle cx="225.616" cy="141.151" r="1.26341" fill="#14171A"/>
<circle cx="231.511" cy="141.151" r="1.26341" fill="#14171A"/>
<circle cx="237.408" cy="141.151" r="1.26341" fill="#14171A"/>
<circle cx="243.303" cy="141.151" r="1.26341" fill="#14171A"/>
<circle cx="249.199" cy="141.151" r="1.26341" fill="#14171A"/>
<circle cx="255.095" cy="141.151" r="1.26341" fill="#14171A"/>
<circle cx="260.991" cy="141.151" r="1.26341" fill="#14171A"/>
<circle cx="266.887" cy="141.151" r="1.26341" fill="#14171A"/>
<circle cx="272.783" cy="141.151" r="1.26341" fill="#14171A"/>
<circle cx="278.678" cy="141.151" r="1.26341" fill="#14171A"/>
<circle cx="78.2185" cy="147.047" r="1.26341" fill="#14171A"/>
<circle cx="84.114" cy="147.047" r="1.26341" fill="#14171A"/>
<circle cx="90.0105" cy="147.047" r="1.26341" fill="#14171A"/>
<circle cx="95.906" cy="147.047" r="1.26341" fill="#14171A"/>
<circle cx="101.801" cy="147.047" r="1.26341" fill="#14171A"/>
<circle cx="107.698" cy="147.047" r="1.26341" fill="#14171A"/>
<circle cx="113.593" cy="147.047" r="1.26341" fill="#14171A"/>
<circle cx="119.49" cy="147.047" r="1.26341" fill="#14171A"/>
<circle cx="125.385" cy="147.047" r="1.26341" fill="#14171A"/>
<circle cx="131.281" cy="147.047" r="1.26341" fill="#14171A"/>
<circle cx="137.177" cy="147.047" r="1.26341" fill="#14171A"/>
<circle cx="143.073" cy="147.047" r="1.26341" fill="#14171A"/>
<circle cx="148.969" cy="147.047" r="1.26341" fill="#14171A"/>
<circle cx="154.865" cy="147.047" r="1.26341" fill="#14171A"/>
<circle cx="160.76" cy="147.047" r="1.26341" fill="#14171A"/>
<circle cx="166.657" cy="147.047" r="1.26341" fill="#14171A"/>
<circle cx="172.552" cy="147.047" r="1.26341" fill="#14171A"/>
<circle cx="178.449" cy="147.047" r="1.26341" fill="#14171A"/>
<circle cx="184.344" cy="147.047" r="1.26341" fill="#14171A"/>
<circle cx="190.24" cy="147.047" r="1.26341" fill="#14171A"/>
<circle cx="196.136" cy="147.047" r="1.26341" fill="#14171A"/>
<circle cx="202.032" cy="147.047" r="1.26341" fill="#14171A"/>
<circle cx="207.928" cy="147.047" r="1.26341" fill="#14171A"/>
<circle cx="213.824" cy="147.047" r="1.26341" fill="#14171A"/>
<circle cx="219.719" cy="147.047" r="1.26341" fill="#14171A"/>
<circle cx="225.616" cy="147.047" r="1.26341" fill="#14171A"/>
<circle cx="231.511" cy="147.047" r="1.26341" fill="#14171A"/>
<circle cx="237.408" cy="147.047" r="1.26341" fill="#14171A"/>
<circle cx="243.303" cy="147.047" r="1.26341" fill="#14171A"/>
<circle cx="249.199" cy="147.047" r="1.26341" fill="#14171A"/>
<circle cx="255.095" cy="147.047" r="1.26341" fill="#14171A"/>
<circle cx="260.991" cy="147.047" r="1.26341" fill="#14171A"/>
<circle cx="266.887" cy="147.047" r="1.26341" fill="#14171A"/>
<circle cx="272.783" cy="147.047" r="1.26341" fill="#14171A"/>
<circle cx="278.678" cy="147.047" r="1.26341" fill="#14171A"/>
<circle cx="78.2185" cy="152.943" r="1.26341" fill="#14171A"/>
<circle cx="84.114" cy="152.943" r="1.26341" fill="#14171A"/>
<circle cx="90.0105" cy="152.943" r="1.26341" fill="#14171A"/>
<circle cx="95.906" cy="152.943" r="1.26341" fill="#14171A"/>
<circle cx="101.801" cy="152.943" r="1.26341" fill="#14171A"/>
<circle cx="107.698" cy="152.943" r="1.26341" fill="#14171A"/>
<circle cx="113.593" cy="152.943" r="1.26341" fill="#14171A"/>
<circle cx="119.49" cy="152.943" r="1.26341" fill="#14171A"/>
<circle cx="125.385" cy="152.943" r="1.26341" fill="#14171A"/>
<circle cx="131.281" cy="152.943" r="1.26341" fill="#14171A"/>
<circle cx="137.177" cy="152.943" r="1.26341" fill="#14171A"/>
<circle cx="143.073" cy="152.943" r="1.26341" fill="#14171A"/>
<circle cx="148.969" cy="152.943" r="1.26341" fill="#14171A"/>
<circle cx="154.865" cy="152.943" r="1.26341" fill="#14171A"/>
<circle cx="160.76" cy="152.943" r="1.26341" fill="#14171A"/>
<circle cx="166.657" cy="152.943" r="1.26341" fill="#14171A"/>
<circle cx="172.552" cy="152.943" r="1.26341" fill="#14171A"/>
<circle cx="178.449" cy="152.943" r="1.26341" fill="#14171A"/>
<circle cx="184.344" cy="152.943" r="1.26341" fill="#14171A"/>
<circle cx="190.24" cy="152.943" r="1.26341" fill="#14171A"/>
<circle cx="196.136" cy="152.943" r="1.26341" fill="#14171A"/>
<circle cx="202.032" cy="152.943" r="1.26341" fill="#14171A"/>
<circle cx="207.928" cy="152.943" r="1.26341" fill="#14171A"/>
<circle cx="213.824" cy="152.943" r="1.26341" fill="#14171A"/>
<circle cx="219.719" cy="152.943" r="1.26341" fill="#14171A"/>
<circle cx="225.616" cy="152.943" r="1.26341" fill="#14171A"/>
<circle cx="231.511" cy="152.943" r="1.26341" fill="#14171A"/>
<circle cx="237.408" cy="152.943" r="1.26341" fill="#14171A"/>
<circle cx="243.303" cy="152.943" r="1.26341" fill="#14171A"/>
<circle cx="249.199" cy="152.943" r="1.26341" fill="#14171A"/>
<circle cx="255.095" cy="152.943" r="1.26341" fill="#14171A"/>
<circle cx="260.991" cy="152.943" r="1.26341" fill="#14171A"/>
<circle cx="266.887" cy="152.943" r="1.26341" fill="#14171A"/>
<circle cx="272.783" cy="152.943" r="1.26341" fill="#14171A"/>
<circle cx="278.678" cy="152.943" r="1.26341" fill="#14171A"/>
<circle cx="78.2185" cy="158.839" r="1.26341" fill="#14171A"/>
<circle cx="84.114" cy="158.839" r="1.26341" fill="#14171A"/>
<circle cx="90.0105" cy="158.839" r="1.26341" fill="#14171A"/>
<circle cx="95.906" cy="158.839" r="1.26341" fill="#14171A"/>
<circle cx="101.801" cy="158.839" r="1.26341" fill="#14171A"/>
<circle cx="107.698" cy="158.839" r="1.26341" fill="#14171A"/>
<circle cx="113.593" cy="158.839" r="1.26341" fill="#14171A"/>
<circle cx="119.49" cy="158.839" r="1.26341" fill="#14171A"/>
<circle cx="125.385" cy="158.839" r="1.26341" fill="#14171A"/>
<circle cx="131.281" cy="158.839" r="1.26341" fill="#14171A"/>
<circle cx="137.177" cy="158.839" r="1.26341" fill="#14171A"/>
<circle cx="143.073" cy="158.839" r="1.26341" fill="#14171A"/>
<circle cx="148.969" cy="158.839" r="1.26341" fill="#14171A"/>
<circle cx="154.865" cy="158.839" r="1.26341" fill="#14171A"/>
<circle cx="160.76" cy="158.839" r="1.26341" fill="#14171A"/>
<circle cx="166.657" cy="158.839" r="1.26341" fill="#14171A"/>
<circle cx="172.552" cy="158.839" r="1.26341" fill="#14171A"/>
<circle cx="178.449" cy="158.839" r="1.26341" fill="#14171A"/>
<circle cx="184.344" cy="158.839" r="1.26341" fill="#14171A"/>
<circle cx="190.24" cy="158.839" r="1.26341" fill="#14171A"/>
<circle cx="196.136" cy="158.839" r="1.26341" fill="#14171A"/>
<circle cx="202.032" cy="158.839" r="1.26341" fill="#14171A"/>
<circle cx="207.928" cy="158.839" r="1.26341" fill="#14171A"/>
<circle cx="213.824" cy="158.839" r="1.26341" fill="#14171A"/>
<circle cx="219.719" cy="158.839" r="1.26341" fill="#14171A"/>
<circle cx="225.616" cy="158.839" r="1.26341" fill="#14171A"/>
<circle cx="231.511" cy="158.839" r="1.26341" fill="#14171A"/>
<circle cx="237.408" cy="158.839" r="1.26341" fill="#14171A"/>
<circle cx="243.303" cy="158.839" r="1.26341" fill="#14171A"/>
<circle cx="249.199" cy="158.839" r="1.26341" fill="#14171A"/>
<circle cx="255.095" cy="158.839" r="1.26341" fill="#14171A"/>
<circle cx="260.991" cy="158.839" r="1.26341" fill="#14171A"/>
<circle cx="266.887" cy="158.839" r="1.26341" fill="#14171A"/>
<circle cx="272.783" cy="158.839" r="1.26341" fill="#14171A"/>
<circle cx="278.678" cy="158.839" r="1.26341" fill="#14171A"/>
<circle cx="78.2185" cy="164.735" r="1.26341" fill="#14171A"/>
<circle cx="84.114" cy="164.735" r="1.26341" fill="#14171A"/>
<circle cx="90.0105" cy="164.735" r="1.26341" fill="#14171A"/>
<circle cx="95.906" cy="164.735" r="1.26341" fill="#14171A"/>
<circle cx="101.801" cy="164.735" r="1.26341" fill="#14171A"/>
<circle cx="107.698" cy="164.735" r="1.26341" fill="#14171A"/>
<circle cx="113.593" cy="164.735" r="1.26341" fill="#14171A"/>
<circle cx="119.49" cy="164.735" r="1.26341" fill="#14171A"/>
<circle cx="125.385" cy="164.735" r="1.26341" fill="#14171A"/>
<circle cx="131.281" cy="164.735" r="1.26341" fill="#14171A"/>
<circle cx="137.177" cy="164.735" r="1.26341" fill="#14171A"/>
<circle cx="143.073" cy="164.735" r="1.26341" fill="#14171A"/>
<circle cx="148.969" cy="164.735" r="1.26341" fill="#14171A"/>
<circle cx="154.865" cy="164.735" r="1.26341" fill="#14171A"/>
<circle cx="160.76" cy="164.735" r="1.26341" fill="#14171A"/>
<circle cx="166.657" cy="164.735" r="1.26341" fill="#14171A"/>
<circle cx="172.552" cy="164.735" r="1.26341" fill="#14171A"/>
<circle cx="178.449" cy="164.735" r="1.26341" fill="#14171A"/>
<circle cx="184.344" cy="164.735" r="1.26341" fill="#14171A"/>
<circle cx="190.24" cy="164.735" r="1.26341" fill="#14171A"/>
<circle cx="196.136" cy="164.735" r="1.26341" fill="#14171A"/>
<circle cx="202.032" cy="164.735" r="1.26341" fill="#14171A"/>
<circle cx="207.928" cy="164.735" r="1.26341" fill="#14171A"/>
<circle cx="213.824" cy="164.735" r="1.26341" fill="#14171A"/>
<circle cx="219.719" cy="164.735" r="1.26341" fill="#14171A"/>
<circle cx="225.616" cy="164.735" r="1.26341" fill="#14171A"/>
<circle cx="231.511" cy="164.735" r="1.26341" fill="#14171A"/>
<circle cx="237.408" cy="164.735" r="1.26341" fill="#14171A"/>
<circle cx="243.303" cy="164.735" r="1.26341" fill="#14171A"/>
<circle cx="249.199" cy="164.735" r="1.26341" fill="#14171A"/>
<circle cx="255.095" cy="164.735" r="1.26341" fill="#14171A"/>
<circle cx="260.991" cy="164.735" r="1.26341" fill="#14171A"/>
<circle cx="266.887" cy="164.735" r="1.26341" fill="#14171A"/>
<circle cx="272.783" cy="164.735" r="1.26341" fill="#14171A"/>
<circle cx="278.678" cy="164.735" r="1.26341" fill="#14171A"/>
<circle cx="78.2185" cy="170.631" r="1.26341" fill="#14171A"/>
<circle cx="84.114" cy="170.631" r="1.26341" fill="#14171A"/>
<circle cx="90.0105" cy="170.631" r="1.26341" fill="#14171A"/>
<circle cx="95.906" cy="170.631" r="1.26341" fill="#14171A"/>
<circle cx="101.801" cy="170.631" r="1.26341" fill="#14171A"/>
<circle cx="107.698" cy="170.631" r="1.26341" fill="#14171A"/>
<circle cx="113.593" cy="170.631" r="1.26341" fill="#14171A"/>
<circle cx="119.49" cy="170.631" r="1.26341" fill="#14171A"/>
<circle cx="125.385" cy="170.631" r="1.26341" fill="#14171A"/>
<circle cx="131.281" cy="170.631" r="1.26341" fill="#14171A"/>
<circle cx="137.177" cy="170.631" r="1.26341" fill="#14171A"/>
<circle cx="143.073" cy="170.631" r="1.26341" fill="#14171A"/>
<circle cx="148.969" cy="170.631" r="1.26341" fill="#14171A"/>
<circle cx="154.865" cy="170.631" r="1.26341" fill="#14171A"/>
<circle cx="160.76" cy="170.631" r="1.26341" fill="#14171A"/>
<circle cx="166.657" cy="170.631" r="1.26341" fill="#14171A"/>
<circle cx="172.552" cy="170.631" r="1.26341" fill="#14171A"/>
<circle cx="178.449" cy="170.631" r="1.26341" fill="#14171A"/>
<circle cx="184.344" cy="170.631" r="1.26341" fill="#14171A"/>
<circle cx="190.24" cy="170.631" r="1.26341" fill="#14171A"/>
<circle cx="196.136" cy="170.631" r="1.26341" fill="#14171A"/>
<circle cx="202.032" cy="170.631" r="1.26341" fill="#14171A"/>
<circle cx="207.928" cy="170.631" r="1.26341" fill="#14171A"/>
<circle cx="213.824" cy="170.631" r="1.26341" fill="#14171A"/>
<circle cx="219.719" cy="170.631" r="1.26341" fill="#14171A"/>
<circle cx="225.616" cy="170.631" r="1.26341" fill="#14171A"/>
<circle cx="231.511" cy="170.631" r="1.26341" fill="#14171A"/>
<circle cx="237.408" cy="170.631" r="1.26341" fill="#14171A"/>
<circle cx="243.303" cy="170.631" r="1.26341" fill="#14171A"/>
<circle cx="249.199" cy="170.631" r="1.26341" fill="#14171A"/>
<circle cx="255.095" cy="170.631" r="1.26341" fill="#14171A"/>
<circle cx="260.991" cy="170.631" r="1.26341" fill="#14171A"/>
<circle cx="266.887" cy="170.631" r="1.26341" fill="#14171A"/>
<circle cx="272.783" cy="170.631" r="1.26341" fill="#14171A"/>
<circle cx="278.678" cy="170.631" r="1.26341" fill="#14171A"/>
<circle cx="78.2185" cy="176.527" r="1.26341" fill="#14171A"/>
<circle cx="84.114" cy="176.527" r="1.26341" fill="#14171A"/>
<circle cx="90.0105" cy="176.527" r="1.26341" fill="#14171A"/>
<circle cx="95.906" cy="176.527" r="1.26341" fill="#14171A"/>
<circle cx="101.801" cy="176.527" r="1.26341" fill="#14171A"/>
<circle cx="107.698" cy="176.527" r="1.26341" fill="#14171A"/>
<circle cx="113.593" cy="176.527" r="1.26341" fill="#14171A"/>
<circle cx="119.49" cy="176.527" r="1.26341" fill="#14171A"/>
<circle cx="125.385" cy="176.527" r="1.26341" fill="#14171A"/>
<circle cx="131.281" cy="176.527" r="1.26341" fill="#14171A"/>
<circle cx="137.177" cy="176.527" r="1.26341" fill="#14171A"/>
<circle cx="143.073" cy="176.527" r="1.26341" fill="#14171A"/>
<circle cx="148.969" cy="176.527" r="1.26341" fill="#14171A"/>
<circle cx="154.865" cy="176.527" r="1.26341" fill="#14171A"/>
<circle cx="160.76" cy="176.527" r="1.26341" fill="#14171A"/>
<circle cx="166.657" cy="176.527" r="1.26341" fill="#14171A"/>
<circle cx="172.552" cy="176.527" r="1.26341" fill="#14171A"/>
<circle cx="178.449" cy="176.527" r="1.26341" fill="#14171A"/>
<circle cx="184.344" cy="176.527" r="1.26341" fill="#14171A"/>
<circle cx="190.24" cy="176.527" r="1.26341" fill="#14171A"/>
<circle cx="196.136" cy="176.527" r="1.26341" fill="#14171A"/>
<circle cx="202.032" cy="176.527" r="1.26341" fill="#14171A"/>
<circle cx="207.928" cy="176.527" r="1.26341" fill="#14171A"/>
<circle cx="213.824" cy="176.527" r="1.26341" fill="#14171A"/>
<circle cx="219.719" cy="176.527" r="1.26341" fill="#14171A"/>
<circle cx="225.616" cy="176.527" r="1.26341" fill="#14171A"/>
<circle cx="231.511" cy="176.527" r="1.26341" fill="#14171A"/>
<circle cx="237.408" cy="176.527" r="1.26341" fill="#14171A"/>
<circle cx="243.303" cy="176.527" r="1.26341" fill="#14171A"/>
<circle cx="249.199" cy="176.527" r="1.26341" fill="#14171A"/>
<circle cx="255.095" cy="176.527" r="1.26341" fill="#14171A"/>
<circle cx="260.991" cy="176.527" r="1.26341" fill="#14171A"/>
<circle cx="266.887" cy="176.527" r="1.26341" fill="#14171A"/>
<circle cx="272.783" cy="176.527" r="1.26341" fill="#14171A"/>
<circle cx="278.678" cy="176.527" r="1.26341" fill="#14171A"/>
<rect x="73.7955" y="70.1901" width="203.408" height="203.408" rx="20.0039" fill="url(#paint0_linear_33766_14149)" stroke="url(#paint1_linear_33766_14149)" stroke-width="0.421136"/>
</g>
<rect x="113.803" y="110.198" width="123.393" height="123.393" rx="16.6349" fill="url(#paint2_linear_33766_14149)" stroke="url(#paint3_linear_33766_14149)" stroke-width="0.421136"/>
<path opacity="0.25" d="M178.553 151.364H199.61L173.289 190.845V167.157H154.864L178.553 127.675V151.364ZM173.289 156.628V146.679L164.161 161.892H178.553V173.458L189.774 156.628H173.289Z" fill="url(#paint4_linear_33766_14149)"/>
<g clip-path="url(#clip1_33766_14149)">
<ellipse opacity="0.5" cx="175.5" cy="55.6609" rx="156.662" ry="68.224" fill="url(#paint5_linear_33766_14149)"/>
<line opacity="0.25" x1="42.4209" y1="39.2366" x2="307.736" y2="39.2366" stroke="url(#paint6_linear_33766_14149)" stroke-width="0.842271"/>
</g>
</g>
<defs>
<filter id="filter0_d_33766_14149" x="-0.113556" y="0.0709584" width="351.227" height="350.385" filterUnits="userSpaceOnUse" color-interpolation-filters="sRGB">
<feFlood flood-opacity="0" result="BackgroundImageFix"/>
<feColorMatrix in="SourceAlpha" type="matrix" values="0 0 0 0 0 0 0 0 0 0 0 0 0 0 0 0 0 0 127 0" result="hardAlpha"/>
<feOffset dy="3.36908"/>
<feGaussianBlur stdDeviation="21.0568"/>
<feComposite in2="hardAlpha" operator="out"/>
<feColorMatrix type="matrix" values="0 0 0 0 0 0 0 0 0 0 0 0 0 0 0 0 0 0 0.5 0"/>
<feBlend mode="normal" in2="BackgroundImageFix" result="effect1_dropShadow_33766_14149"/>
<feBlend mode="normal" in="SourceGraphic" in2="effect1_dropShadow_33766_14149" result="shape"/>
</filter>
<filter id="filter1_f_33766_14149" x="16.7319" y="16.4953" width="317.536" height="309.956" filterUnits="userSpaceOnUse" color-interpolation-filters="sRGB">
<feFlood flood-opacity="0" result="BackgroundImageFix"/>
<feBlend mode="normal" in="SourceGraphic" in2="BackgroundImageFix" result="shape"/>
<feGaussianBlur stdDeviation="13.4763" result="effect1_foregroundBlur_33766_14149"/>
</filter>
<filter id="filter2_i_33766_14149" x="42.4209" y="38.8154" width="266.157" height="266.158" filterUnits="userSpaceOnUse" color-interpolation-filters="sRGB">
<feFlood flood-opacity="0" result="BackgroundImageFix"/>
<feBlend mode="normal" in="SourceGraphic" in2="BackgroundImageFix" result="shape"/>
<feColorMatrix in="SourceAlpha" type="matrix" values="0 0 0 0 0 0 0 0 0 0 0 0 0 0 0 0 0 0 127 0" result="hardAlpha"/>
<feOffset/>
<feGaussianBlur stdDeviation="4"/>
<feComposite in2="hardAlpha" operator="arithmetic" k2="-1" k3="1"/>
<feColorMatrix type="matrix" values="0 0 0 0 1 0 0 0 0 1 0 0 0 0 1 0 0 0 0.25 0"/>
<feBlend mode="normal" in2="shape" result="effect1_innerShadow_33766_14149"/>
</filter>
<linearGradient id="paint0_linear_33766_14149" x1="170.778" y1="273.809" x2="172.311" y2="-17.4919" gradientUnits="userSpaceOnUse">
<stop/>
<stop offset="1" stop-opacity="0"/>
</linearGradient>
<linearGradient id="paint1_linear_33766_14149" x1="175.5" y1="69.9795" x2="175.5" y2="273.809" gradientUnits="userSpaceOnUse">
<stop stop-color="#191919"/>
<stop offset="1" stop-color="#313335"/>
</linearGradient>
<linearGradient id="paint2_linear_33766_14149" x1="219.819" y1="114.912" x2="139.27" y2="233.801" gradientUnits="userSpaceOnUse">
<stop stop-color="#0F1113"/>
<stop offset="1"/>
</linearGradient>
<linearGradient id="paint3_linear_33766_14149" x1="175.5" y1="109.987" x2="175.5" y2="233.801" gradientUnits="userSpaceOnUse">
<stop stop-color="#191919"/>
<stop offset="1" stop-color="#313335"/>
</linearGradient>
<linearGradient id="paint4_linear_33766_14149" x1="177.237" y1="127.675" x2="177.237" y2="216.728" gradientUnits="userSpaceOnUse">
<stop stop-color="white"/>
<stop offset="1" stop-color="#363A3F"/>
</linearGradient>
<linearGradient id="paint5_linear_33766_14149" x1="169.368" y1="106.254" x2="167.729" y2="-4.285" gradientUnits="userSpaceOnUse">
<stop stop-opacity="0"/>
<stop offset="1" stop-color="#D8D8D8"/>
</linearGradient>
<linearGradient id="paint6_linear_33766_14149" x1="42.4209" y1="40.6579" x2="307.736" y2="40.6579" gradientUnits="userSpaceOnUse">
<stop stop-color="white" stop-opacity="0"/>
<stop offset="0.5" stop-color="white"/>
<stop offset="1" stop-color="white" stop-opacity="0"/>
</linearGradient>
<clipPath id="clip0_33766_14149">
<rect x="277.415" y="273.809" width="203.83" height="203.83" rx="20.2145" transform="rotate(-180 277.415 273.809)" fill="white"/>
</clipPath>
<clipPath id="clip1_33766_14149">
<rect x="307.736" y="118.831" width="265.315" height="80.0157" rx="16" transform="rotate(-180 307.736 118.831)" fill="white"/>
</clipPath>
</defs>
</svg>

