<svg width="1200" height="517" viewBox="0 0 1200 517" fill="none" xmlns="http://www.w3.org/2000/svg">
<g clip-path="url(#clip0_33743_1102)">
<g filter="url(#filter0_b_33743_1102)">
<g clip-path="url(#clip1_33743_1102)">
<g opacity="0.2" filter="url(#filter1_d_33743_1102)">
<ellipse cx="600" cy="552.234" rx="600" ry="552.5" fill="#1C1C21" shape-rendering="crispEdges"/>
<ellipse cx="600" cy="552.234" rx="600" ry="552.5" fill="url(#paint0_linear_33743_1102)" fill-opacity="0.5" shape-rendering="crispEdges"/>
<path d="M600 1105.73C931.844 1105.73 1201 858 1201 552.234C1201 246.468 931.844 -1.26611 600 -1.26611C268.156 -1.26611 -1 246.468 -1 552.234C-1 858 268.156 1105.73 600 1105.73Z" stroke="url(#paint1_linear_33743_1102)" stroke-width="2" shape-rendering="crispEdges"/>
</g>
<g opacity="0.2" filter="url(#filter2_d_33743_1102)">
<ellipse cx="598.353" cy="580.234" rx="424.725" ry="386.5" fill="#1C1C21" shape-rendering="crispEdges"/>
<ellipse cx="598.353" cy="580.234" rx="424.725" ry="386.5" fill="url(#paint2_linear_33743_1102)" fill-opacity="0.5" shape-rendering="crispEdges"/>
<path d="M598.353 967.734C833.384 967.734 1024.08 794.331 1024.08 580.234C1024.08 366.137 833.384 192.734 598.353 192.734C363.322 192.734 172.628 366.137 172.628 580.234C172.628 794.331 363.322 967.734 598.353 967.734Z" stroke="url(#paint3_linear_33743_1102)" stroke-width="2" shape-rendering="crispEdges"/>
</g>
</g>
<g opacity="0.5">
<circle cx="550.257" cy="65.6311" r="2.33768" fill="white" fill-opacity="0.15"/>
<circle cx="669.409" cy="44.5973" r="4.67294" fill="white" fill-opacity="0.15"/>
<circle cx="400.72" cy="65.6253" r="2.33768" fill="white" fill-opacity="0.15"/>
<circle cx="512.865" cy="46.9388" r="2.33768" fill="white" fill-opacity="0.15"/>
<circle cx="808.492" cy="329.367" r="5.0994" transform="rotate(-61.5773 808.492 329.367)" fill="white" fill-opacity="0.15"/>
<g style="mix-blend-mode:overlay">
<circle cx="899.229" cy="325.703" r="2.55102" transform="rotate(-61.5773 899.229 325.703)" fill="white" fill-opacity="0.15"/>
</g>
<circle cx="758.68" cy="156.859" r="2.55102" transform="rotate(-61.5773 758.68 156.859)" fill="white" fill-opacity="0.15"/>
<g style="mix-blend-mode:overlay">
<circle cx="999.279" cy="55.1479" r="2.55102" transform="rotate(-61.5773 999.279 55.1479)" fill="white" fill-opacity="0.15"/>
</g>
<g style="mix-blend-mode:overlay">
<circle cx="1084.53" cy="240.443" r="2.55102" transform="rotate(-61.5773 1084.53 240.443)" fill="white" fill-opacity="0.15"/>
</g>
<g style="mix-blend-mode:overlay">
<circle cx="960.93" cy="217.042" r="5.0994" transform="rotate(-61.5773 960.93 217.042)" fill="white" fill-opacity="0.15"/>
</g>
<g style="mix-blend-mode:overlay">
<circle cx="1126.25" cy="115.169" r="5.0994" transform="rotate(-61.5773 1126.25 115.169)" fill="white" fill-opacity="0.15"/>
</g>
<g style="mix-blend-mode:overlay">
<circle cx="1006.86" cy="383.953" r="2.55102" transform="rotate(-61.5773 1006.86 383.953)" fill="white" fill-opacity="0.15"/>
</g>
<g style="mix-blend-mode:overlay">
<circle cx="1047.18" cy="266.624" r="2.55102" transform="rotate(-61.5773 1047.18 266.624)" fill="white" fill-opacity="0.15"/>
</g>
<circle cx="852.807" cy="68.6479" r="2.55102" transform="rotate(-61.5773 852.807 68.6479)" fill="white" fill-opacity="0.15"/>
<circle cx="848.374" cy="205.402" r="2.55102" transform="rotate(-61.5773 848.374 205.402)" fill="white" fill-opacity="0.15"/>
<g style="mix-blend-mode:overlay">
<circle cx="225.242" cy="422.826" r="5.65275" transform="rotate(-120.448 225.242 422.826)" fill="white" fill-opacity="0.15"/>
</g>
<g style="mix-blend-mode:overlay">
<circle cx="256.382" cy="302.898" r="2.82784" transform="rotate(-120.448 256.382 302.898)" fill="white" fill-opacity="0.15"/>
</g>
<g style="mix-blend-mode:overlay">
<circle cx="15.6201" cy="339.498" r="2.82784" transform="rotate(-120.448 15.6201 339.498)" fill="white" fill-opacity="0.15"/>
</g>
<g style="mix-blend-mode:overlay">
<circle cx="56.9794" cy="52.9118" r="2.82784" transform="rotate(-120.448 56.9794 52.9118)" fill="white" fill-opacity="0.15"/>
</g>
<g style="mix-blend-mode:overlay">
<circle cx="281.667" cy="78.2009" r="2.82784" transform="rotate(-120.448 281.667 78.2009)" fill="white" fill-opacity="0.15"/>
</g>
<g style="mix-blend-mode:overlay">
<circle cx="188.638" cy="182.073" r="5.65275" transform="rotate(-120.448 188.638 182.073)" fill="white" fill-opacity="0.15"/>
</g>
<g style="mix-blend-mode:overlay">
<circle cx="186.699" cy="50.751" r="5.65275" transform="rotate(-120.448 186.699 50.751)" fill="white" fill-opacity="0.15"/>
</g>
<g style="mix-blend-mode:overlay">
<circle cx="373.331" cy="234.138" r="2.82784" transform="rotate(-120.448 373.331 234.138)" fill="white" fill-opacity="0.15"/>
</g>
<g style="mix-blend-mode:overlay">
<circle cx="285.097" cy="128.646" r="2.82784" transform="rotate(-120.448 285.097 128.646)" fill="white" fill-opacity="0.15"/>
</g>
<circle cx="74.3154" cy="175.919" r="2.82784" transform="rotate(-120.448 74.3154 175.919)" fill="white" fill-opacity="0.15"/>
<g style="mix-blend-mode:overlay">
<circle cx="113.074" cy="282.214" r="2.82784" transform="rotate(-120.448 113.074 282.214)" fill="white" fill-opacity="0.15"/>
</g>
</g>
</g>
<line opacity="0.35" x1="34" y1="0.5" x2="1174" y2="0.5" stroke="url(#paint4_linear_33743_1102)"/>
</g>
<defs>
<filter id="filter0_b_33743_1102" x="-193.39" y="-543.914" width="1543.39" height="1210.91" filterUnits="userSpaceOnUse" color-interpolation-filters="sRGB">
<feFlood flood-opacity="0" result="BackgroundImageFix"/>
<feGaussianBlur in="BackgroundImageFix" stdDeviation="75"/>
<feComposite in2="SourceAlpha" operator="in" result="effect1_backgroundBlur_33743_1102"/>
<feBlend mode="normal" in="SourceGraphic" in2="effect1_backgroundBlur_33743_1102" result="shape"/>
</filter>
<filter id="filter1_d_33743_1102" x="-24.36" y="-17.1728" width="1248.72" height="1153.72" filterUnits="userSpaceOnUse" color-interpolation-filters="sRGB">
<feFlood flood-opacity="0" result="BackgroundImageFix"/>
<feColorMatrix in="SourceAlpha" type="matrix" values="0 0 0 0 0 0 0 0 0 0 0 0 0 0 0 0 0 0 127 0" result="hardAlpha"/>
<feOffset dy="7.45333"/>
<feGaussianBlur stdDeviation="11.18"/>
<feComposite in2="hardAlpha" operator="out"/>
<feColorMatrix type="matrix" values="0 0 0 0 0 0 0 0 0 0 0 0 0 0 0 0 0 0 0.2 0"/>
<feBlend mode="normal" in2="BackgroundImageFix" result="effect1_dropShadow_33743_1102"/>
<feBlend mode="normal" in="SourceGraphic" in2="effect1_dropShadow_33743_1102" result="shape"/>
</filter>
<filter id="filter2_d_33743_1102" x="149.268" y="176.827" width="898.17" height="821.72" filterUnits="userSpaceOnUse" color-interpolation-filters="sRGB">
<feFlood flood-opacity="0" result="BackgroundImageFix"/>
<feColorMatrix in="SourceAlpha" type="matrix" values="0 0 0 0 0 0 0 0 0 0 0 0 0 0 0 0 0 0 127 0" result="hardAlpha"/>
<feOffset dy="7.45333"/>
<feGaussianBlur stdDeviation="11.18"/>
<feComposite in2="hardAlpha" operator="out"/>
<feColorMatrix type="matrix" values="0 0 0 0 0 0 0 0 0 0 0 0 0 0 0 0 0 0 0.2 0"/>
<feBlend mode="normal" in2="BackgroundImageFix" result="effect1_dropShadow_33743_1102"/>
<feBlend mode="normal" in="SourceGraphic" in2="effect1_dropShadow_33743_1102" result="shape"/>
</filter>
<linearGradient id="paint0_linear_33743_1102" x1="600" y1="-0.266113" x2="600" y2="1104.73" gradientUnits="userSpaceOnUse">
<stop stop-color="#303035"/>
<stop offset="0.595" stop-color="#37373D" stop-opacity="0.04"/>
</linearGradient>
<linearGradient id="paint1_linear_33743_1102" x1="600" y1="-0.266113" x2="600" y2="1104.73" gradientUnits="userSpaceOnUse">
<stop stop-color="#565660"/>
<stop offset="0.665" stop-color="#3A3A3F" stop-opacity="0"/>
<stop offset="1" stop-color="#252528" stop-opacity="0.977444"/>
</linearGradient>
<linearGradient id="paint2_linear_33743_1102" x1="598.353" y1="193.734" x2="598.353" y2="966.734" gradientUnits="userSpaceOnUse">
<stop stop-color="#303035"/>
<stop offset="1" stop-color="#37373D" stop-opacity="0.04"/>
</linearGradient>
<linearGradient id="paint3_linear_33743_1102" x1="598.353" y1="193.734" x2="598.353" y2="966.734" gradientUnits="userSpaceOnUse">
<stop stop-color="#565660"/>
<stop offset="0.665" stop-color="#3A3A3F" stop-opacity="0"/>
<stop offset="1" stop-color="#252528" stop-opacity="0.977444"/>
</linearGradient>
<linearGradient id="paint4_linear_33743_1102" x1="34" y1="2.00014" x2="1174" y2="2.00014" gradientUnits="userSpaceOnUse">
<stop stop-color="white" stop-opacity="0"/>
<stop offset="0.5" stop-color="white" stop-opacity="0.604167"/>
<stop offset="1" stop-color="white" stop-opacity="0"/>
</linearGradient>
<clipPath id="clip0_33743_1102">
<rect width="1200" height="517" rx="16" fill="white"/>
</clipPath>
<clipPath id="clip1_33743_1102">
<rect width="1200" height="517" fill="white"/>
</clipPath>
</defs>
</svg>

