<svg width="378" height="324" viewBox="0 0 378 324" fill="none" xmlns="http://www.w3.org/2000/svg">
<path d="M69.8837 326.475L57.2351 243.967C57.081 242.961 57.1916 241.933 57.556 240.984L87.9622 161.754C88.83 159.493 91.0017 158 93.4239 158H407.994C411.285 158 413.929 160.714 413.843 164.003L410.612 287.193C410.597 287.776 410.495 288.353 410.309 288.905L397.152 328.008C396.35 330.393 394.113 331.997 391.597 331.993L75.656 331.438C72.7713 331.433 70.3209 329.326 69.8837 326.475Z" fill="url(#paint0_linear_33807_34375)" fill-opacity="0.75"/>
<path opacity="0.6" d="M-97.2038 -14.9263L-323.365 579.198M-57.4717 -14.9263L-283.633 579.198M-17.7396 -14.9263L-243.901 579.198M21.9926 -14.9263L-204.169 579.198M61.7247 -14.9263L-164.437 579.198M101.457 -14.9263L-124.705 579.198M141.189 -14.9263L-84.9724 579.198M180.921 -14.9263L-45.2402 579.198M220.653 -14.9263L-5.50811 579.198M260.385 -14.9263L34.224 579.198M300.117 -14.9263L73.9562 579.198M339.85 -14.9263L113.688 579.198M379.582 -14.9263L153.42 579.198M419.314 -14.9263L193.153 579.198M459.046 -14.9263L232.885 579.198M483.97 22.6706L-151.744 22.6706M469.835 59.8034L-165.879 59.8034M455.7 96.9362L-180.015 96.9361M441.564 134.069L-194.15 134.069M427.429 171.202L-208.285 171.202M413.294 208.334L-222.42 208.334M399.159 245.467L-236.555 245.467M385.024 282.6L-250.69 282.6M370.889 319.733L-264.825 319.733M356.754 356.865L-278.96 356.865M342.619 393.998L-293.095 393.998M328.484 431.131L-307.23 431.131M314.349 468.264H-321.365M300.214 505.396H-335.5M286.079 542.529H-349.636" stroke="url(#paint1_radial_33807_34375)" stroke-width="0.975022"/>
<g filter="url(#filter0_dddddddd_33807_34375)">
<rect width="325.309" height="48.5873" rx="5.85013" transform="matrix(1 0 -0.348081 0.937464 -0.633789 256.622)" fill="#0F1113" shape-rendering="crispEdges"/>
<rect x="0.158909" y="0.228512" width="324.821" height="48.0998" rx="5.60637" transform="matrix(1 0 -0.348081 0.937464 -0.554248 256.636)" stroke="white" stroke-opacity="0.02" stroke-width="0.487511" shape-rendering="crispEdges"/>
<rect x="0.158909" y="0.228512" width="324.821" height="48.0998" rx="5.60637" transform="matrix(1 0 -0.348081 0.937464 -0.554248 256.636)" stroke="url(#paint2_linear_33807_34375)" stroke-opacity="0.06" stroke-width="0.487511" shape-rendering="crispEdges"/>
<g clip-path="url(#clip0_33807_34375)">
<rect width="23.4005" height="23.4005" rx="3.90009" transform="matrix(1 0 -0.348081 0.937464 3.23535 267.209)" fill="#313335"/>
<path d="M11.6885 277.264H15.1011L8.50745 283.205L10.0347 279.092H6.62211L13.2157 273.151L11.6885 277.264Z" fill="white"/>
</g>
<path d="M41.6725 273.42H42.6412L43.3581 282.809L51.0553 273.42H52.0162L43.2521 284.084H42.5177L41.6725 273.42ZM41.3756 273.42H42.2272L40.0988 279.426L38.3693 284.084H37.4162L41.3756 273.42ZM51.4772 273.42H52.3287L48.3693 284.084H47.4084L49.1379 279.426L51.4772 273.42ZM56.7094 282.663L58.2268 278.576C58.3664 278.2 58.4036 277.875 58.3385 277.602C58.2733 277.329 58.1065 277.119 57.838 276.972C57.5694 276.826 57.1982 276.752 56.7242 276.752C56.2867 276.752 55.8689 276.826 55.4708 276.972C55.0796 277.114 54.7398 277.307 54.4512 277.551C54.1697 277.79 53.9745 278.056 53.8658 278.349L52.931 278.342C53.0416 278.044 53.2267 277.756 53.4863 277.478C53.7458 277.199 54.0597 276.95 54.4277 276.73C54.7957 276.511 55.2012 276.337 55.6442 276.21C56.0942 276.079 56.5588 276.013 57.0379 276.013C57.6421 276.013 58.138 276.108 58.5256 276.298C58.9185 276.489 59.1744 276.774 59.2934 277.155C59.4124 277.536 59.365 278.015 59.151 278.591L57.7288 282.421C57.6273 282.695 57.543 282.978 57.4758 283.271C57.4139 283.564 57.3893 283.805 57.4019 283.996L57.3693 284.084H56.3771C56.3799 283.908 56.412 283.688 56.4734 283.425C56.5419 283.156 56.6205 282.902 56.7094 282.663ZM58.1138 279.47L57.8792 280.143H56.0433C55.5641 280.143 55.119 280.185 54.708 280.268C54.304 280.346 53.9428 280.463 53.6243 280.619C53.3077 280.771 53.0392 280.954 52.8188 281.169C52.6036 281.384 52.4453 281.628 52.3437 281.901C52.2386 282.184 52.218 282.443 52.282 282.678C52.3513 282.912 52.5002 283.1 52.7289 283.241C52.9646 283.378 53.2778 283.447 53.6684 283.447C54.1892 283.447 54.6811 283.356 55.144 283.176C55.6121 282.995 56.0308 282.758 56.4 282.465C56.7692 282.172 57.0624 281.852 57.2797 281.506L57.4983 282.011C57.3399 282.255 57.1215 282.507 56.8432 282.765C56.5718 283.019 56.2512 283.259 55.8814 283.483C55.5133 283.703 55.1077 283.884 54.6645 284.025C54.2283 284.162 53.7654 284.23 53.2759 284.23C52.7238 284.23 52.2783 284.133 51.9393 283.937C51.6056 283.742 51.3867 283.476 51.2826 283.139C51.1855 282.797 51.2168 282.411 51.3763 281.982C51.5214 281.591 51.7395 281.242 52.0308 280.934C52.3239 280.622 52.677 280.358 53.0901 280.143C53.5103 279.924 53.9782 279.758 54.4938 279.645C55.0165 279.528 55.5747 279.47 56.1685 279.47H58.1138ZM62.9289 276.159L64.0217 279.36L67.4992 276.159H68.6086L64.3001 280.041L65.7834 284.084H64.6896L63.5183 280.737L59.8693 284.084H58.7756L63.261 280.041L61.8351 276.159H62.9289ZM79.8617 280.759H80.8227C80.478 281.476 80.0369 282.096 79.4991 282.619C78.9632 283.136 78.3467 283.534 77.6496 283.813C76.9525 284.091 76.1847 284.23 75.3462 284.23C74.7003 284.23 74.157 284.115 73.7162 283.886C73.2805 283.656 72.9532 283.332 72.7341 282.912C72.5168 282.487 72.4163 281.979 72.4325 281.388C72.4488 280.798 72.5911 280.141 72.8594 279.418L73.3543 278.085C73.6226 277.363 73.9671 276.709 74.3878 276.123C74.8103 275.532 75.2905 275.024 75.8284 274.599C76.3663 274.174 76.9435 273.847 77.56 273.618C78.1764 273.388 78.818 273.274 79.4847 273.274C80.292 273.274 80.9382 273.413 81.4234 273.691C81.9104 273.964 82.2271 274.36 82.3735 274.878C82.5251 275.395 82.504 276.02 82.3102 276.752H81.3492C81.4902 276.176 81.5101 275.688 81.4087 275.288C81.3074 274.887 81.0743 274.582 80.7096 274.372C80.3519 274.157 79.8475 274.05 79.1964 274.05C78.6652 274.05 78.1559 274.145 77.6685 274.336C77.1811 274.526 76.7254 274.799 76.3014 275.156C75.8792 275.507 75.4984 275.93 75.1591 276.423C74.8249 276.916 74.5455 277.465 74.3207 278.071L73.8203 279.418C73.6028 280.004 73.4753 280.544 73.4381 281.037C73.4008 281.53 73.4557 281.957 73.6028 282.319C73.7551 282.68 73.9998 282.961 74.3369 283.161C74.6741 283.361 75.1057 283.461 75.6317 283.461C76.3036 283.461 76.9006 283.361 77.4229 283.161C77.9522 282.956 78.4161 282.653 78.8148 282.253C79.2134 281.852 79.5624 281.354 79.8617 280.759ZM87.3812 282.663L88.8987 278.576C89.0383 278.2 89.0755 277.875 89.0103 277.602C88.9452 277.329 88.7784 277.119 88.5098 276.972C88.2413 276.826 87.8701 276.752 87.3961 276.752C86.9586 276.752 86.5408 276.826 86.1426 276.972C85.7515 277.114 85.4117 277.307 85.1231 277.551C84.8416 277.79 84.6464 278.056 84.5376 278.349L83.6029 278.342C83.7135 278.044 83.8985 277.756 84.1581 277.478C84.4177 277.199 84.7315 276.95 85.0996 276.73C85.4676 276.511 85.8731 276.337 86.3161 276.21C86.7661 276.079 87.2306 276.013 87.7098 276.013C88.314 276.013 88.8099 276.108 89.1975 276.298C89.5903 276.489 89.8463 276.774 89.9653 277.155C90.0843 277.536 90.0368 278.015 89.8229 278.591L88.4007 282.421C88.2991 282.695 88.2148 282.978 88.1477 283.271C88.0858 283.564 88.0612 283.805 88.0738 283.996L88.0412 284.084H87.049C87.0518 283.908 87.0839 283.688 87.1453 283.425C87.2138 283.156 87.2924 282.902 87.3812 282.663ZM88.7856 279.47L88.5511 280.143H86.7151C86.236 280.143 85.7909 280.185 85.3799 280.268C84.9758 280.346 84.6146 280.463 84.2962 280.619C83.9796 280.771 83.7111 280.954 83.4907 281.169C83.2755 281.384 83.1171 281.628 83.0156 281.901C82.9105 282.184 82.8899 282.443 82.9539 282.678C83.0232 282.912 83.1721 283.1 83.4008 283.241C83.6365 283.378 83.9496 283.447 84.3403 283.447C84.8611 283.447 85.353 283.356 85.8159 283.176C86.284 282.995 86.7027 282.758 87.0718 282.465C87.441 282.172 87.7343 281.852 87.9515 281.506L88.1701 282.011C88.0118 282.255 87.7934 282.507 87.515 282.765C87.2437 283.019 86.9231 283.259 86.5532 283.483C86.1852 283.703 85.7796 283.884 85.3364 284.025C84.9002 284.162 84.4373 284.23 83.9477 284.23C83.3956 284.23 82.9501 284.133 82.6112 283.937C82.2775 283.742 82.0586 283.476 81.9545 283.139C81.8574 282.797 81.8887 282.411 82.0482 281.982C82.1932 281.591 82.4114 281.242 82.7027 280.934C82.9958 280.622 83.3489 280.358 83.762 280.143C84.1821 279.924 84.65 279.758 85.1657 279.645C85.6884 279.528 86.2466 279.47 86.8403 279.47H88.7856ZM93.5898 277.683L90.0818 287.13H89.1443L93.2179 276.159H94.0929L93.5898 277.683ZM98.5864 280.048L98.5293 280.202C98.31 280.793 98.0358 281.335 97.7069 281.828C97.3779 282.321 97.0084 282.748 96.5982 283.11C96.195 283.466 95.7566 283.742 95.2831 283.937C94.8095 284.133 94.3175 284.23 93.8071 284.23C93.3019 284.23 92.8786 284.157 92.5371 284.01C92.1957 283.864 91.9316 283.656 91.7448 283.388C91.5651 283.115 91.4564 282.797 91.4187 282.436C91.388 282.07 91.4194 281.669 91.5131 281.235L92.2664 279.206C92.5221 278.727 92.8111 278.293 93.1332 277.902C93.4553 277.512 93.807 277.175 94.1882 276.892C94.5746 276.608 94.9886 276.391 95.4302 276.24C95.8718 276.088 96.34 276.013 96.8348 276.013C97.3504 276.013 97.7734 276.108 98.1038 276.298C98.4411 276.484 98.6816 276.755 98.8253 277.111C98.9761 277.463 99.0293 277.888 98.985 278.386C98.9477 278.879 98.8149 279.433 98.5864 280.048ZM97.5918 280.202L97.6489 280.048C97.8212 279.584 97.9286 279.155 97.9713 278.759C98.0192 278.364 97.9933 278.019 97.8938 277.727C97.8013 277.429 97.627 277.197 97.3709 277.031C97.12 276.865 96.7784 276.782 96.3462 276.782C95.8982 276.782 95.4891 276.853 95.1189 276.994C94.7556 277.131 94.4272 277.314 94.1337 277.543C93.8419 277.768 93.5863 278.015 93.3668 278.283C93.1473 278.552 92.9609 278.815 92.8075 279.074L91.94 281.41C91.9012 281.782 91.9322 282.126 92.0331 282.443C92.1359 282.756 92.3342 283.007 92.628 283.198C92.9289 283.383 93.345 283.476 93.8763 283.476C94.3033 283.476 94.704 283.393 95.0781 283.227C95.4522 283.061 95.7962 282.829 96.1099 282.531C96.4288 282.233 96.7112 281.887 96.957 281.491C97.208 281.096 97.4196 280.666 97.5918 280.202ZM104.834 282.663L106.352 278.576C106.491 278.2 106.529 277.875 106.463 277.602C106.398 277.329 106.231 277.119 105.963 276.972C105.694 276.826 105.323 276.752 104.849 276.752C104.412 276.752 103.994 276.826 103.596 276.972C103.205 277.114 102.865 277.307 102.576 277.551C102.295 277.79 102.1 278.056 101.991 278.349L101.056 278.342C101.167 278.044 101.352 277.756 101.611 277.478C101.871 277.199 102.185 276.95 102.553 276.73C102.921 276.511 103.326 276.337 103.769 276.21C104.219 276.079 104.684 276.013 105.163 276.013C105.767 276.013 106.263 276.108 106.651 276.298C107.043 276.489 107.299 276.774 107.418 277.155C107.537 277.536 107.49 278.015 107.276 278.591L105.854 282.421C105.752 282.695 105.668 282.978 105.601 283.271C105.539 283.564 105.514 283.805 105.527 283.996L105.494 284.084H104.502C104.505 283.908 104.537 283.688 104.598 283.425C104.667 283.156 104.746 282.902 104.834 282.663ZM106.239 279.47L106.004 280.143H104.168C103.689 280.143 103.244 280.185 102.833 280.268C102.429 280.346 102.068 280.463 101.749 280.619C101.433 280.771 101.164 280.954 100.944 281.169C100.729 281.384 100.57 281.628 100.469 281.901C100.364 282.184 100.343 282.443 100.407 282.678C100.476 282.912 100.625 283.1 100.854 283.241C101.09 283.378 101.403 283.447 101.793 283.447C102.314 283.447 102.806 283.356 103.269 283.176C103.737 282.995 104.156 282.758 104.525 282.465C104.894 282.172 105.187 281.852 105.405 281.506L105.623 282.011C105.465 282.255 105.247 282.507 104.968 282.765C104.697 283.019 104.376 283.259 104.006 283.483C103.638 283.703 103.233 283.884 102.789 284.025C102.353 284.162 101.89 284.23 101.401 284.23C100.849 284.23 100.403 284.133 100.064 283.937C99.7306 283.742 99.5117 283.476 99.4076 283.139C99.3105 282.797 99.3418 282.411 99.5013 281.982C99.6464 281.591 99.8645 281.242 100.156 280.934C100.449 280.622 100.802 280.358 101.215 280.143C101.635 279.924 102.103 279.758 102.619 279.645C103.141 279.528 103.7 279.47 104.293 279.47H106.239ZM111.087 283.476C111.483 283.476 111.878 283.407 112.273 283.271C112.674 283.129 113.038 282.922 113.363 282.648C113.696 282.37 113.952 282.031 114.132 281.63H115.022C114.81 282.133 114.479 282.582 114.03 282.978C113.588 283.368 113.083 283.676 112.515 283.901C111.955 284.12 111.385 284.23 110.807 284.23C110.219 284.23 109.735 284.13 109.356 283.93C108.983 283.73 108.711 283.451 108.541 283.095C108.373 282.734 108.3 282.314 108.321 281.835C108.35 281.352 108.467 280.832 108.674 280.275L108.788 279.968C108.995 279.411 109.263 278.893 109.591 278.415C109.927 277.932 110.312 277.512 110.747 277.155C111.183 276.794 111.662 276.513 112.184 276.313C112.707 276.113 113.262 276.013 113.85 276.013C114.455 276.013 114.954 276.127 115.348 276.357C115.747 276.586 116.012 276.911 116.142 277.331C116.278 277.751 116.252 278.249 116.064 278.825H115.173C115.305 278.4 115.321 278.034 115.222 277.727C115.123 277.419 114.929 277.182 114.642 277.016C114.355 276.85 113.997 276.767 113.57 276.767C113.091 276.767 112.65 276.855 112.246 277.031C111.844 277.202 111.48 277.438 111.154 277.741C110.835 278.039 110.555 278.381 110.312 278.767C110.072 279.147 109.874 279.548 109.718 279.968L109.604 280.275C109.446 280.7 109.342 281.105 109.293 281.491C109.25 281.872 109.278 282.211 109.376 282.509C109.479 282.807 109.667 283.044 109.94 283.219C110.22 283.39 110.603 283.476 111.087 283.476ZM119.976 276.159L117.033 284.084H116.104L119.046 276.159H119.976ZM119.733 273.867C119.795 273.701 119.901 273.562 120.052 273.449C120.21 273.332 120.388 273.274 120.586 273.274C120.784 273.274 120.919 273.332 120.99 273.449C121.068 273.562 121.076 273.701 121.014 273.867C120.955 274.028 120.843 274.167 120.68 274.284C120.523 274.397 120.346 274.453 120.148 274.453C119.951 274.453 119.815 274.397 119.742 274.284C119.676 274.167 119.673 274.028 119.733 273.867ZM125.726 276.159L125.459 276.877H121.225L121.491 276.159H125.726ZM123.802 274.123H124.732L121.749 282.158C121.613 282.524 121.562 282.8 121.598 282.985C121.633 283.171 121.722 283.295 121.865 283.359C122.008 283.422 122.176 283.454 122.369 283.454C122.509 283.454 122.648 283.447 122.783 283.432C122.921 283.412 123.045 283.393 123.157 283.373L122.921 284.113C122.794 284.147 122.635 284.174 122.446 284.194C122.254 284.218 122.068 284.23 121.885 284.23C121.526 284.23 121.231 284.169 121 284.047C120.771 283.92 120.635 283.705 120.591 283.403C120.549 283.095 120.626 282.678 120.822 282.15L123.802 274.123ZM127.546 283.293L132.827 276.159H133.835L126.841 285.358C126.701 285.539 126.533 285.739 126.337 285.959C126.146 286.178 125.922 286.388 125.666 286.588C125.413 286.794 125.127 286.96 124.809 287.087C124.494 287.218 124.144 287.284 123.759 287.284C123.66 287.284 123.537 287.272 123.39 287.248C123.246 287.228 123.144 287.209 123.083 287.189L123.35 286.449C123.402 286.464 123.481 286.476 123.587 286.486C123.692 286.496 123.766 286.501 123.808 286.501C124.146 286.501 124.45 286.447 124.719 286.339C124.993 286.232 125.249 286.071 125.485 285.856C125.719 285.646 125.955 285.382 126.192 285.065L127.546 283.293ZM127.734 276.159L127.903 282.963L127.813 283.879L127 284.238L126.718 276.159H127.734Z" fill="url(#paint3_linear_33807_34375)"/>
<path d="M298.61 283.052C298.361 283.723 297.573 284.271 296.858 284.271C296.143 284.271 295.761 283.723 296.01 283.052C296.259 282.382 297.048 281.834 297.763 281.834C298.478 281.834 298.859 282.382 298.61 283.052ZM299.12 278.178C298.405 278.178 297.617 278.726 297.368 279.396C297.119 280.067 297.5 280.615 298.215 280.615C298.93 280.615 299.719 280.067 299.968 279.396C300.217 278.726 299.835 278.178 299.12 278.178ZM300.478 274.521C299.763 274.521 298.974 275.07 298.725 275.74C298.476 276.41 298.858 276.959 299.573 276.959C300.288 276.959 301.076 276.41 301.325 275.74C301.574 275.07 301.193 274.521 300.478 274.521ZM303.473 276.959C304.188 276.959 304.976 276.41 305.225 275.74C305.474 275.07 305.093 274.521 304.378 274.521C303.663 274.521 302.874 275.07 302.625 275.74C302.376 276.41 302.758 276.959 303.473 276.959ZM303.02 278.178C302.305 278.178 301.517 278.726 301.268 279.396C301.019 280.067 301.4 280.615 302.115 280.615C302.83 280.615 303.619 280.067 303.868 279.396C304.117 278.726 303.735 278.178 303.02 278.178ZM301.663 281.834C300.948 281.834 300.159 282.382 299.91 283.052C299.661 283.723 300.043 284.271 300.758 284.271C301.473 284.271 302.261 283.723 302.51 283.052C302.759 282.382 302.378 281.834 301.663 281.834Z" fill="#989898"/>
</g>
<g filter="url(#filter1_dd_33807_34375)">
<rect width="325.401" height="92.9251" rx="5.85013" transform="matrix(1 0 -0.348081 0.937464 87.8271 158.336)" fill="#0F1113" shape-rendering="crispEdges"/>
<rect x="0.16298" y="0.234366" width="324.901" height="92.4251" rx="5.60013" transform="matrix(1 0 -0.348081 0.937464 87.9087 158.35)" stroke="white" stroke-opacity="0.01" stroke-width="0.5" shape-rendering="crispEdges"/>
<rect x="0.16298" y="0.234366" width="324.901" height="92.4251" rx="5.60013" transform="matrix(1 0 -0.348081 0.937464 87.9087 158.35)" stroke="url(#paint4_linear_33807_34375)" stroke-opacity="0.04" stroke-width="0.5" shape-rendering="crispEdges"/>
<g clip-path="url(#clip1_33807_34375)">
<g clip-path="url(#clip2_33807_34375)">
<path d="M100.982 206.049H109.849L112.935 197.737H104.068L100.982 206.049ZM106.379 207.434H103.423L102.909 208.82H101.431L101.945 207.434H99.7288C99.5328 207.434 99.372 207.361 99.2817 207.231C99.1913 207.101 99.1789 206.925 99.2471 206.742L100.019 204.664H98.5409L99.0553 203.278H100.533L101.562 200.507H100.084L100.598 199.122H102.076L102.848 197.044C102.916 196.86 103.059 196.684 103.246 196.554C103.433 196.424 103.648 196.351 103.844 196.351H106.061L106.575 194.966H108.053L107.538 196.351H110.494L111.008 194.966H112.486L111.972 196.351H114.188C114.384 196.351 114.545 196.424 114.635 196.554C114.726 196.684 114.738 196.86 114.67 197.044L113.898 199.122H115.376L114.862 200.507H113.384L112.355 203.278H113.833L113.319 204.664H111.841L111.069 206.742C111.001 206.925 110.858 207.101 110.671 207.231C110.484 207.361 110.269 207.434 110.073 207.434H107.857L107.342 208.82H105.864L106.379 207.434ZM105.032 199.122H110.943L108.885 204.664H102.974L105.032 199.122Z" fill="url(#paint5_linear_33807_34375)"/>
</g>
</g>
<rect x="0.321129" y="0.461785" width="38.422" height="38.422" rx="19.211" transform="matrix(1 0 -0.348081 0.937464 94.274 183.45)" stroke="white" stroke-opacity="0.02" stroke-width="0.98518"/>
<rect x="0.321129" y="0.461785" width="38.422" height="38.422" rx="19.211" transform="matrix(1 0 -0.348081 0.937464 94.274 183.45)" stroke="url(#paint6_linear_33807_34375)" stroke-opacity="0.06" stroke-width="0.98518"/>
<path d="M144.078 200.487H141.291L142.025 198.559H144.793C145.485 198.559 146.122 198.413 146.705 198.122C147.289 197.825 147.807 197.394 148.257 196.828C148.713 196.263 149.09 195.579 149.388 194.777L149.605 194.192C149.834 193.577 149.964 193.035 149.997 192.569C150.036 192.102 149.979 191.709 149.828 191.39C149.677 191.072 149.435 190.833 149.101 190.673C148.77 190.509 148.349 190.426 147.839 190.426H144.974L145.693 188.49H148.558C149.414 188.49 150.145 188.627 150.752 188.902C151.367 189.171 151.841 189.558 152.175 190.064C152.509 190.569 152.686 191.173 152.706 191.876C152.734 192.574 152.589 193.351 152.271 194.208L152.06 194.777C151.744 195.628 151.312 196.405 150.764 197.108C150.221 197.812 149.595 198.416 148.886 198.921C148.185 199.421 147.423 199.808 146.601 200.083C145.786 200.352 144.945 200.487 144.078 200.487ZM147.24 188.49L142.786 200.487H140.149L144.603 188.49H147.24ZM152.915 196.12L152.979 195.947C153.222 195.293 153.545 194.692 153.948 194.142C154.353 193.587 154.822 193.107 155.353 192.7C155.885 192.294 156.471 191.978 157.111 191.753C157.754 191.522 158.435 191.407 159.156 191.407C159.877 191.407 160.475 191.522 160.952 191.753C161.431 191.978 161.786 192.294 162.015 192.7C162.251 193.107 162.366 193.587 162.359 194.142C162.354 194.692 162.231 195.293 161.988 195.947L161.924 196.12C161.683 196.768 161.36 197.369 160.955 197.924C160.552 198.473 160.08 198.954 159.541 199.366C159.009 199.773 158.423 200.088 157.782 200.314C157.142 200.539 156.462 200.651 155.741 200.651C155.02 200.651 154.42 200.539 153.942 200.314C153.469 200.088 153.114 199.773 152.878 199.366C152.651 198.954 152.539 198.473 152.544 197.924C152.55 197.369 152.674 196.768 152.915 196.12ZM155.51 195.947L155.446 196.12C155.307 196.493 155.213 196.842 155.163 197.166C155.113 197.49 155.118 197.776 155.179 198.023C155.247 198.265 155.382 198.454 155.583 198.592C155.784 198.729 156.066 198.798 156.429 198.798C156.781 198.798 157.108 198.729 157.411 198.592C157.714 198.454 157.987 198.265 158.229 198.023C158.473 197.776 158.69 197.49 158.881 197.166C159.077 196.842 159.245 196.493 159.384 196.12L159.448 195.947C159.582 195.584 159.671 195.244 159.713 194.925C159.763 194.601 159.755 194.315 159.688 194.068C159.63 193.815 159.501 193.618 159.302 193.475C159.103 193.332 158.825 193.261 158.468 193.261C158.11 193.261 157.779 193.332 157.474 193.475C157.175 193.618 156.899 193.815 156.647 194.068C156.403 194.315 156.186 194.601 155.995 194.925C155.807 195.244 155.645 195.584 155.51 195.947ZM165.309 191.572H167.849L164.34 201.022C164.095 201.681 163.759 202.239 163.332 202.695C162.905 203.151 162.404 203.497 161.83 203.733C161.256 203.969 160.623 204.087 159.932 204.087C159.715 204.087 159.508 204.076 159.311 204.054C159.109 204.032 158.905 203.997 158.701 203.947L159.386 202.126C159.518 202.148 159.65 202.165 159.78 202.176C159.903 202.192 160.032 202.2 160.167 202.2C160.43 202.2 160.666 202.159 160.872 202.077C161.078 201.994 161.258 201.865 161.411 201.69C161.568 201.519 161.698 201.297 161.8 201.022L165.309 191.572ZM165.969 189.248C166.098 188.902 166.333 188.616 166.674 188.391C167.021 188.166 167.409 188.053 167.837 188.053C168.27 188.053 168.574 188.166 168.748 188.391C168.923 188.616 168.945 188.902 168.817 189.248C168.688 189.594 168.453 189.88 168.112 190.105C167.771 190.33 167.383 190.443 166.949 190.443C166.522 190.443 166.218 190.33 166.038 190.105C165.864 189.88 165.841 189.594 165.969 189.248ZM167.768 196.12L167.833 195.947C168.075 195.293 168.398 194.692 168.801 194.142C169.207 193.587 169.675 193.107 170.207 192.7C170.739 192.294 171.325 191.978 171.965 191.753C172.607 191.522 173.289 191.407 174.009 191.407C174.73 191.407 175.329 191.522 175.806 191.753C176.285 191.978 176.639 192.294 176.869 192.7C177.105 193.107 177.219 193.587 177.213 194.142C177.208 194.692 177.084 195.293 176.841 195.947L176.777 196.12C176.536 196.768 176.214 197.369 175.808 197.924C175.405 198.473 174.934 198.954 174.394 199.366C173.862 199.773 173.276 200.088 172.636 200.314C171.996 200.539 171.315 200.651 170.595 200.651C169.874 200.651 169.274 200.539 168.795 200.314C168.322 200.088 167.968 199.773 167.732 199.366C167.504 198.954 167.392 198.473 167.397 197.924C167.404 197.369 167.528 196.768 167.768 196.12ZM170.364 195.947L170.3 196.12C170.161 196.493 170.067 196.842 170.017 197.166C169.966 197.49 169.972 197.776 170.032 198.023C170.101 198.265 170.236 198.454 170.436 198.592C170.637 198.729 170.92 198.798 171.283 198.798C171.634 198.798 171.962 198.729 172.265 198.592C172.568 198.454 172.84 198.265 173.082 198.023C173.326 197.776 173.544 197.49 173.734 197.166C173.931 196.842 174.098 196.493 174.237 196.12L174.301 195.947C174.436 195.584 174.524 195.244 174.566 194.925C174.616 194.601 174.608 194.315 174.542 194.068C174.483 193.815 174.355 193.618 174.156 193.475C173.957 193.332 173.679 193.261 173.321 193.261C172.964 193.261 172.633 193.332 172.328 193.475C172.028 193.618 171.753 193.815 171.501 194.068C171.257 194.315 171.039 194.601 170.849 194.925C170.66 195.244 170.498 195.584 170.364 195.947ZM193.823 194.216L192.057 198.971C191.775 199.196 191.376 199.44 190.862 199.704C190.35 199.962 189.732 200.185 189.006 200.371C188.281 200.558 187.452 200.651 186.52 200.651C185.694 200.651 184.988 200.525 184.402 200.272C183.818 200.014 183.372 199.638 183.064 199.144C182.761 198.649 182.61 198.045 182.612 197.331C182.615 196.611 182.788 195.79 183.131 194.867L183.409 194.118C183.752 193.195 184.183 192.374 184.702 191.654C185.227 190.934 185.818 190.327 186.477 189.833C187.135 189.339 187.84 188.962 188.592 188.704C189.344 188.446 190.122 188.317 190.924 188.317C192.038 188.317 192.888 188.487 193.477 188.828C194.067 189.163 194.439 189.63 194.591 190.229C194.752 190.822 194.734 191.503 194.536 192.272H191.978C192.065 191.865 192.073 191.511 192.004 191.209C191.934 190.907 191.761 190.671 191.485 190.5C191.214 190.33 190.812 190.245 190.279 190.245C189.839 190.245 189.415 190.33 189.006 190.5C188.605 190.665 188.227 190.91 187.873 191.234C187.518 191.558 187.19 191.959 186.89 192.437C186.589 192.915 186.322 193.469 186.087 194.101L185.803 194.867C185.57 195.494 185.429 196.048 185.378 196.532C185.33 197.01 185.37 197.413 185.5 197.743C185.637 198.067 185.863 198.311 186.177 198.476C186.49 198.641 186.896 198.723 187.394 198.723C187.81 198.723 188.168 198.69 188.468 198.625C188.774 198.559 189.029 198.479 189.234 198.386C189.446 198.287 189.616 198.193 189.742 198.105L190.531 195.98H188.123L188.778 194.216H193.823ZM200.193 196.21H196.932L197.648 194.282H200.909C201.412 194.282 201.851 194.205 202.225 194.052C202.6 193.892 202.913 193.673 203.164 193.392C203.414 193.112 203.605 192.797 203.735 192.445C203.868 192.088 203.918 191.756 203.886 191.448C203.854 191.14 203.714 190.893 203.467 190.706C203.22 190.52 202.844 190.426 202.34 190.426H199.994L196.258 200.487H193.622L198.076 188.49H203.059C204.061 188.49 204.856 188.66 205.445 189.001C206.041 189.336 206.42 189.8 206.58 190.393C206.741 190.987 206.679 191.665 206.396 192.428C206.108 193.203 205.669 193.873 205.078 194.439C204.487 195.005 203.774 195.441 202.939 195.749C202.11 196.057 201.195 196.21 200.193 196.21ZM216.744 188.49H219.372L216.429 196.416C216.086 197.339 215.587 198.116 214.93 198.748C214.28 199.38 213.526 199.855 212.669 200.174C211.819 200.492 210.916 200.651 209.961 200.651C209.006 200.651 208.215 200.492 207.589 200.174C206.969 199.855 206.566 199.38 206.378 198.748C206.197 198.116 206.277 197.339 206.62 196.416L209.563 188.49H212.2L209.257 196.416C209.057 196.955 208.985 197.394 209.04 197.735C209.095 198.075 209.263 198.325 209.544 198.484C209.83 198.644 210.208 198.723 210.677 198.723C211.157 198.723 211.594 198.644 211.987 198.484C212.386 198.325 212.737 198.075 213.039 197.735C213.347 197.394 213.601 196.955 213.801 196.416L216.744 188.49Z" fill="url(#paint7_linear_33807_34375)"/>
<path d="M138.93 212.027L132.706 220.173H131.894L138.602 211.509H139.167L138.93 212.027ZM138.813 220.173L138.632 212.027L138.78 211.509H139.345L139.625 220.173H138.813ZM139.377 217.115L139.143 217.746H134.236L134.47 217.115H139.377ZM143.535 219.679C143.856 219.679 144.177 219.624 144.498 219.513C144.824 219.398 145.12 219.229 145.384 219.007C145.654 218.781 145.862 218.505 146.009 218.18H146.732C146.559 218.589 146.29 218.954 145.926 219.275C145.567 219.592 145.156 219.842 144.695 220.025C144.24 220.203 143.777 220.292 143.307 220.292C142.829 220.292 142.436 220.211 142.128 220.048C141.825 219.886 141.604 219.66 141.466 219.37C141.33 219.076 141.27 218.735 141.287 218.347C141.311 217.954 141.406 217.531 141.574 217.079L141.667 216.829C141.835 216.377 142.052 215.956 142.319 215.568C142.592 215.175 142.905 214.834 143.258 214.544C143.612 214.25 144.002 214.022 144.426 213.86C144.85 213.697 145.302 213.616 145.78 213.616C146.271 213.616 146.676 213.709 146.996 213.895C147.321 214.082 147.536 214.346 147.642 214.687C147.752 215.028 147.731 215.433 147.578 215.901H146.855C146.962 215.556 146.975 215.258 146.894 215.008C146.813 214.758 146.656 214.566 146.423 214.431C146.19 214.296 145.899 214.229 145.552 214.229C145.163 214.229 144.804 214.3 144.476 214.443C144.15 214.582 143.854 214.774 143.589 215.02C143.33 215.262 143.102 215.54 142.905 215.853C142.71 216.163 142.549 216.488 142.422 216.829L142.329 217.079C142.201 217.424 142.117 217.753 142.077 218.067C142.042 218.376 142.065 218.652 142.144 218.894C142.228 219.136 142.381 219.328 142.603 219.471C142.831 219.61 143.141 219.679 143.535 219.679ZM152.509 213.735L152.292 214.318H148.852L149.068 213.735H152.509ZM150.946 212.08H151.701L149.277 218.608C149.167 218.906 149.126 219.13 149.154 219.281C149.183 219.432 149.256 219.533 149.372 219.584C149.488 219.636 149.625 219.662 149.781 219.662C149.895 219.662 150.008 219.656 150.118 219.644C150.23 219.628 150.331 219.612 150.421 219.596L150.23 220.197C150.126 220.225 149.998 220.247 149.844 220.263C149.688 220.282 149.536 220.292 149.388 220.292C149.096 220.292 148.856 220.243 148.669 220.144C148.483 220.041 148.372 219.866 148.337 219.62C148.302 219.37 148.365 219.031 148.524 218.602L150.946 212.08ZM154.946 213.735L152.555 220.173H151.8L154.191 213.735H154.946ZM154.749 211.872C154.799 211.737 154.886 211.624 155.008 211.533C155.137 211.438 155.281 211.39 155.442 211.39C155.603 211.39 155.712 211.438 155.77 211.533C155.833 211.624 155.84 211.737 155.79 211.872C155.741 212.003 155.651 212.116 155.518 212.211C155.391 212.303 155.247 212.348 155.086 212.348C154.926 212.348 154.816 212.303 154.756 212.211C154.703 212.116 154.7 212.003 154.749 211.872ZM156.91 219.489L161.249 213.735H162.03L157.069 220.173H156.516L156.91 219.489ZM157.054 213.735L157.138 219.507L157.012 220.173H156.453L156.266 213.735H157.054ZM163.41 220.292C162.962 220.292 162.578 220.215 162.259 220.06C161.944 219.906 161.699 219.687 161.524 219.406C161.354 219.124 161.264 218.791 161.254 218.406C161.25 218.017 161.334 217.593 161.505 217.133L161.6 216.877C161.784 216.381 162.029 215.933 162.334 215.532C162.639 215.131 162.983 214.788 163.364 214.502C163.745 214.217 164.139 213.999 164.546 213.848C164.959 213.693 165.36 213.616 165.75 213.616C166.185 213.616 166.545 213.689 166.829 213.836C167.115 213.979 167.323 214.183 167.452 214.449C167.588 214.711 167.648 215.022 167.632 215.383C167.618 215.74 167.531 216.135 167.37 216.567L167.209 217.002H162.01L162.236 216.395H166.679L166.71 216.311C166.836 215.95 166.883 215.613 166.851 215.3C166.825 214.982 166.705 214.725 166.491 214.526C166.277 214.328 165.954 214.229 165.522 214.229C165.2 214.229 164.881 214.292 164.563 214.419C164.249 214.546 163.951 214.729 163.667 214.967C163.39 215.201 163.138 215.48 162.912 215.806C162.691 216.127 162.507 216.484 162.362 216.877L162.267 217.133C162.134 217.49 162.065 217.823 162.06 218.132C162.061 218.438 162.122 218.708 162.242 218.942C162.367 219.176 162.549 219.358 162.788 219.489C163.027 219.62 163.32 219.685 163.667 219.685C164.074 219.685 164.459 219.616 164.824 219.477C165.19 219.334 165.555 219.11 165.918 218.805L166.266 219.15C166.041 219.356 165.784 219.547 165.495 219.721C165.21 219.896 164.894 220.035 164.547 220.138C164.2 220.241 163.821 220.292 163.41 220.292Z" fill="#313335"/>
<rect x="0.160564" y="0.230893" width="52.5074" height="32.5074" rx="16.2537" transform="matrix(1 0 -0.348081 0.937464 326.478 186.439)" fill="#313335"/>
<rect x="0.160564" y="0.230893" width="52.5074" height="32.5074" rx="16.2537" transform="matrix(1 0 -0.348081 0.937464 326.478 186.439)" stroke="#5F6165" stroke-width="0.49259"/>
<path d="M333.872 204.608H334.012C334.597 204.608 335.125 204.541 335.594 204.409C336.07 204.271 336.492 204.074 336.861 203.818C337.229 203.562 337.549 203.248 337.818 202.877C338.089 202.502 338.313 202.076 338.49 201.6L339.194 199.705C339.328 199.344 339.407 199.026 339.431 198.751C339.46 198.476 339.436 198.25 339.361 198.071C339.292 197.888 339.182 197.751 339.031 197.659C338.884 197.568 338.701 197.522 338.481 197.522C338.247 197.522 338.019 197.577 337.797 197.687C337.577 197.792 337.37 197.936 337.175 198.119C336.985 198.302 336.812 198.513 336.655 198.751C336.505 198.984 336.382 199.229 336.287 199.486C336.192 199.742 336.133 199.987 336.109 200.22C336.088 200.449 336.107 200.653 336.168 200.831C336.23 201.005 336.337 201.145 336.489 201.25C336.642 201.351 336.848 201.401 337.106 201.401C337.355 201.401 337.594 201.358 337.821 201.271C338.056 201.179 338.268 201.06 338.459 200.914C338.655 200.767 338.823 200.605 338.963 200.426C339.107 200.248 339.213 200.067 339.281 199.884L339.844 200.241C339.725 200.561 339.535 200.877 339.273 201.188C339.011 201.5 338.7 201.783 338.341 202.04C337.989 202.292 337.614 202.493 337.216 202.644C336.818 202.795 336.424 202.871 336.034 202.871C335.535 202.871 335.125 202.786 334.802 202.617C334.481 202.443 334.242 202.205 334.086 201.902C333.936 201.596 333.868 201.239 333.883 200.831C333.898 200.424 333.993 199.982 334.17 199.506C334.35 199.021 334.602 198.566 334.926 198.14C335.255 197.714 335.636 197.339 336.069 197.014C336.508 196.689 336.98 196.435 337.488 196.252C338.002 196.064 338.53 195.97 339.072 195.97C339.614 195.97 340.07 196.069 340.442 196.265C340.813 196.462 341.09 196.741 341.273 197.103C341.458 197.46 341.543 197.888 341.529 198.387C341.519 198.886 341.402 199.44 341.176 200.049L340.921 200.735C340.679 201.385 340.379 201.989 340.021 202.548C339.667 203.106 339.257 203.612 338.791 204.065C338.331 204.514 337.822 204.898 337.264 205.219C336.71 205.539 336.114 205.784 335.475 205.954C334.836 206.123 334.16 206.208 333.447 206.208H333.278L333.872 204.608ZM342.486 204.608H342.625C343.211 204.608 343.738 204.541 344.208 204.409C344.683 204.271 345.106 204.074 345.474 203.818C345.843 203.562 346.162 203.248 346.431 202.877C346.703 202.502 346.927 202.076 347.103 201.6L347.807 199.705C347.941 199.344 348.02 199.026 348.044 198.751C348.073 198.476 348.05 198.25 347.974 198.071C347.906 197.888 347.795 197.751 347.644 197.659C347.497 197.568 347.314 197.522 347.094 197.522C346.86 197.522 346.632 197.577 346.41 197.687C346.191 197.792 345.983 197.936 345.788 198.119C345.598 198.302 345.425 198.513 345.268 198.751C345.118 198.984 344.995 199.229 344.9 199.486C344.805 199.742 344.746 199.987 344.723 200.22C344.701 200.449 344.721 200.653 344.781 200.831C344.844 201.005 344.951 201.145 345.102 201.25C345.255 201.351 345.461 201.401 345.72 201.401C345.969 201.401 346.207 201.358 346.435 201.271C346.669 201.179 346.881 201.06 347.073 200.914C347.269 200.767 347.436 200.605 347.576 200.426C347.72 200.248 347.826 200.067 347.894 199.884L348.458 200.241C348.339 200.561 348.148 200.877 347.886 201.188C347.624 201.5 347.314 201.783 346.955 202.04C346.603 202.292 346.227 202.493 345.83 202.644C345.432 202.795 345.037 202.871 344.647 202.871C344.149 202.871 343.738 202.786 343.415 202.617C343.094 202.443 342.856 202.205 342.699 201.902C342.549 201.596 342.482 201.239 342.496 200.831C342.511 200.424 342.606 199.982 342.783 199.506C342.963 199.021 343.215 198.566 343.54 198.14C343.869 197.714 344.25 197.339 344.683 197.014C345.121 196.689 345.594 196.435 346.101 196.252C346.615 196.064 347.143 195.97 347.685 195.97C348.227 195.97 348.684 196.069 349.055 196.265C349.426 196.462 349.703 196.741 349.886 197.103C350.071 197.46 350.156 197.888 350.142 198.387C350.133 198.886 350.015 199.44 349.789 200.049L349.534 200.735C349.293 201.385 348.993 201.989 348.634 202.548C348.28 203.106 347.87 203.612 347.404 204.065C346.944 204.514 346.435 204.898 345.877 205.219C345.323 205.539 344.727 205.784 344.088 205.954C343.449 206.123 342.773 206.208 342.06 206.208H341.892L342.486 204.608ZM351.819 198.566L352.015 198.037C352.156 197.657 352.373 197.311 352.664 197C352.955 196.689 353.307 196.439 353.718 196.252C354.13 196.064 354.584 195.97 355.082 195.97C355.595 195.97 355.988 196.064 356.26 196.252C356.537 196.439 356.703 196.689 356.758 197C356.818 197.311 356.778 197.657 356.637 198.037L356.441 198.566C356.303 198.936 356.088 199.277 355.797 199.589C355.511 199.9 355.162 200.149 354.75 200.337C354.339 200.525 353.881 200.619 353.379 200.619C352.871 200.619 352.478 200.525 352.201 200.337C351.929 200.149 351.763 199.9 351.703 199.589C351.643 199.277 351.681 198.936 351.819 198.566ZM353.414 198.037L353.218 198.566C353.158 198.726 353.133 198.879 353.142 199.026C353.158 199.167 353.217 199.284 353.32 199.376C353.429 199.463 353.584 199.506 353.784 199.506C353.994 199.506 354.181 199.463 354.345 199.376C354.511 199.284 354.652 199.167 354.768 199.026C354.886 198.879 354.975 198.726 355.034 198.566L355.231 198.037C355.294 197.867 355.317 197.712 355.301 197.57C355.292 197.423 355.236 197.307 355.131 197.22C355.033 197.128 354.879 197.082 354.669 197.082C354.474 197.082 354.291 197.128 354.12 197.22C353.951 197.307 353.806 197.423 353.683 197.57C353.567 197.712 353.477 197.867 353.414 198.037ZM354.829 204.189L355.025 203.66C355.164 203.285 355.38 202.942 355.671 202.63C355.967 202.319 356.321 202.07 356.733 201.882C357.149 201.694 357.609 201.6 358.112 201.6C358.619 201.6 359.009 201.694 359.281 201.882C359.554 202.07 359.72 202.319 359.78 202.63C359.84 202.942 359.801 203.285 359.661 203.66L359.465 204.189C359.326 204.564 359.11 204.908 358.819 205.219C358.532 205.53 358.183 205.78 357.772 205.967C357.36 206.155 356.903 206.249 356.4 206.249C355.892 206.249 355.5 206.155 355.223 205.967C354.946 205.78 354.775 205.53 354.71 205.219C354.65 204.908 354.689 204.564 354.829 204.189ZM356.431 203.66L356.235 204.189C356.174 204.354 356.155 204.509 356.179 204.656C356.202 204.802 356.267 204.919 356.371 205.006C356.48 205.093 356.628 205.136 356.813 205.136C357.048 205.136 357.247 205.093 357.411 205.006C357.575 204.919 357.709 204.802 357.812 204.656C357.92 204.509 358.005 204.354 358.066 204.189L358.262 203.66C358.323 203.495 358.346 203.342 358.331 203.2C358.317 203.054 358.257 202.937 358.153 202.85C358.055 202.758 357.904 202.713 357.699 202.713C357.494 202.713 357.306 202.758 357.135 202.85C356.971 202.937 356.827 203.054 356.705 203.2C356.584 203.342 356.492 203.495 356.431 203.66ZM360.138 197.542L352.03 205.356L351.193 204.848L359.302 197.034L360.138 197.542Z" fill="white"/>
</g>
<rect y="235" width="379" height="89" fill="url(#paint8_linear_33807_34375)"/>
<defs>
<filter id="filter0_dddddddd_33807_34375" x="-17.5459" y="256.622" width="343.001" height="46.329" filterUnits="userSpaceOnUse" color-interpolation-filters="sRGB">
<feFlood flood-opacity="0" result="BackgroundImageFix"/>
<feColorMatrix in="SourceAlpha" type="matrix" values="0 0 0 0 0 0 0 0 0 0 0 0 0 0 0 0 0 0 127 0" result="hardAlpha"/>
<feOffset dx="0.0975022" dy="0.0975022"/>
<feComposite in2="hardAlpha" operator="out"/>
<feColorMatrix type="matrix" values="0 0 0 0 0.211059 0 0 0 0 0.225741 0 0 0 0 0.247765 0 0 0 1 0"/>
<feBlend mode="normal" in2="BackgroundImageFix" result="effect1_dropShadow_33807_34375"/>
<feColorMatrix in="SourceAlpha" type="matrix" values="0 0 0 0 0 0 0 0 0 0 0 0 0 0 0 0 0 0 127 0" result="hardAlpha"/>
<feOffset dx="0.195004" dy="0.195004"/>
<feComposite in2="hardAlpha" operator="out"/>
<feColorMatrix type="matrix" values="0 0 0 0 0.211059 0 0 0 0 0.225741 0 0 0 0 0.247765 0 0 0 1 0"/>
<feBlend mode="normal" in2="effect1_dropShadow_33807_34375" result="effect2_dropShadow_33807_34375"/>
<feColorMatrix in="SourceAlpha" type="matrix" values="0 0 0 0 0 0 0 0 0 0 0 0 0 0 0 0 0 0 127 0" result="hardAlpha"/>
<feOffset dx="0.292507" dy="0.292507"/>
<feComposite in2="hardAlpha" operator="out"/>
<feColorMatrix type="matrix" values="0 0 0 0 0.211059 0 0 0 0 0.225741 0 0 0 0 0.247765 0 0 0 1 0"/>
<feBlend mode="normal" in2="effect2_dropShadow_33807_34375" result="effect3_dropShadow_33807_34375"/>
<feColorMatrix in="SourceAlpha" type="matrix" values="0 0 0 0 0 0 0 0 0 0 0 0 0 0 0 0 0 0 127 0" result="hardAlpha"/>
<feOffset dx="0.390009" dy="0.390009"/>
<feComposite in2="hardAlpha" operator="out"/>
<feColorMatrix type="matrix" values="0 0 0 0 0.211059 0 0 0 0 0.225741 0 0 0 0 0.247765 0 0 0 1 0"/>
<feBlend mode="normal" in2="effect3_dropShadow_33807_34375" result="effect4_dropShadow_33807_34375"/>
<feColorMatrix in="SourceAlpha" type="matrix" values="0 0 0 0 0 0 0 0 0 0 0 0 0 0 0 0 0 0 127 0" result="hardAlpha"/>
<feOffset dx="0.487511" dy="0.487511"/>
<feComposite in2="hardAlpha" operator="out"/>
<feColorMatrix type="matrix" values="0 0 0 0 0.211059 0 0 0 0 0.225741 0 0 0 0 0.247765 0 0 0 1 0"/>
<feBlend mode="normal" in2="effect4_dropShadow_33807_34375" result="effect5_dropShadow_33807_34375"/>
<feColorMatrix in="SourceAlpha" type="matrix" values="0 0 0 0 0 0 0 0 0 0 0 0 0 0 0 0 0 0 127 0" result="hardAlpha"/>
<feOffset dx="0.585013" dy="0.585013"/>
<feComposite in2="hardAlpha" operator="out"/>
<feColorMatrix type="matrix" values="0 0 0 0 0.211059 0 0 0 0 0.225741 0 0 0 0 0.247765 0 0 0 1 0"/>
<feBlend mode="normal" in2="effect5_dropShadow_33807_34375" result="effect6_dropShadow_33807_34375"/>
<feColorMatrix in="SourceAlpha" type="matrix" values="0 0 0 0 0 0 0 0 0 0 0 0 0 0 0 0 0 0 127 0" result="hardAlpha"/>
<feOffset dx="0.682515" dy="0.682515"/>
<feComposite in2="hardAlpha" operator="out"/>
<feColorMatrix type="matrix" values="0 0 0 0 0.211059 0 0 0 0 0.225741 0 0 0 0 0.247765 0 0 0 1 0"/>
<feBlend mode="normal" in2="effect6_dropShadow_33807_34375" result="effect7_dropShadow_33807_34375"/>
<feColorMatrix in="SourceAlpha" type="matrix" values="0 0 0 0 0 0 0 0 0 0 0 0 0 0 0 0 0 0 127 0" result="hardAlpha"/>
<feOffset dx="0.780017" dy="0.780017"/>
<feComposite in2="hardAlpha" operator="out"/>
<feColorMatrix type="matrix" values="0 0 0 0 0.211059 0 0 0 0 0.225741 0 0 0 0 0.247765 0 0 0 1 0"/>
<feBlend mode="normal" in2="effect7_dropShadow_33807_34375" result="effect8_dropShadow_33807_34375"/>
<feBlend mode="normal" in="SourceGraphic" in2="effect8_dropShadow_33807_34375" result="shape"/>
</filter>
<filter id="filter1_dd_33807_34375" x="55.4814" y="158.336" width="357.941" height="87.309" filterUnits="userSpaceOnUse" color-interpolation-filters="sRGB">
<feFlood flood-opacity="0" result="BackgroundImageFix"/>
<feColorMatrix in="SourceAlpha" type="matrix" values="0 0 0 0 0 0 0 0 0 0 0 0 0 0 0 0 0 0 127 0" result="hardAlpha"/>
<feOffset dx="0.0975022" dy="0.0975022"/>
<feComposite in2="hardAlpha" operator="out"/>
<feColorMatrix type="matrix" values="0 0 0 0 0.211059 0 0 0 0 0.225741 0 0 0 0 0.247765 0 0 0 1 0"/>
<feBlend mode="normal" in2="BackgroundImageFix" result="effect1_dropShadow_33807_34375"/>
<feColorMatrix in="SourceAlpha" type="matrix" values="0 0 0 0 0 0 0 0 0 0 0 0 0 0 0 0 0 0 127 0" result="hardAlpha"/>
<feOffset dx="0.195004" dy="0.195004"/>
<feComposite in2="hardAlpha" operator="out"/>
<feColorMatrix type="matrix" values="0 0 0 0 0.211059 0 0 0 0 0.225741 0 0 0 0 0.247765 0 0 0 1 0"/>
<feBlend mode="normal" in2="effect1_dropShadow_33807_34375" result="effect2_dropShadow_33807_34375"/>
<feBlend mode="normal" in="SourceGraphic" in2="effect2_dropShadow_33807_34375" result="shape"/>
</filter>
<linearGradient id="paint0_linear_33807_34375" x1="240.048" y1="158" x2="240.048" y2="418.715" gradientUnits="userSpaceOnUse">
<stop stop-color="#0F1113"/>
<stop offset="1" stop-color="#0F1113" stop-opacity="0"/>
</linearGradient>
<radialGradient id="paint1_radial_33807_34375" cx="0" cy="0" r="1" gradientUnits="userSpaceOnUse" gradientTransform="translate(119.11 289.485) rotate(117.484) scale(290.977 271.941)">
<stop stop-color="#212327"/>
<stop offset="0.91942" stop-color="#212327" stop-opacity="0"/>
</radialGradient>
<linearGradient id="paint2_linear_33807_34375" x1="162.654" y1="0" x2="162.654" y2="48.5873" gradientUnits="userSpaceOnUse">
<stop stop-color="white"/>
<stop offset="1" stop-color="white" stop-opacity="0"/>
</linearGradient>
<linearGradient id="paint3_linear_33807_34375" x1="161.99" y1="267.209" x2="161.99" y2="301.57" gradientUnits="userSpaceOnUse">
<stop stop-color="white"/>
<stop offset="1" stop-color="#363A3F"/>
</linearGradient>
<linearGradient id="paint4_linear_33807_34375" x1="162.7" y1="0" x2="162.7" y2="92.9251" gradientUnits="userSpaceOnUse">
<stop stop-color="white"/>
<stop offset="1" stop-color="white" stop-opacity="0"/>
</linearGradient>
<linearGradient id="paint5_linear_33807_34375" x1="109.53" y1="194.966" x2="109.53" y2="214.496" gradientUnits="userSpaceOnUse">
<stop stop-color="white"/>
<stop offset="1" stop-color="#363A3F"/>
</linearGradient>
<linearGradient id="paint6_linear_33807_34375" x1="19.7036" y1="0" x2="19.7036" y2="39.4072" gradientUnits="userSpaceOnUse">
<stop stop-color="white"/>
<stop offset="1" stop-color="white" stop-opacity="0"/>
</linearGradient>
<linearGradient id="paint7_linear_33807_34375" x1="185.164" y1="179.862" x2="185.164" y2="220.831" gradientUnits="userSpaceOnUse">
<stop stop-color="white"/>
<stop offset="1" stop-color="#363A3F"/>
</linearGradient>
<linearGradient id="paint8_linear_33807_34375" x1="189.5" y1="235" x2="189.5" y2="324" gradientUnits="userSpaceOnUse">
<stop stop-opacity="0"/>
<stop offset="1"/>
</linearGradient>
<clipPath id="clip0_33807_34375">
<rect width="23.4005" height="23.4005" rx="3.90009" transform="matrix(1 0 -0.348081 0.937464 3.23535 267.209)" fill="white"/>
</clipPath>
<clipPath id="clip1_33807_34375">
<rect width="39.4072" height="39.4072" rx="19.7036" transform="matrix(1 0 -0.348081 0.937464 94.1133 183.421)" fill="white"/>
</clipPath>
<clipPath id="clip2_33807_34375">
<rect width="23.6443" height="23.6443" fill="white" transform="matrix(1 0 -0.348081 0.937464 99.252 190.81)"/>
</clipPath>
</defs>
</svg>
