<svg xmlns="http://www.w3.org/2000/svg" width="1520" height="177" fill="none">
  <path stroke="url(#paint0_linear_33766_2898)" stroke-linecap="round" stroke-linejoin="round" stroke-miterlimit="10" stroke-opacity=".56" stroke-width=".5" d="M-25.9 114.7h-24.43l-14.75 1.18m39.18-1.18 8.47-2.86m-8.47 2.86h24.44m-24.44 0-8.65 2.91m-1.2-5.77h18.32m-18.33 0h332.58m-332.58 0V453.3m18.33-341.46H6.74m0 0h24.17m-24.17 0-8.2 2.86m32.37-2.86H55.1m-24.18 0-7.93 2.86m32.1-2.86-7.66 2.86m7.67-2.86h24.17m0 0-7.4 2.86m7.4-2.86h24.17m0 0-7.14 2.86m7.14-2.86h24.17m0 0-6.87 2.86m6.88-2.86h24.17m0 0-6.61 2.86m6.6-2.86h24.18m0 0-6.35 2.86m6.35-2.86h24.17m0 0-6.08 2.86m6.08-2.86h24.18m0 0-5.82 2.86m5.82-2.86h24.17m0 0-5.56 2.86m5.56-2.86h24.17m0 0-5.29 2.86m5.3-2.86h24.17m0 0-5.03 2.86m5.02-2.86 24.13-1.41m0 0-4.74 3.48m4.74-3.48 23.83-10.03m0 0-4.5 2.84m4.5-2.84 23.85-10.64m0 0-4.17 5.13m4.17-5.13 24.07-4.78m0 0 24.3 2.5m-24.3-2.5-3.68 12.52M417 87.48l24.27 2.07M417 87.48l-3.42 13.03m27.7-10.96 24.25 1.6m-24.25-1.6-3.17 13.28m27.42-11.69 24.24 1.23m-24.24-1.23-2.92 13.44m27.16-12.2 24.24.94m-24.24-.95-2.67 13.53m26.9-12.58 24.23.73m-24.23-.73-2.42 13.59m26.65-12.86 24.22.97m-24.22-.97-2.19 13.63m26.41-12.66 24.25 2.67m-24.25-2.67-1.93 14.04m26.18-11.37 24.23 2.5m-24.23-2.5-1.7 14.1m25.93-11.6 24.22 2.27m-24.22-2.28-1.45 14.16m25.67-11.88 24.16-3.31m-24.16 3.31-1.23 12.24m25.4-15.55 24.17-3.54m-24.18 3.54-.96 13.9m25.14-17.44 24.2-3.6m-24.2 3.6-.73 13.77M707.67 92l24.26 19.84M707.67 92l-.47 15.31m24.73 4.53-.27 2.86m.27-2.86h24.17m-24.17 0h48.34m-24.17 0v2.86m0-2.86h24.17m0 0 .27 2.86m-.27-2.86 24.3-30.76m0 0 24.26-3.6m-24.26 3.6.49 13.53m23.77-17.12 24.28-4.5m-24.28 4.5.73 12.81M853.11 73l24.3-5.36M853.11 73l.98 12.04m23.32-17.4 24.34-6.17m-24.34 6.17 1.24 11.25m23.1-17.42 24.37-6.9m-24.37 6.9 1.5 10.47m22.87-17.37 24.41-7.54m-24.4 7.54 1.75 9.73m22.65-17.27 24.46-8.1m-24.46 8.1 2.03 9.04m22.43-17.14 24.49-8.57m-24.5 8.57 2.3 8.41m22.2-16.98 24.53-8.47m-24.53 8.47 2.56 7.85m21.97-16.32 2.83 7.33m-2.83-7.33 24.56-8.77m0 0 3.11 6.87m-3.11-6.87 24.62-9.07m0 0 3.37 6.46m-3.37-6.46L1097.66 1m0 0 3.53 7.07.09.17M1097.66 1l24.33 2.5m0 0 24.28 3.21m-24.28-3.22 3.87 7.12m20.41-3.9 4.16 6.2m-4.16-6.2 24.42-.95m0 0 24.47-2.15m-24.47 2.15 4.38 7.41m20.09-9.56 24.39-.08m-24.39.08 4.61 8.06m19.78-8.14 24.36.97m-24.36-.97 4.88 7.8m19.48-6.83 24.36.74m-24.36-.74 5.16 7.04m19.2-6.3 24.37.44m-24.37-.44 5.42 7.15m18.95-6.71 24.38.01m-24.38-.01 5.71 6.29m18.67-6.28 6.08 4.2m-6.08-4.2 24.34 1.17m0 0 24.12 5.11m-24.12-5.11 6.08 9.36m18.04-4.25 24.18 3.77m-24.18-3.77 6.27 10.68m17.91-6.9 24.2 3.08m-24.2-3.09 6.46 11.77m17.74-8.68 24.22 2.39m-24.22-2.39 6.68 12.24m17.54-9.85 24.26 1.7m-24.26-1.7 6.9 12.66m17.36-10.97 24.29 1.02m-24.29-1.02 7.12 13.03m17.17-12 24.33.38m-24.33-.39 7.35 13.34m16.98-12.96 24.36-.2m-24.36.2 7.58 13.58m16.78-13.78 24.4-.74m-24.4.74 7.81 13.75m-7.81-13.75 12.64-.38v615.09H-35.76v-19.29M1444.98 33.88l-24.44-2.8m24.44 2.8 24.48 2.06m-24.48-2.06 7.07 12.49m-31.51-15.3 6.84 12m-6.84-12-24.42-3.56m-97.77-15.54 5.95 4.02m-5.95-4.02-24.66.42m24.66-.42 24.75-2.08m-49.41 2.5 5.61 5.48m-5.61-5.48-24.62-.85m-98.64 1.38 4.33 4.08m-4.33-4.08-24.57-2.31m24.57 2.3 24.64.26m-49.21-2.56 3.96 7.02m-3.96-7.02-24.58-2.37m-99.24 29.97 2.63 7.47m-2.63-7.47-24.76 9.13m24.76-9.13 24.8-9m-49.56 18.13 2.35 8m-2.35-8-24.72 8.73m-98.47 28.97-24.53 5.26m24.53-5.26 24.56-6.15m-24.56 6.15 1.01 11.6m-25.54-6.34.75 12.46m-.75-12.46-24.5 4.31m-97.86 12.7-24.45 2.07m24.45-2.07 24.46 7.39m-24.46-7.39-.52 10.3m-23.93-8.23-.77 8.23m.77-8.23-24.41 3.67m-97.83-3.99-24.48-1.38m24.48 1.38L585 111.8m-24.5-2.74-2.06 8.55m-22.4-9.93-2.31 9.93m2.3-9.93-24.46-.77m-98-6.4-24.56-3.01m24.56 3.01 24.53 2.32m-24.53-2.32-3.5 13.2M389.02 97.5l-3.75 12.74M389 97.5l-24.56-2.61m-97.1 19.8-5.4 2.92m5.4-2.91h-24.44m24.44 0h24.44m-48.88 0-5.67 2.91m5.67-2.91h-24.43m-97.75 0-7.03 2.91m7.03-2.91H96.29m24.44 0h24.44m-48.88 0L89 117.6m7.3-2.91H71.85m1427.69-8.89 8.85 3.14m-8.85-3.14-27-8.95m27 8.95-9.01-3.84m17.86 6.98.42.15m-.42-.15-17.86-6.98m18.28 7.13 5.61 1.68m-5.61-1.68-27.84-.66m33.45 2.34 3.93 1.18m-3.93-1.18-6.36-3.75m10.29 4.93 21.47 8.86m-21.47-8.86 9.53 6.82m-9.53-6.82-28.7 7.67m50.17 1.2 4.72 1.94m-4.72-1.95 3.77 1.4m.95.55-.95-.54m.95.54 11.35 4.69-28.01-8.68m-37.06-24.6-25.78-7.76m25.78 7.75-8.25-7.47m8.25 7.47 25.77 7.4m-25.77-7.4 8.49 6.8m-34.27-14.55-8.01-6.6m8.01 6.6 8.25 5.89m-8.25-5.9L1439.27 78m17.76 1.83 25.54 6.88m-25.54-6.88-7.79-7.24m7.79 7.24-25.53-7.6m51.07 14.48-8.03-7.82m8.03 7.82 25.52 6.86m-22.93 115.07h-33.14m33.14 0-10.66-5.23m10.66 5.23h33.14m-33.14 0 10.98 5.38m-44.12-5.38-10.17-5.23m10.17 5.23 10.49 5.38m-10.49-5.38h-33.14m22.97-5.23h32.65m-32.65 0-9.88-5.08m9.88 5.08h-32.66m65.31 0-10.35-5.08m10.35 5.08h32.66m-81.6-24.02h-30.43m30.43 0-8.99-4.41m8.99 4.41H1456m-30.44 0 9.25 4.54m-39.68-4.53-8.58-4.42m8.58 4.41 8.83 4.54m-8.83-4.53h-30.42m21.84-4.42h30.02m-30.02 0-8.37-4.3m8.37 4.3h-30.03m60.05 0-8.76-4.3m8.76 4.3h30.02m-71.36-25.35-28.37 4.72m28.37-4.72-7.15-14.47m7.15 14.47 28.46-5.75m-28.46 5.75 7.64 8.82m-36.01-4.1-6.8-14.96m6.8 14.96 7.52 4.1m-7.52-4.1-28.11-.47m21.31-14.49 28.02-4.22m-28.02 4.22-6.64-14.79m6.64 14.8-27.77-.97m55.79-3.26-.09-.2-6.88-14.2m6.97 14.4 28.09-5.12m-61.38-65.1-26.37 1.51m26.37-1.5-6.21-13.38m6.21 13.38 26.47-3.2m-26.47 3.2 6.36 13.62m-32.73-12.12L1302.54 52m5.88 14.46 6.02 14.61m-6.02-14.6-26.18-2.8m20.3-11.67 26.04-.42m-26.04.42-5.76-14.3m5.76 14.3-25.9-2.75m51.94 2.33-6.08-13.13m6.08 13.13 26.17-2.93m224.8 357.8h-51.46m0 0-17.39-12.5m17.39 12.5 18.2 13.1m-18.2-13.1h-51.47m34.08-12.5h50.31l-17.73-11.97m-32.58 11.96-16.62-11.96m16.62 11.96h-50.31m82.89-11.96h-49.2m49.2 0-16.97-11.44m16.97 11.44h49.19m-110.48-82.7-44.82-9.55m44.82 9.56-13.41-26.09m13.41 26.09 44.86 7.68m-44.86-7.68 13.96 26.56m-58.78-36.12-12.69-24.2m12.69 24.2 13.2 24.96m-13.2-24.96-44.89-9.38m32.2-14.83 44.1 7.68m-44.1-7.68-12.2-23.78m12.2 23.78-44.16-7.47m88.26 15.15-12.88-25.91m12.88 25.91 44.08 6.93m-226.33-71.5h-33.14m33.14 0-7.75-5.22m7.75 5.23h33.14m-33.14 0 7.98 5.38m-41.12-5.38-7.27-5.23m7.27 5.23 7.48 5.38m-7.48-5.38h-33.14m25.87-5.23h32.66m-32.66 0-7.06-5.08m7.06 5.08h-32.65m65.31 0-7.53-5.08m7.53 5.08h32.65m-68.25-24.02-6.54-4.41m6.54 4.41 6.73 4.54m-6.73-4.53h-30.43m30.43 0h30.43m-60.86 0-6.13-4.42m6.13 4.41 6.31 4.54m-6.31-4.53h-30.43m24.3-4.42-5.97-4.3m5.97 4.3h30.02m-30.02 0h-30.02m60.04 0-6.37-4.3m6.37 4.3h30.02m-60.03-26.79-28.23 2.3m28.23-2.3-5.14-16.01m5.14 16.01 28.24-2.24m-28.24 2.24 5.5 10.26m-33.73-7.95-4.82-15.94m4.82 15.94 5.24 7.95m-5.24-7.95-28.22 2.65m23.4-18.6 27.91-2.37m-27.91 2.38-4.72-15.41m4.72 15.4-27.91 2.84m55.82-5.21-5.03-15.68m5.03 15.68 27.91-2.26m-51.98-72.11-26.41 2.67m26.41-2.67-4.51-13.9m4.51 13.9 26.42-2.73m-26.42 2.73 4.6 14.18m-31.01-11.5-4.22-13.95m4.22 13.94 4.32 14.23m-4.32-14.23-26.39 2.64m22.17-16.58 26.12-2.63m-26.12 2.63-4.13-13.66m4.13 13.66-26.11 2.6m52.23-5.23-4.41-13.62m4.41 13.62 26.13-2.5m268.61 577.36h-71.13m71.13 0-21.95-23.7m21.95 23.7h71.14m-71.14 0 23.4 25.26m-94.53-25.26-19.76-23.7m19.76 23.7 21.06 25.26m-21.06-25.26h-71.14m51.38-23.7h68.94m-68.94 0-18.58-22.28m18.58 22.28h-68.94m137.88 0-20.65-22.28m20.65 22.28h68.94m-161.11-99.49h-59.73m59.73 0-15.56-16.79m15.56 16.8h59.72m-59.72 0 16.4 17.7m-76.13-17.7-13.99-16.8m13.99 16.8 14.77 17.7m-14.77-17.7h-59.72m45.73-16.8h58.16m-58.16 0-13.29-15.93m13.29 15.93h-58.17m116.33 0-14.76-15.93m14.76 15.93h58.17m-125.18-72.33h-51.47m51.47 0-11.59-12.52m11.59 12.52h51.46m-51.46 0 12.14 13.1m-63.61-13.1-10.22-12.27-.21-.25m10.43 12.52 10.93 13.1m-10.93-13.1h-51.46m41.03-12.52h50.31m-50.31 0-9.97-11.96m9.97 11.96h-50.31m100.62 0-11.09-11.96m11.09 11.96h50.3m-101.22-54.96h-45.22m45.22 0-8.98-9.68m8.98 9.68h45.21m-45.21 0 9.34 10.08m-54.56-10.08-8.07-9.68m8.07 9.68 8.41 10.08m-8.41-10.08h-45.21m37.14-9.68h44.31m-44.31 0-7.76-9.31m7.76 9.3h-44.32m88.63 0-8.62-9.3m8.62 9.3h44.32m-84.31-43.17h-40.32m40.32 0-7.15-7.72m7.15 7.72h40.31m-40.31 0 7.41 8m-47.73-8-6.44-7.72m6.44 7.72 6.67 8m-6.67-8h-40.32m33.88-7.72h39.61m-39.61 0-6.21-7.44m6.21 7.44h-39.6m79.21 0-6.9-7.44m6.9 7.44h39.6m-71.85-34.8h-36.38m36.38 0-5.83-6.3m5.83 6.3h36.37m-36.37 0 6.02 6.5m-42.4-6.5-5.11-6.14-.14-.16m5.25 6.3 5.42 6.5m-5.42-6.5h-36.38m31.13-6.3-5.08-6.1m5.08 6.1h35.8m-35.8 0h-35.79m71.59 0-5.65-6.1m5.65 6.1h35.79m-62.35-28.66-4.84-5.23m4.84 5.23 4.99 5.38m-4.99-5.38h-33.14m33.14 0h33.14m-66.28 0-4.36-5.23m4.36 5.23 4.49 5.38m-4.49-5.38h-33.14m28.78-5.23-4.23-5.08m4.23 5.08h32.66m-32.66 0h-32.65m65.31 0-4.71-5.08m4.71 5.08h32.65m-54.9-24.02-4.09-4.41m4.09 4.41 4.2 4.54m-4.2-4.53h-30.43m30.43 0h30.43m-60.86 0-3.68-4.42m3.68 4.41 3.78 4.54m-3.78-4.53h-30.43m26.75-4.42-3.58-4.3m3.58 4.3h30.02m-30.02 0h-30.02m60.04 0-3.98-4.3m3.98 4.3h30.02m-48.74-28-28.09-3m28.09 3-3.23-15.74m3.23 15.74 28.07 2.73m-28.07-2.73 3.4 11.47m-31.49-14.48-2.9-15.6m2.9 15.6 3 14.48m-3-14.48-28.1-3.13m25.2-12.46 27.76 2.86m-27.76-2.86-2.84-15.34m2.84 15.34-27.77-3.26m55.53 6.12-3.14-15.45m3.14 15.45 27.76 2.73m-43-68-3.09-1.2m3.09 1.2 3.08 5.17m-3.08-5.17-26.53 11.5m26.53-11.5 26.46-6.44m-52.99 17.94-2.77-1.45m2.77 1.45 2.85 1.12m-2.85-1.12L966.11 88.9M989.81 76l-2.7-1.87m2.7 1.87 26.22-11.24M989.82 76l-26.16 11.14m52.37-22.38-3.01-1.56m3.01 1.56 26.25-10.9m-1.64 564.9H969.5m71.14 0-8.78-23.7m8.78 23.7h71.14m-71.14 0 9.36 25.25h514.33l-25.74-25.26m-569.08 0-6.6-23.7m6.6 23.7 7.02 25.26m-7.02-25.26h-71.14m64.55-23.7h68.94m-68.94 0-6.2-22.28m6.2 22.28h-68.94m137.88 0-8.26-22.28m8.26 22.28h68.94m-105.81-99.49h-59.72m59.72 0-6.22-16.79m6.22 16.8h59.72m-59.72 0 6.56 17.7m-66.28-17.7-4.67-16.8m4.67 16.8 4.92 17.7m-4.92-17.7h-59.73m55.06-16.8h58.17m-58.17 0-4.43-15.93m4.43 15.93h-58.17m116.34 0-5.9-15.93m5.9 15.93h58.17m-84.98-72.33H910.5m51.46 0-4.63-12.52m4.63 12.52h51.47m-51.47 0 4.86 13.1m-56.32-13.1-3.48-12.52m3.48 12.52 3.64 13.1m-3.64-13.1h-51.47m47.99-12.52h50.3m-50.3 0-3.32-11.96m3.32 11.96h-50.3m100.6 0-4.43-11.96m4.44 11.96h50.3m-70.67-54.96h-45.22m45.22 0-3.6-9.68m3.6 9.68h45.21m-45.21 0 3.74 10.08m-48.96-10.08-2.69-9.68m2.7 9.68 2.8 10.08m-2.8-10.08h-45.22m42.52-9.68h44.32m-44.32 0-2.58-9.31m2.58 9.3h-44.32m88.64 0-3.45-9.3m3.45 9.3h44.32m-60.32-43.17h-40.32m40.32 0-2.86-7.72m2.86 7.72h40.32m-40.32 0 2.96 8m-43.28-8-2.1-7.56-.04-.16m2.14 7.72 2.23 8m-2.23-8h-40.31m38.17-7.72-2.07-7.44m2.07 7.44h39.6m-39.6 0h-39.6m79.2 0-2.76-7.44m2.76 7.44h39.6m-52.5-34.8-2.33-6.3m2.33 6.3 2.41 6.5m-2.41-6.5h-36.38m36.38 0h36.38m-72.76 0-1.75-6.3m1.75 6.3 1.8 6.5m-1.8-6.5h-36.38m34.63-6.3-1.69-6.1m1.7 6.1h35.79m-35.8 0h-35.8m71.6 0-2.26-6.1m2.26 6.1h35.8m-46.42-28.66-1.94-5.23m1.94 5.23 2 5.38m-2-5.38h-33.14m33.14 0h33.13m-66.27 0-1.46-5.23m1.46 5.23 1.5 5.38m-1.5-5.38h-33.14m31.68-5.23-1.4-5.08m1.4 5.08h32.66m-32.66 0h-32.65m65.3 0-1.87-5.08m1.88 5.08h32.65m-41.55-24.02-1.64-4.41m1.64 4.41 1.68 4.54m-1.68-4.53H847.4m30.43 0h30.43m-60.86 0-1.23-4.42m1.23 4.41 1.26 4.54m-1.26-4.53h-30.43m29.2-4.42-1.2-4.3m1.2 4.3h30.02m-30.02 0h-30.02m60.04 0-1.59-4.3m1.6 4.3h30.01m-37.53-25.8-1.4-2.66m1.4 2.66 1.45 2.8m-1.45-2.8-28.18 5.4m28.18-5.4 28.3-13.68m-56.48 19.07-1.05-3.77m1.05 3.77 1.08 3.88m-1.08-3.88h-28.13m27.08-3.77-1.02-3.69m1.02 3.69 27.82-4.28m-27.82 4.28h-27.78m55.6-4.28-1.37-2.6m1.37 2.6 27.95-13.35m-34.5.07-1.2-3.27m1.2 3.27 1.25 3.14m-1.24-3.14h-26.16m26.16 0 26.27-10.62m-52.43 10.62-.9-3.27m.9 3.27.93 3.34m-.93-3.34h-26.15m25.24-3.27-.88-3.2m.88 3.2h25.86m-25.86 0H807.8m51.7 0-1.17-4.3m1.18 4.3 25.96-10.3m-271.64 499.1h-71.14m71.14 0 4.39-23.7m-4.4 23.7h71.14m-71.13 0-4.68 25.26m-66.46-25.26 6.59-23.7m-6.59 23.7-7.02 25.26m7.02-25.26h-71.13m77.72-23.7h68.94m-68.94 0 6.2-22.28m-6.2 22.28h-68.94m137.88 0 4.13-22.28m-4.13 22.28h68.94m-50.5-99.49h-59.73m59.72 0 3.12-16.79m-3.12 16.8h59.73m-59.73 0-3.28 17.7m-56.44-17.7 4.67-16.8m-4.67 16.8-4.92 17.7m4.92-17.7h-59.72m64.39-16.8h58.16m-58.16 0 4.43-15.93m-4.43 15.93h-58.17m116.34 0 2.95-15.93m-2.96 15.93h58.17m-44.76-72.33H601.7m51.47 0 2.32-12.52m-2.32 12.52h51.46m-51.46 0-2.43 13.1m-49.04-13.1 3.48-12.52m-3.48 12.52-3.64 13.1m3.64-13.1h-51.46m54.94-12.52h50.3m-50.3 0 3.32-11.96m-3.32 11.96h-50.3m100.6 0 2.22-11.96m-2.21 11.96h50.3m-40.12-54.96h-45.21m45.21 0 1.8-9.68m-1.8 9.68h45.21m-45.21 0-1.87 10.08m-43.34-10.08 2.69-9.68m-2.7 9.68-2.8 10.08m2.8-10.08h-45.21m47.9-9.68h44.32m-44.31 0 2.58-9.31m-2.58 9.3h-44.32m88.63 0 1.73-9.3m-1.73 9.3h44.32m-36.32-43.17 1.43-7.72m-1.43 7.72h-40.31m40.31 0h40.32m-40.32 0-1.48 8m-38.83-8 2.1-7.56.04-.16m-2.14 7.72-.13.44-2.1 7.56m2.23-8h-40.32m42.46-7.72 2.07-7.44m-2.07 7.44h39.6m-39.6 0h-39.6m79.2 0 1.38-7.44m-1.38 7.44h39.6m-33.15-34.8 1.17-6.3m-1.17 6.3-1.2 6.5m1.2-6.5h-36.37m36.37 0h36.38m-72.75 0 1.75-6.3m-1.75 6.3-1.81 6.5m1.8-6.5-36.38-.45m38.13-5.85 1.7-6.1m-1.7 6.1h35.8m-35.8 0-35.85-4.7m71.65 4.7 1.13-6.1m-1.13 6.1h35.8m-30.49-28.66.97-5.23m-.97 5.23-1 5.38m1-5.38h-33.14m33.14 0h33.14m-66.28 0 1.46-5.23m-1.46 5.23-1.5 5.38m1.5-5.38H624m34.14-5.23 1.42-5.08m-1.41 5.08h32.65m-32.65 0h-32.66m65.31 0 .94-5.08m-.94 5.08h32.65m-28.2-24.02.82-4.41m-.82 4.41-.84 4.54m.84-4.53H664.8m30.43 0h30.43m-60.86 0 1.23-4.42m-1.23 4.41-1.26 4.54m1.26-4.53h-30.43m31.66-4.42 1.19-4.3m-1.2 4.3h30.03m-30.02 0H636m60.05 0 .8-4.3m-.8 4.3h30.02m-26.24-20.4.7-3.78m-.7 3.77-.72 3.88m.72-3.88H671.7m28.13 0h28.13m-56.26 0 1.05-3.77m-1.05 3.77-1.08 3.88m1.08-3.88h-28.13m29.18-3.77 1.02-3.69m-1.02 3.69h27.78m-27.78 0h-27.78m55.56 0 .68-3.69m-.68 3.69h27.78m-24.53-17.56.6-3.27m-.6 3.27-.62 3.34m.62-3.34h-26.15m26.15 0h26.16m-52.31 0 .9-3.27m-.9 3.27-.93 3.34m.93-3.34h-26.16m27.06-3.27.9-3.2m-.9 3.2h25.86m-25.86 0H652.7m51.7 0 .6-3.2m-.6 3.2h25.86m-543.23 488.8-75.25-73.3m75.25 73.3 17.56-23.7m-17.56 23.7-18.72 25.26m18.72-25.26h71.13m-146.38-73.3 19.8-25.68m-19.8 25.68-16.95 98.56-76.37-44.88m93.32-53.68-69.98 25.9m89.77-51.58 18.51-26m-18.5 26-67.99 23.48m67.98-23.48 73.02 75.28m-54.5-101.27 17.35-26.34m-17.36 26.34 71.03 79m-71.03-79-66.1 21m83.46-47.34L231.9 447m-64.48 20.46 16.51-22.27m-16.51 22.27-64.36 18.6m128.84-39.06 14.82-19.7m-14.82 19.7 69.67 104.8M231.91 447l-10.81 125.8m25.63-145.5 13.94-20.08m-13.94 20.07L314.42 532m-67.7-104.72-62.78 17.9m76.73-37.97 13.06-22.47m-13.06 22.47 65.88 106.07m-65.88-106.07L199.5 423.1m74.23-38.36 59.72-15.9m-59.72 15.9 12.88-8.96m-12.88 8.96-59.64 14.06m119.36-29.95 4.75 1.68m-4.75-1.68 64.31 126.72m-64.31-126.72-6.9 144.43m6.9-144.43-10.49 1.55m15.24.13 7 2.48m-7-2.48H371M345.2 373l11.2 6.32M345.2 373l61.9 105.77m-50.7-99.45 5.18 2.64m-5.18-2.64 59.55 83.52m-54.37-80.88.68.35m-.68-.35h.93m-.25.35 4.72 2.4m-4.72-2.4.25-.35m4.47 2.76 9.97 6.86m-9.97-6.86 57.4 62.97m-47.43-56.11.13.09m-.13-.1 26.85-2.7m-26.72 2.8 8.4 2.5m-8.4-2.5 55.3 41.6m-46.9-39.1 1.07.33m-1.08-.32 9.93-1.8m-8.85 2.12 8.85-2.13m-8.85 2.13 53.47 25.04M63.58 543.25l-67.81 21.69m67.81-21.68 20.38-28.46m-20.38 28.46-21.79 28.1m162.8 23.7 16.5-22.28m-16.5 22.28h68.93M424.37 447.7l-8.42 15.15m8.42-15.15 8.02-14.41m-8.02 14.41h55.3m-63.72 15.15-8.85 15.93m8.85-15.93h56.7m-65.55 15.93-9.34 16.8m9.34-16.8h58.16m-67.5 16.8-9.84 17.7m9.84-17.7h59.73m-69.57 17.7h-61.37m61.37 0L377.52 532m10.4-18.72h61.36m-122.73 0L314.42 532m0 0-12.84 19.8m12.84-19.8h63.1m-75.94 19.8-13.6 20.98m13.6-20.98h64.93m-78.54 20.98H221.1m66.87 0h66.88m-66.88 0-14.45 22.28M-6.07 387.24l1.7-.16m-1.7.16-18.22 48.95m18.22-48.95-58.33 4.14m60.04-4.3 17.71-1.67m-17.71 1.67-34.03-.17 7.31-4.94m44.43 3.44 4.77-3.44m-4.77 3.44 36.41-3.44m0 0 2.47-.23m-2.47.23H18.12m34.11-.23 16.57-.9m-16.57.9-16.9 47.84m33.47-48.75 41.9-2.3m-41.9 2.3 13.37-10.3m28.54 8 10-.04m-10 .04-15.8 42.68m25.8-42.72 48.66-.2m-48.66.2 9.6-7.96m39.06 7.77h.44m-.44 0-14.88 32.67m15.32-32.68 49.58-.7m-49.58.7 8.63-7.76m40.95 7.05 8.61-.12m-8.61.12 7.19-7.05m1.42 6.93 41.4-1.19m-41.4 1.19L214.1 398.8m55.3-22.53 5.33-5.74m-5.33 5.74 17.22-.5m0 0 35.48-5.24m-108 28.27-14.59 24.3m14.59-24.3-59.6 12.17m239.9-72h-45.22m45.21 0 7.18-9.68m-7.18 9.68h45.22m-45.22 0-7.47 10.08m-37.74-10.08 8.07-9.68m-8.07 9.68-8.41 10.08m8.4-10.08h-45.2m53.28-9.68h44.32m-44.32 0 7.76-9.31m-7.76 9.3h-44.32m88.64 0 6.9-9.3m-6.9 9.3h44.32m-12.32-43.17h-40.32m40.32 0 5.72-7.72m-5.72 7.72h40.32m-40.32 0-5.93 8m-34.39-8 6.43-7.72m-6.43 7.72-6.67 8m6.67-8h-40.32m46.75-7.72h39.6m-39.6 0 6.21-7.44m-6.2 7.44h-39.6m79.2 0 5.52-7.44m-5.52 7.44h39.6m-13.8-34.8 4.66-6.3m-4.66 6.3-4.74 6.39-.08.1m4.82-6.5H428.7m36.38 0h36.38m-72.76 0 5.11-6.13.14-.16m-5.25 6.3-5.42 6.5m5.42-6.5h-36.38m41.63-6.3 5.08-6.1m-5.08 6.1h35.8m-35.8 0h-35.8m71.6 0 4.5-6.1m-4.5 6.1h35.79m7.12-57.9 3.27-4.42m-3.27 4.41-3.37 4.54m3.37-4.53h-30.43m30.43 0h30.43m-60.86 0 3.68-4.42m-3.68 4.41-3.79 4.54m3.79-4.53H451.8m34.1-4.42 3.6-4.3m-3.6 4.3h30.03m-30.02 0h-30.02m60.04 0 3.19-4.3m-3.2 4.3h30.03m-14.9-20.4 2.8-3.78m-2.8 3.77-2.87 3.88m2.87-3.88h-28.13m28.13 0h28.13m-56.26 0 3.15-3.77m-3.15 3.77-3.23 3.88m3.23-3.88H474.8m31.28-3.77 3.07-3.69m-3.07 3.69h27.78m-27.78 0H478.3m55.56 0 2.73-3.69m-2.73 3.69h27.78m-14.76-17.56 2.42-3.27m-2.42 3.27-2.48 3.34m2.48-3.34H520.7m26.15 0h26.16m-52.3 0 2.71-3.27m-2.72 3.27-2.79 3.34m2.8-3.34h-26.16m28.87-3.27 2.67-3.2m-2.67 3.2h25.86m-25.86 0h-25.85m51.7 0 2.37-3.2m-2.36 3.2h25.85M123.09 338.97H77.88m45.21 0 12.56-9.68m-12.56 9.68h45.22m-45.22 0-12.8 9.87-.28.22m-32.13-10.09 13.46-9.68m-13.46 9.68-14.01 10.08m14-10.08h-45.2m58.67-9.68h44.31m-44.31 0 12.93-9.31m-12.93 9.3H47.02m88.63 0 12.07-9.3m-12.07 9.3h44.32m11.68-43.17h-40.31m40.31 0 10.01-7.72m-10 7.72h40.31m-40.32 0-10.37 8m-29.94-8 10.72-7.72m-10.72 7.72-11.12 8m11.12-8h-40.32m51.04-7.72h39.6m-39.6 0 10.35-7.44m-10.35 7.44h-39.6m79.2 0 9.66-7.44m-9.66 7.44h39.6m5.55-34.8h-36.38m36.38 0 8.16-6.3m-8.16 6.3h36.38m-36.38 0-8.43 6.5m-27.95-6.5 8.75-6.3m-8.75 6.3-9.03 6.5m9.03-6.5h-36.37m45.12-6.3h35.8m-35.8 0 8.47-6.1m-8.47 6.1h-35.8m71.6 0 7.9-6.1m-7.9 6.1h35.79m1.38-28.66-33.15-.16m33.15.16 6.78-5.23m-6.78 5.23 33.1-.92m-33.1.92-6.99 5.38M259 208.47l7.28-5.07m-7.28 5.07-7.48 5.54m7.48-5.54-33.2-1.59m40.48-3.48h32.65m-32.65 0 7.06-5.08m-7.06 5.08h-32.66m65.31 0 6.59-5.08m-6.59 5.08h32.66m-1.51-24.02 5.72-4.41m-5.72 4.41-5.89 4.54m5.89-4.53h-30.44m30.44 0h30.43m-60.87 0 6.14-4.42m-6.13 4.41-6.31 4.54m6.3-4.53h-30.43m36.57-4.42 5.97-4.3m-5.97 4.3h30.02m-30.02 0h-30.02m60.04 0 5.58-4.3m-5.58 4.3h30.02m-3.55-20.4 4.9-3.78m-4.9 3.77-5.02 3.88m5.02-3.88h-28.13m28.13 0h28.13m-56.26 0 5.25-3.77m-5.25 3.77-5.38 3.88m5.38-3.88H306m33.38-3.77 5.12-3.69m-5.12 3.69h27.78m-27.78 0H311.6m55.56 0 4.78-3.69m-4.78 3.69h27.78m-5.01-17.56 4.24-3.27m-4.24 3.27-4.34 3.34m4.34-3.34h-26.15m26.15 0h26.15m-52.3 0 4.54-3.27m-4.54 3.27-4.65 3.34m4.65-3.34h-26.16m30.7-3.27 4.43-3.2m-4.43 3.2h25.85m-25.85 0h-25.86m51.7 0 4.15-3.2m-4.14 3.2h25.85M28.55 243.58H-7.83m36.38 0 11.66-6.3m-11.66 6.3h36.37m-36.37 0-12.05 6.5m-24.33-6.5 12.24-6.3m-12.24 6.3h-36.38l12.83-6.3m23.55 6.3-12.65 6.5m24.89-12.8h35.8m-35.8 0 11.86-6.09M4.4 237.3h-35.8m71.6 0 11.29-6.1m-11.3 6.1H76m17.31-28.66H60.17m33.14 0 9.38-10.95m-9.38 10.95h33.14m-33.14 0L83.33 214m-23.16-5.38 10-8.47m-10 8.47L49.7 214m10.48-5.38H27.04m43.12-8.47 32.53-2.48m-32.53 2.48 9.5-11.86m-9.5 11.86-32.53 2.13m65.06-4.6 9.73.63m-9.73-.64 32.86 3.7m11.94-22-29.46-1.64m29.46 1.64 8.12-5.68m-8.12 5.69h30.43m-30.43 0-8.4 4.53m-21.06-6.18-.64-.19m.64.19 21.06 6.18m-13.44-8.95-.43.13-7.83 2.45m8.26-2.58 29.96-1.27m-29.96 1.27 8.36-4.3m-8.36 4.3H108.6m47.02-1.27 8.03-3.03m-8.03 3.03 30.09 1.27m7.79-20.4 7-3.78m-7 3.77-7.18 3.88m7.18-3.88h-28.14m28.14 0h28.13m-56.27 0 7.25-3.72.1-.05m-7.35 3.77-7.53 3.88m7.53-3.88h-28.13m35.48-3.77 7.17-3.69m-7.17 3.69h27.78m-27.78 0h-27.78m55.56 0 6.83-3.69m-6.83 3.69h27.78m4.75-17.56 6.06-3.27m-6.06 3.27-6.2 3.34m6.2-3.34h-26.15m26.15 0h26.16m-52.31 0 6.36-3.27m-6.36 3.27-6.5 3.34m6.5-3.34H180.7m32.52-3.27 6.2-3.2m-6.2 3.2h25.85m-25.85 0h-25.85m51.7 0 5.91-3.2m-5.91 3.2h25.85M24.7 154.56H-3.43m28.13 0 9.1-3.77m-9.1 3.77h28.13m-28.13 0-9.33 3.88m-18.8-3.88 9.45-3.77m-9.45 3.77-9.69 3.88m9.69-3.88h-28.13m37.58-3.77H33.8m-27.78 0 9.21-3.69m-9.21 3.69h-27.78m55.56 0 8.87-3.69m-8.87 3.69h27.78m14.5-17.56H49.94m26.16 0 7.87-3.27m-7.87 3.27h26.15m-26.15 0-8.06 3.34m-18.1-3.34 8.18-3.27m-8.18 3.27-8.36 3.34m8.36-3.34H23.78m34.33-3.27h25.85m-25.85 0H32.26m25.85 0 7.98-3.2m17.87 3.2.13-.06 7.56-3.13m-7.7 3.2h25.86m-86.03 3.26H-2.37m26.15 0 8.48-3.27m-8.48 3.27-8.68 3.34m-17.47-3.34 8.77-3.27m-8.77 3.27-9 3.34m9-3.34h-26.16m34.93-3.27h25.86m-25.86 0h-25.85m25.85 0 8.58-3.2m17.28 3.2.64-.25 7.64-2.94m-69.07 6.46h-26.15m26.15 0 9.08-3.27m-9.08 3.27-9.3 3.34h26.47m-33.94-6.6h25.85m0 0 8.88-3.2m-1.64 20.33h-27.44l9.66-3.6m17.78 3.6 9.33-3.6m-9.33 3.6h27.44m-27.44 0-9.55 3.69M-30 143.5h27.1m-27.1 0h-27.1m27.1 0 9.43-3.51m17.68 3.5 9.1-3.5m-9.1 3.5h27.1m-18-3.5h-26.78m26.78 0 8.88-3.43M6.22 140H33m-53.56 0 9.2-3.43m-9.2 3.43h-26.79m35.99-3.43H15.1m0 0h26.47m-73.13 18H-59.7m28.13 0 9.8-3.78m-9.8 3.77-10.05 3.88h28.5m-36.43-7.65h27.78m202.47-17.56 6.66-3.27m-6.66 3.27-6.82 3.34m6.82-3.34h-26.16m0 0 6.96-3.27m-6.96 3.27-7.13 3.34m7.13-3.34H128.4m33.11-3.27 6.8-3.2m-6.8 3.2h25.86m-25.86 0h-25.85m51.7 0 6.51-3.2m-65.47 6.47 7.26-3.27m-7.26 3.27-7.44 3.34m7.44-3.34h-26.16m0 0 7.57-3.27m-7.57 3.27-7.74 3.34m15.31-6.6 7.4-3.2m-7.4 3.2h25.85m0 0 7.1-3.2m9.67 20.33 7.33-3.6m-7.33 3.6-7.32 3.6-.19.09m7.5-3.69H125m27.44 0h27.44m-54.88 0 7.66-3.6m-7.66 3.6-7.85 3.69m7.85-3.69H97.55m35.1-3.6 7.4-3.46.07-.04m-7.47 3.5h27.1m-27.1 0h-27.1m54.2 0 7.16-3.5m-7.15 3.5h27.1m-19.95-3.5 6.98-3.43M166.9 140h-26.78m26.78 0h26.78m-53.56 0 7.3-3.43m-7.3 3.43h-26.79m34.08-3.43h26.47m-26.47 0h-26.46m52.93 0h26.46M97.55 147.1H70.11m27.44 0 8-3.6m-8 3.6-8.19 3.69m-19.25-3.69 8.33-3.6m-8.33 3.6H42.67m27.44 0-8.53 3.69m16.86-7.28h27.1m-27.1 0H51.33m27.1 0 8.13-3.51m18.98 3.5 7.8-3.5m0 0 .17-.07 7.45-3.36m-7.62 3.43H86.56m0 0 7.94-3.43M86.56 140H59.78m34.72-3.43h26.46m-26.46 0H68.03M42.67 147.1H15.23m27.44 0 8.66-3.6m-36.1 3.6 9-3.6m0 0h27.1m-27.1 0L33 140m18.33 3.5 8.45-3.5m0 0H33m26.78 0 8.25-3.43M33 140l8.57-3.43m0 0h26.46m69.2 18 .37-.2 7.32-3.58m-7.7 3.77H109.1m28.13 0-7.89 3.88m-20.24-3.88 8.05-3.77m-8.05 3.77-8.25 3.88m8.25-3.88H80.96m36.18-3.77h27.78m-27.78 0H89.36m-8.4 3.77H52.83m28.13 0 8.4-3.77m-8.4 3.77-8.6 3.88m-19.53-3.88 8.75-3.77m-8.75 3.77-8.97 3.88m17.72-7.65h27.78m15.03 19.88H74.77m29.62 0 8.53-4.18m-8.53 4.18h29.62m-29.62 0-8.76 4.3m-20.86-4.3 8.92-4.18m-8.92 4.18-9.16 4.3m9.16-4.3H45.15m38.54-4.18h29.23m-29.23 0H54.45m29.24 0 8.68-4.08m20.55 4.08 8.31-4.08m-8.3 4.08h29.23m-20.93-4.08H92.37m28.86 0 8.1-3.97m-8.1 3.97h28.86m-57.72 0 8.47-3.97m-8.47 3.97H63.52m37.32-3.97h28.49m-28.49 0H72.35m56.98 0h28.49M45.15 170.67H15.52m29.63 0 9.3-4.18m-9.3 4.18-9.56 4.3m-20.07-4.3-5.11 2.2m5.11-2.2 9.7-4.18m-9.7 4.18H-14.1m39.32-4.18h29.23m-29.23 0H-4.02m29.24 0 9.44-4.08m19.8 4.08 9.06-4.08m0 0H34.66m28.86 0 8.83-3.97m-37.7 3.97 9.21-3.97m-9.2 3.97H5.8m38.06-3.97h28.49m-28.49 0H15.37m-29.47 12.23h-2.05m2.05 0-.36.15m.36-.15 10.08-4.18m-12.13 4.18 1.69.15m-1.69-.15-22.58-2m5.47-2.18-5.47 2.19m5.47-2.2h29.24m-29.24 0 10.2-4.07m-10.2 4.08h-29.23m58.47 0 9.82-4.08m0 0h-28.86m28.86 0 9.57-3.97m-38.43 3.97 9.94-3.97m-9.94 3.97H-51.9m38.8-3.97h28.48m50.24 16.53h.7m-.7 0-.23.11m.23-.11H35.6m30.73 0-.94.11m.94-.11.76-.09m28.55.09L92 176.75m3.63-1.78H67.44m28.2 0h10.15M92 176.75l-11.49 1.48m11.5-1.48 13.78-1.78m-70.2 0-1.09.49m1.09-.5h-4.35m3.26.5-3.26-.5m3.26.5 12.14 1.81m.64 8.24-32.1 1.92m32.1-1.92 9.18-6.13h.01l.78-.52m-9.97 6.65 32.38 2.8m-32.38-2.8-9.65 16.78m-22.45-14.86 10-13.37m-10 13.37L5.04 203.4m10.14-15.97-31.73-3.5-.72-.09m42.46-9.78 6.05.9m-6.05-.9-14.78-1.18m-24.87-2.06 7.7.68m0 0 17.17 1.38m-17.17-1.38-10.5 12.34m63.9-6.57 10.6 1.59m-10.6-1.59 18.74-2.19m-8.13 3.78L87.5 190.7m-30.25-11.84 9.83-3.98m-84.35 8.96-.04.08-10.3 19.48m10.34-19.56-32.6-5.47m76.9 30.26H-6.1m33.14 0 10.59-6.34m-10.6 6.34L16.07 214m-22.16-5.38 11.14-5.23m-11.14 5.23h-33.14l11.63-5.23m21.5 5.23L-17.57 214M5.04 203.4l32.59-1.11m-32.59 1.1h-32.65m-32.97-4.51 32.97 4.52M-17.58 214l-11.83 5.56m11.83-5.56h-33.64m33.64 0h33.64m-35.02 17.19H-54.2m35.23 0 12.03-5.91m-12.03 5.9h35.23m-35.23 0-12.42 6.1m1.97-17.72-12.2 5.72h34.68m-22.48-5.72H4.74m-34.15 0h-34.16m56.64 5.72 11.67-5.72m-11.67 5.72h34.69m-23.02-5.72L16.06 214m-11.32 5.56h34.15M16.06 214h33.63M-67.18 237.3h35.8m10.9 12.8-13.08 6.71m13.08-6.72h-36.98m36.98 0H16.5m321.13-116.85 4.84-3.27m-4.84 3.27-4.96 3.34m4.96-3.34h-26.15m0 0 5.14-3.27m-5.14 3.27-5.27 3.34m5.27-3.34h-26.16m31.3-3.27 5.03-3.2m-5.03 3.2h25.85m-25.85 0h-25.85m51.7 0 4.74-3.2m-61.89 6.47 5.45-3.27m-5.45 3.27-5.58 3.34m5.58-3.34h-26.15m0 0 5.75-3.27m-5.75 3.27-5.89 3.34m11.64-6.6 5.62-3.2m-5.62 3.2h25.85m0 0 5.24-5.54m21.06 22.67 5.32-3.6m-5.32 3.6-5.46 3.69m5.46-3.69h-27.44m27.44 0h27.44m-54.88 0 5.66-3.6m-5.66 3.6-5.8 3.69m5.8-3.69h-27.44m33.1-3.6 5.52-3.5m-5.52 3.5h27.1m-27.1 0h-27.1m54.2 0 5.2-3.5m-5.2 3.5h27.11m-21.9-3.5 5.07-3.43M327.6 140H300.8m26.79 0h26.78m-53.57 0 5.4-3.43m-5.4 3.43h-26.78m32.18-3.43h26.46m-26.46 0h-26.47m52.93 0h26.47m-96.95 10.53 6-3.6m-6 3.6-6.14 3.69m6.14-3.69h-27.44m0 0 6.32-3.6m-6.32 3.6-6.49 3.69m6.49-3.69H207.3m33.76-3.6 6.18-3.5m-6.18 3.5h27.11m-27.1 0h-27.11m54.21 0 5.85-3.5m0 0 5.71-3.43m-5.7 3.43h-26.79m0 0 6.03-3.43m-6.03 3.43h-26.78m32.81-3.43h26.46m-26.46 0h-26.46M207.3 147.1l6.66-3.6m-6.66 3.6h-27.44m0 0 7-3.6m0 0 6.82-3.5m-6.83 3.5h27.1m0 0 6.51-3.5m0 0 6.35-3.43m-6.35 3.43h-26.78m0 0 6.66-3.43m0 0h26.47m79.19 18 5.6-3.78m-5.6 3.77-5.74 3.88m5.74-3.88h-28.13m0 0 5.95-3.77m-5.95 3.77-6.1 3.88m6.1-3.88h-28.13m34.08-3.77h27.78m-27.78 0h-27.78m-6.3 3.77 6.3-3.77m-6.3 3.77-6.46 3.88m6.46-3.88h-28.13m0 0 6.64-3.77m-6.64 3.77-6.82 3.88m13.46-7.65h27.79m26.08 19.88 6.2-4.18m-6.2 4.18-6.37 4.3m6.37-4.3h-29.62m29.62 0h29.62m-59.24 0 6.59-4.18m-6.6 4.18-6.76 4.3m6.77-4.3h-29.63m36.22-4.18 6.42-4.08m-6.42 4.08h29.23m-29.23 0h-29.24m58.47 0 6.05-4.08m-6.05 4.08h29.24m-23.2-4.08 5.9-3.97m-5.9 3.97h-28.85m28.86 0h28.86m-57.72 0 6.26-3.97m-6.26 3.97h-28.86m35.12-3.97h28.49m-28.5 0H243.3m56.98 0h28.49m-105.88 12.23 6.98-4.18m-6.98 4.18h-29.62m29.62 0-7.16 4.3m-22.46-4.3 7.37-4.18m-7.37 4.18h-29.62m29.62 0-7.56 4.3m14.93-8.48h29.23m-29.23 0h-29.24m29.24 0 7.18-4.08m22.05 4.08 6.8-4.08m0 0 6.63-3.97m-6.63 3.97h-28.85m0 0 6.99-3.97m-7 3.97h-28.85m35.85-3.97h28.49m-28.5 0h-28.48m-22.67 12.23H134m29.63 0 7.75-4.18m-37.38 4.18 8.15-4.18m0 0h29.23m-29.23 0 7.93-4.08m21.3 4.08 7.56-4.08m0 0 .2-.1 7.16-3.87m-7.36 3.97h-28.86m0 0 7.73-3.97m0 0h28.49m82.9 20.94 6.55-4.41m-6.55 4.41-6.72 4.54m6.72-4.53H238.8m0 0 6.85-4.36.1-.06m-6.96 4.41-.29.2-6.85 4.34m7.15-4.53h-30.44m37.39-4.42h30.02m-30.02 0h-30.02m-7.37 4.41h-30.43m30.43 0 7.37-4.41m-7.37 4.41-7.56 4.54m-22.87-4.53 7.78-4.42m-7.78 4.41-7.98 4.54m15.76-8.95h30.02m25.43 23.35h-32.18m32.18 0 7.32-4.94m-7.32 4.94h32.19m-32.19 0-7.53 5.08m-24.65-5.08 7.77-4.94m-7.77 4.94-8 5.08m8-5.08h-32.19m39.96-4.94h31.73m-31.73 0h-31.73m31.73 0 7.55-4.8m24.18 4.8 7.1-4.8m-7.1 4.8h31.72m-24.61-4.8h-31.29m31.29 0 6.91-4.66m-6.91 4.67h31.28m-62.57 0 7.35-4.67m-7.35 4.67h-31.28m38.63-4.67h30.85m-30.85 0h-30.85m61.7 0h30.85m-116.56 14.4H144.6m32.18 0 8.23-4.94m-8.23 4.94-8.47 5.08m-23.71-5.08 8.69-4.94m-8.7 4.94h-32.17m32.18 0-9.05 3.05m17.74-7.99H185m-31.72 0h-31.73m31.73 0 8.44-4.8m23.28 4.8 8-4.8m0 0h-31.28m31.28 0 7.78-4.66m-39.06 4.67 8.2-4.67m-8.2 4.67h-31.28m39.49-4.67h30.85m-30.85 0h-30.85m-59.43 4.38 7.84 2.4m0 0 2.38.73m0 0 .62.18m-.62-.18 8.96-8.62m-8.34 8.8 21.92 6.7m-21.92-6.7 31.06 1.77m-9.14 4.94 9.14-4.94m0 0 8.89-4.8m0 0-31.6-5.77m31.6 5.78 8.64-4.67m-40.25-1.11 8.9-8.1m-8.9 8.1-18.33-4.58m27.22-3.51-1.94.25m1.94-.25.86.25m-28.08 3.26-13.07-3.26m41.15 0 8.8 2.58m108.4 29.33-33.1.8m33.1-.8 7.83-3.48m-7.83 3.48-7.9 7.13m-25.2-6.33 8.28-4.28m-8.28 4.28-8.44 6.33m8.44-6.33-33.1.95m41.38-5.23h32.65m-32.65 0H168.3m-8.72 5.23h-33.14m33.14 0 8.72-5.23m-8.72 5.23-8.98 5.38m-24.16-5.38 9.1-7.26m-9.1 7.26-9.48 5.38m18.58-12.64 32.76 2.03m24.1 27.8H157.2m35.23 0 8.75-5.91m-8.75 5.9h35.23m-35.23 0-9.04 6.1m-26.2-6.1 9.3-5.9m-9.3 5.9-9.6 6.1m9.6-6.1h-35.22m44.53-5.9h34.68m-34.68 0H131.8m34.69 0 9.01-5.72m25.67 5.72 8.49-5.72m-8.49 5.72h34.68m-26.2-5.72H175.5m34.16 0 8.22-5.56m-8.22 5.56h34.15m-68.3 0 8.74-5.56m-8.75 5.56h-34.15m42.9-5.56h33.63m-33.63 0H150.6m67.27 0h33.64M121.96 231.2H86.73m35.23 0 9.84-5.91m-9.84 5.9-10.17 6.1m-25.06-6.1 10.4-5.9m-10.4 5.9H51.5m35.23 0L76 237.3m21.12-12h34.68m-34.68 0H62.44m34.68 0 10.08-5.72m24.6 5.72 9.55-5.72m0 0H107.2m34.15 0 9.26-5.56m-43.41 5.56 9.77-5.56m-9.77 5.56H73.04m43.93-5.56h33.64m-33.64 0H83.33M51.5 231.2H16.27m35.23 0 10.94-5.91m-46.17 5.9 11.48-5.9m0 0h34.69m-34.69 0 11.14-5.72m23.55 5.72 10.6-5.72m0 0H38.9m34.16 0L83.33 214m-44.44 5.56L49.7 214m0 0h33.64m90.73 29.57h-36.38m36.38 0 9.32-6.3m-9.32 6.3-9.64 6.5m-26.74-6.5 9.9-6.3m-9.9 6.3-10.24 6.5m10.24-6.5H101.3m46.29-6.3h35.8m-35.8 0h-35.8m-10.49 6.3H64.92m36.38 0 10.5-6.3m-10.5 6.3-10.84 6.5m-25.54-6.5 11.08-6.3m-11.08 6.3-11.44 6.5M76 237.28h35.8m21.7 33.67H94.57m38.91 0 10.66-7.2m-10.66 7.2h38.92m-38.92 0-11.04 7.44m-27.87-7.44 11.33-7.2m-11.33 7.2-11.73 7.44m11.73-7.44H55.67m50.24-7.2h38.25m-38.25 0H67.66m38.25 0 10.95-6.95m27.3 6.95 10.3-6.95m-10.3 6.95h38.24m-27.94-6.95h-37.6m37.6 0 9.96-6.72m-9.96 6.72h37.6m-75.2 0 10.58-6.72m-10.58 6.72h-37.6m48.18-6.72h36.98m-36.98 0H90.46m73.96 0h36.98M55.67 270.95H16.76m38.9 0 12-7.2m-12 7.2-12.41 7.44m-26.5-7.44 12.67-7.2m-12.66 7.2h-38.92m38.92 0-13.11 7.44m25.77-14.63h38.24m-38.24 0H-8.83m38.25 0 12.23-6.96m26.01 6.95 11.6-6.95m0 0H41.64m37.6 0 11.2-6.72m-48.8 6.72 11.83-6.72m-11.83 6.72H4.05m49.43-6.72h36.98m-36.98 0H16.5m-38.66 20.87h-38.91m38.91 0 13.33-7.2m-13.33 7.2-13.8 7.44h39.6m-37.2-21.59-13.52 6.95h38.25m-24.73-6.95h37.6m-37.6 0h-37.6m62.33 6.95 12.88-6.95m0 0 12.45-6.72m94.52 36.03H70.7m40.32 0 11.44-7.72m-11.44 7.72-11.86 8m-28.46-8 12.15-7.72m-12.15 7.72-12.6 8m12.6-8H30.38m52.47-7.72h39.6m-39.6 0h-39.6m-12.87 7.72H-9.94m40.32 0 12.87-7.72m-12.87 7.72-13.34 8m-26.98-8 13.59-7.72m-13.59 7.72-14.08 8m14.08-8h-40.31m53.9-7.72h39.6m17.56 41.59H17.36m43.45 0 13.27-8.95m-13.27 8.95h43.46m-43.46 0-13.43 9.07-.36.24m-29.66-9.31 14.1-8.95m-14.1 8.95-14.66 9.3m14.66-9.3H-26.1m57.56-8.95h42.62m-42.62 0h-42.63m42.63 0 13.57-8.62m29.05 8.62 12.78-8.62m-12.78 8.62h42.63m-29.85-8.62H45.03m41.83 0 12.3-8.3m-12.3 8.3h41.82m-83.65 0 13.07-8.3m-13.07 8.3H3.2m54.9-8.3h41.06m-41.06 0H17.04m82.12 0h41.06M-26.1 319.98h-43.45m43.45 0 14.93-8.95m-14.93 8.95-15.52 9.3H2.7m-56.5-18.25h42.63m0 0 .43-.26 13.94-8.36m0 0h-41.83l14.61-8.3m27.22 8.3 13.84-8.3m-41.06 0h41.06m-41.06 0h-41.06m97.74 44.86h-45.21m45.21 0 14.36-9.68m-14.36 9.68-14.94 10.08m-30.27-10.08L2.7 329.3m-15.25 9.68-15.88 10.08m15.88-10.08h-45.22M2.7 329.3h44.32m-78.1 52.68h-49.2m49.2 0 16.97-11.44m-16.97 11.44h49.2m-80.37-11.44h48.14m0 0 16.25-10.96m-16.25 10.96h48.14m-31.9-10.96h-47.11l16.55-10.51m30.57 10.5 15.58-10.5m-15.58 10.5h47.12m-77.7-10.5h46.16m-46.15 0h-46.15m92.3 0h46.15m430.69-215.83 3.02-3.27m-3.02 3.27-3.1 3.34m3.1-3.34H468.4m0 0 3.33-3.27m-3.33 3.27-3.4 3.34m3.4-3.34h-26.15m29.48-3.27 3.26-3.2m-3.26 3.2h25.85m-25.85 0h-25.85m51.7 0 2.96-3.2m-58.3 6.47 3.64-3.27m-3.63 3.27-3.72 3.34m3.72-3.34h-26.16m0 0 3.94-3.27m-3.94 3.27-4.02 3.34m7.96-6.6 3.84-3.2m-3.84 3.2h25.85m0 0 3.55-3.2m32.27 20.33 3.33-3.6m-3.33 3.6-3.4 3.69m3.4-3.69h-27.44m27.44 0h27.44m-54.88 0 3.67-3.6m-3.67 3.6-3.75 3.69m3.75-3.69h-27.44m31.1-3.6 3.58-3.5m-3.57 3.5h27.1m-27.1 0h-27.1m54.2 0 3.26-3.5m-3.26 3.5h27.11M488.3 140l3.17-3.43m-3.17 3.43H461.5m26.79 0h26.78m-53.57 0 3.5-3.43m-3.5 3.43h-26.78m30.27-3.43h26.47m-26.47 0h-26.46m52.93 0h26.46m-91.1 10.53 4-3.6m-4 3.6-4.09 3.69m4.1-3.69h-27.44m0 0 4.32-3.6m-4.32 3.6-4.44 3.69m4.44-3.69h-27.44m31.76-3.6 4.23-3.5m-4.23 3.5h27.11m-27.1 0H376.6m54.21 0 3.9-3.5m0 0 3.8-3.43m-3.8 3.43h-26.78m0 0 4.13-3.43m-4.13 3.43h-26.78m30.9-3.43h26.47m-26.46 0H385.6m-13.65 10.53 4.66-3.6m-4.66 3.6H344.5m0 0 5-3.6m0 0 4.87-3.5m-4.88 3.5h27.1m0 0 4.56-3.5m0 0 4.44-3.43m-4.44 3.43h-26.78m0 0 4.76-3.43m0 0h26.46m89.2 18 3.5-3.78m-3.5 3.77-3.6 3.88m3.6-3.88h-28.14m0 0 3.85-3.77m-3.85 3.77-3.95 3.88m3.95-3.88h-28.13m31.98-3.77h27.78m-27.78 0h-27.78m-4.2 3.77 4.2-3.77m-4.2 3.77-4.3 3.88m4.3-3.88H390.4m0 0 4.55-3.77m-4.55 3.77-4.66 3.88m9.2-7.65h27.79m37.14 19.88 3.88-4.18m-3.88 4.18-3.98 4.3m3.98-4.3h-29.63m29.63 0h29.62m-59.25 0 4.27-4.18m-4.26 4.18-4.38 4.3m4.38-4.3h-29.63m33.9-4.18 4.15-4.08m-4.16 4.08h29.24m-29.24 0h-29.24m58.48 0 3.77-4.08m-3.77 4.08h29.23m-25.46-4.08 3.68-3.97m-3.68 3.97h-28.85m28.85 0h28.86m-57.71 0 4.04-3.97m-4.04 3.97H409.8m32.9-3.97h28.5m-28.5 0h-28.48m56.97 0h28.5m-99.08 12.23 4.65-4.18m-4.65 4.18-4.78 4.3m4.78-4.3H371m0 0 5.04-4.18m-5.04 4.18-5.18 4.3m5.18-4.3h-29.62m34.66-4.18 4.91-4.08m-4.91 4.08h29.23m-29.23 0H346.8m58.47 0 4.54-4.08m0 0 4.42-3.97m-4.42 3.97h-28.86m0 0 4.79-3.97m-4.79 3.97h-28.86m33.65-3.97h28.49m-28.5 0h-28.48m-15.87 12.23 5.43-4.18m-5.43 4.18h-29.63m0 0 5.82-4.18m0 0 5.67-4.08m-5.67 4.08h29.24m0 0 5.28-4.08m0 0 5.16-3.97m-5.16 3.97h-28.85m0 0 5.52-3.97m0 0h28.49m94.55 20.94 4.09-4.41m-4.1 4.41-4.2 4.54m4.2-4.53h-30.42m0 0 4.5-4.42m-4.5 4.41-4.63 4.54m4.63-4.53h-30.43m34.93-4.42h30.02m-30.02 0h-30.03m-4.9 4.41 4.9-4.41m-4.9 4.41-5.05 4.54m5.05-4.53H360.5m0 0 5.31-4.42m-5.31 4.41-5.47 4.54m10.78-8.95h30.02m38.42 23.35 4.57-4.94m-4.57 4.94-4.7 5.08m4.7-5.08h-32.19m32.19 0h32.18m-64.37 0 5.03-4.94m-5.03 4.94-5.17 5.08m5.17-5.08H369.9m37.21-4.94 4.89-4.8m-4.89 4.8h31.73m-31.73 0h-31.73m63.46 0 4.44-4.8m-4.44 4.8h31.73m-27.29-4.8 4.32-4.66m-4.32 4.67H412m31.28 0h31.29m-62.57 0 4.75-4.67M412 188.6h-31.28m36.03-4.67h30.85m-30.85 0H385.9m61.7 0h30.85m-108.55 14.4 5.49-4.94m-5.5 4.94-5.64 5.08m5.65-5.08H337.7m0 0 5.95-4.94m-5.94 4.94-6.12 5.08m6.12-5.08h-32.19m38.13-4.94 5.77-4.8m-5.77 4.8h31.73m-31.73 0h-31.73m63.45 0 5.34-4.8m0 0 5.18-4.66m-5.18 4.67h-31.29m0 0 5.62-4.67m-5.62 4.67h-31.28m36.9-4.67h30.85m-30.85 0H324.2m-18.67 14.4 6.4-4.94m-6.4 4.94h-32.18m0 0 6.56-4.73.3-.2m0 0 6.56-4.73.1-.07m-6.67 4.8h31.73m0 0 6.22-4.8m0 0 6.05-4.67m-6.05 4.67h-31.28m0 0 6.48-4.67m0 0h30.85m67.33 23.32 5.38-3.84m-5.38 3.84-5.56 3.18m5.56-3.18 29.39-.6m-29.39.6-33.13.33m38.5-4.17h32.66m-32.65 0h-32.66m65.31 0-3.96 2.56m3.96-2.56h13.58m-17.54 2.56-4.68.69m4.68-.69 17.54-2.56m-84.74 4.17 5.85-4.17m-5.85 4.17-5.99 5.31m6-5.3-33.14.13m0 0 6.33-4.31m-6.33 4.31-6.46 6.3m12.79-10.61h32.65m39.56 27.8 5.47-5.91m-5.47 5.9-5.44 5.88-.2.22m5.64-6.1h-35.23m35.23 0h35.23m-70.46 0 6.01-5.9m-6.01 5.9-6.21 6.1m6.2-6.1h-35.22m41.25-5.9 5.73-5.62.1-.1m-5.84 5.72h34.69m-34.69 0H339.9m69.37 0 5.3-5.72m-5.3 5.72h34.68m-29.38-5.72h-34.15m34.15 0 4.94-12.72m-4.94 12.72h34.16m-68.31 0 5.54-9.15m-5.54 9.15h-34.15m39.7-9.15 33.54-3.57m-33.55 3.57-33.56 2.46m67.11-6.03 1.4-.2m232.73 12.92-1.59 5.72m1.6-5.72 1.53-5.56m-1.54 5.56L638.6 214m15.05 5.56h34.15M638.6 214l-14.6-5.38m14.6 5.38h16.6m-31.2-5.38-.4-.15m0 0-4.25-1.57m4.26 1.57 1.88-5.08m-6.14 3.51-2.16 2.5m2.16-2.5-26.81-2.88m0 0-5.96-.63m5.96.63.3-.63m-6.26 0-1.47-.16m1.47.16h6.25m-7.72-.16-2.05.16m2.05-.16-.05.27-2.49 13.53m2.54-13.8-34.1 5.59m32.05-5.43-23.9 1.83m23.9-1.83h-22.88m-1.02 1.83-5.02.4m5.02-.4 1.02-1.83m-6.04 2.22-2.94 3-.2.2m3.14-3.2-12.68-2.22m0 0-12.51-2.2m12.51 2.2h18.72m-31.23-2.2-8.11-1.42-.48-.09m8.59 1.5 1.87-2.87m-10.46 1.37-22.51-.31m22.5.31-3.44 13.48m-19.06-13.8.79-1.05m-.79 1.06-11.19-.16m0 0-1.66 7.66-.04.18-2.13 9.82m3.83-17.66-22.48 1.82m0 0 2.27-2.72m-2.27 2.72-11.13.9m0 0-9.91 1.46m9.92-1.45-4.32 17.62m-115.4 11.63h-35.22m35.23 0 6.56-5.91m-6.56 5.9-6.78 6.1m-28.45-6.1 7.11-5.9m-7.11 5.9h-35.23m35.23 0-7.34 6.1m14.45-12h34.68m-34.68 0h-34.68m34.68 0 6.9-5.72m27.78 5.72 6.37-5.72m0 0H312.1m34.16 0 6.13-6.69m-40.29 6.69 6.7-5.56m-6.7 5.56h-34.15M318.8 214l33.6-1.13m-33.6 1.13h-33.64m-22.28 17.19h-35.23m35.23 0 7.66-5.91m-42.9 5.9 8.21-5.9m0 0h34.69m-34.69 0 7.96-5.72m26.73 5.72 7.42-5.72m0 0h-34.15m34.15 0 7.2-5.56m-41.35 5.56 7.71-5.56m0 0h33.64m107.16 29.57h-36.38m36.38 0 5.83-6.3m-5.83 6.3-6.02 6.5m-30.36-6.5 6.42-6.3m-6.42 6.3-6.62 6.5m6.63-6.5h-36.38m42.79-6.3h35.8m-35.8 0h-35.8m-7 6.3H283.2m36.38 0 7-6.3m-7 6.3-7.23 6.5m-29.15-6.5 7.58-6.3m-7.58 6.3-7.83 6.5m15.4-12.8h35.8m40.41 33.67h-38.91m38.91 0 6.66-7.2m-6.66 7.2h38.91m-38.9 0-6.9 7.44m-32.02-7.44 7.33-7.2m-7.33 7.2-7.6 7.44m7.6-7.44h-38.91m46.24-7.2h38.24m-38.24 0h-38.25m38.25 0 7.08-6.95m31.16 6.95 6.44-6.95m-6.44 6.95h38.25m-31.8-6.95h-37.6m37.6 0 6.22-6.72m-6.23 6.72h37.6m-75.2 0 6.85-6.72m-6.85 6.72h-37.6m44.45-6.72h36.98m-36.98 0h-36.98m73.96 0h36.98m-134.13 20.87h-38.92m38.92 0 8-7.2m-8 7.2-8.28 7.44m-30.64-7.44 8.66-7.2m-8.66 7.2h-38.91m38.91 0-8.97 7.44m17.63-14.63h38.25m-38.25 0h-38.24m38.24 0 8.38-6.96m29.87 6.95 7.73-6.95m0 0h-37.6m37.6 0 7.47-6.72m-45.07 6.72 8.09-6.72m-8.1 6.72h-37.6m45.7-6.72h36.98m-36.98 0h-36.98m-27.06 20.87h-38.91m38.91 0 9.33-7.2m-48.24 7.2 10-7.2m0 0h38.24m-38.25 0 9.66-6.95m28.59 6.95 9.01-6.95m0 0h-37.6m37.6 0 8.72-6.72m-46.32 6.72 9.34-6.72m0 0h36.98m114.54 36.03h-40.31m40.31 0 7.15-7.72m-7.15 7.72-7.4 8m-32.91-8 7.86-7.72m-7.87 7.72-8.15 8m8.16-8h-40.32m48.18-7.72h39.6m-39.6 0h-39.6m-8.58 7.72h-40.32m40.32 0 8.58-7.72m-8.58 7.72-8.9 8m-31.42-8 9.3-7.72m-9.3 7.72-9.63 8m18.92-15.72h39.6m40.69 41.59h-43.46m43.46 0 8.29-8.95m-8.3 8.95H365m-43.45 0-8.63 9.3m-34.83-9.3 9.12-8.95m-9.12 8.95-9.48 9.3m9.48-9.3h-43.45m52.57-8.95h42.63m-42.63 0H244.6m42.62 0 8.79-8.62m33.84 8.62 7.98-8.62m-7.98 8.62h42.63m-34.65-8.62H296m41.82 0 7.7-8.3m-7.7 8.3h41.83m-83.65 0 8.45-8.3m-8.45 8.3h-41.83m50.28-8.3h41.06m-41.06 0H263.4m82.12 0h41.06m-151.93 25.87h-43.46m43.46 0 9.95-8.95m-9.95 8.95-10.35 9.3m-33.11-9.3 10.78-8.95m-10.78 8.95h-43.46m43.46 0-11.2 9.3m21.98-18.25h42.63m-42.63 0h-42.62m42.62 0 10.38-8.62m32.25 8.62 9.58-8.62m0 0h-41.83m41.83 0 9.22-8.3m-51.05 8.3 10-8.3m-10 8.3H170.5m51.83-8.3h41.05m-41.05 0h-41.06m-33.56 25.87h-43.45m43.45 0 11.62-8.95m-55.07 8.95 12.44-8.95m0 0h42.63m-42.63 0 11.97-8.62m30.66 8.62 11.17-8.62m0 0h-41.83m41.83 0 10.77-8.3m-52.6 8.3 11.54-8.3m0 0h41.06m122.67 44.86h-45.21m45.21 0 8.97-9.68m-8.97 9.68-9.34 10.08m-35.87-10.08 9.87-9.68m-9.87 9.68-10.28 10.08m10.28-10.08h-45.22m55.09-9.68h44.31m-44.31 0h-44.32m-10.77 9.68h-45.21m45.21 0 10.77-9.68m-10.77 9.68-11.2 10.08m-34.01-10.08 11.66-9.68m-11.66 9.68-12.15 10.08m23.81-19.76h44.32m2.29 41.24h48.14m-48.14 0 11.17-10.96m-11.17 10.96h-48.14m96.28 0 10.15-10.96m-10.15 10.96h47.37m-37.22-10.96h-47.12m47.12 0 9.74-10.51m-9.74 10.5H332m-94.25 0 10.71-10.5m-10.7 10.5h-47.13m57.83-10.5h46.15m-46.15 0h-46.15m92.3 0h46.15M130.3 370.52h48.14m-48.14 0 13.2-10.96m-13.2 10.96H82.17m96.27 0 .22-.2 11.97-10.76m0 0H143.5m47.12 0 11.68-10.51m-58.8 10.5 12.65-10.5m-12.65 10.5H96.38m59.78-10.5h46.15m-46.15 0h-46.14m-91.9 32.91 15.9-11.44m0 0h48.15m-48.14 0 15.23-10.96m32.9 10.96 14.22-10.96m0 0H49.26m47.12 0 13.64-10.51m-60.76 10.5 14.6-10.5m0 0h46.16m44.47 61.9-59.57 10.25m59.57-10.24-16.09 26.09m-43.48-15.85-17.58 27.8m17.58-27.8-59.59 8.37m0 0-59.62 6.6m59.62-6.6-19.07 29.35m-40.55-22.74-59.67 5 50.35 8.91m9.32-13.91-9.32 13.91m117.57 64.7-66 19m66-19 19.1-28.75m-85.1 47.76 20.83-31.27m-20.82 31.27-22.2 31.13m22.2-31.13-32.3 8.19m53.12-39.46 64.28-16.49m-64.28 16.5-64.25 14.18m64.25-14.19 19.81-27.42m44.47 10.93 18.18-24.87m0 0L58.6 475.12m62.65-13.94 17.16-24.12m-17.16 24.12 62.7-16M58.6 475.12l18.74-26.1m-18.74 26.1L-4.03 486.9M77.34 449l61.06-11.95m-61.06 11.95-61.08 9.92m122.14-21.87 61.1-13.96M-89.72 528.48l64.26-11.75m0 0 21.43-29.83m-21.43 29.83-10.3 15.46m10.3-15.46L-14.33 542m10.1 22.94-23.74 30.81m23.74-30.81L-14.33 542m10.3-55.1-62.66 9.58m62.66-9.58 20.3-27.97m0 0-49.88-8.83m49.87 8.83-52.02 6.75M41.8 571.36l-69.76 24.4m69.76-24.4-23.34 27.78m-46.42-3.39-7.79 9.32m402.27-53.27-11.53 20.74-.13.24m11.66-20.98 11-19.8m-11 19.8h64.93M18.45 599.14-3.65 671m22.1-71.86-54.2 8.92m54.2-8.92-54.2 20.39m687.23-486.3 1.21-3.27m-1.2 3.27-1.25 3.34m1.24-3.34h-26.15m0 0 1.51-3.27m-1.51 3.27-1.55 3.34m1.55-3.34h-26.16m27.67-3.27 1.48-3.2m-1.48 3.2h25.85m-25.85 0H601m51.7 0 1.19-3.2m-54.7 6.47 1.81-3.27m-1.82 3.27-1.86 3.34m1.86-3.34h-26.15m0 0 2.12-3.27m-2.12 3.27-2.17 3.34m4.29-6.6 2.07-3.2m-2.07 3.2h25.85m0 0 1.77-3.2m43.58 20.33 1.33-3.6m-1.33 3.6-1.36 3.69m1.36-3.69H618.9m27.44 0h27.44m-54.88 0 1.67-3.6m-1.67 3.6-1.7 3.69m1.7-3.69h-27.44m29.1-3.6 1.63-3.5m-1.62 3.5h27.1m-27.1 0h-27.11m54.21 0 1.3-3.5m-1.3 3.5h27.11m-25.8-3.5 1.26-3.43m-1.27 3.43H622.2m26.78 0h26.78m-53.56 0 1.59-3.43m-1.59 3.43h-26.78m28.37-3.43h26.46m-26.46 0H597.3m52.93 0h26.47m-85.25 10.53 2-3.6m-2 3.6-2.05 3.69m2.05-3.69h-27.44m0 0 2.33-3.6m-2.33 3.6-2.39 3.69m2.4-3.69h-27.45m29.77-3.6 2.28-3.5m-2.28 3.5h27.11m-27.1 0h-27.11m54.21 0 1.95-3.5m0 0 1.9-3.43m-1.9 3.43h-26.78m0 0 2.22-3.43m-2.22 3.43h-26.78m29-3.43h26.46m-26.46 0h-26.46m-7.8 10.53 2.66-3.6m-2.67 3.6h-27.44m0 0 3-3.6m0 0 2.93-3.5m-2.93 3.5h27.1m0 0 2.6-3.5m0 0 2.55-3.43m-2.54 3.43h-26.78m0 0 2.85-3.43m0 0h26.47m99.19 18 1.4-3.78m-1.4 3.77-1.44 3.88m1.44-3.88h-28.13m0 0 1.75-3.77m-1.75 3.77-1.8 3.88m1.8-3.88h-28.13m29.88-3.77h27.78m-27.78 0H589.4m-2.1 3.77 2.1-3.77m-2.1 3.77-2.15 3.88m2.16-3.88h-28.14m0 0 2.45-3.77m-2.45 3.77-2.5 3.88m4.95-7.65h27.78m48.2 19.88 1.55-4.18m-1.55 4.18-1.6 4.3m1.6-4.3h-29.63m29.63 0h29.62m-59.25 0 1.94-4.18m-1.94 4.18-1.99 4.3m2-4.3h-29.63m31.56-4.18 1.9-4.08m-1.9 4.08h29.24m-29.24 0H580.7m58.47 0 1.5-4.08m-1.5 4.08h29.23m-27.72-4.08 1.47-3.97m-1.47 3.97H611.8m28.86 0h28.86m-57.72 0 1.84-3.97m-1.84 3.97h-28.86m30.7-3.97h28.5m-28.5 0h-28.49m56.98 0h28.5m-92.28 12.23 2.33-4.18m-2.33 4.18-2.39 4.3m2.4-4.3h-29.63m0 0 2.71-4.18m-2.71 4.18-2.79 4.3m2.79-4.3H519.1m32.34-4.18 2.65-4.08m-2.65 4.08h29.24m-29.24 0h-29.23m58.47 0 2.26-4.08m0 0 2.21-3.97m-2.2 3.97H554.1m0 0 2.57-3.97m-2.57 3.97h-28.86m31.43-3.97h28.5m-28.5 0h-28.49m-9.06 12.23 3.1-4.18m-3.1 4.18h-29.63m0 0 3.5-4.18m0 0 3.39-4.08m-3.4 4.08h29.24m0 0 3.02-4.08m0 0 2.94-3.97m-2.94 3.97h-28.86m0 0 3.31-3.97m0 0h28.5m106.19 20.94 1.63-4.41m-1.63 4.41-1.68 4.54m1.68-4.53h-30.43m0 0 2.04-4.42m-2.04 4.41-2.1 4.54m2.1-4.53h-30.43m32.47-4.42h30.02m-30.02 0h-30.02m-2.45 4.41 2.45-4.41m-2.45 4.41-2.52 4.54m2.52-4.53h-30.43m0 0 2.86-4.42m-2.86 4.41-2.95 4.54m5.81-8.95h30.02m51.4 23.35 1.82-4.94m-1.83 4.94-1.88 5.08m1.88-5.08h-32.18m32.18 0h32.19m-64.37 0 2.28-4.94m-2.28 4.94-2.35 5.08m2.35-5.08h-32.19m34.47-4.94 2.23-4.8m-2.23 4.8h31.73m-31.73 0h-31.72m63.45 0 1.78-4.8m-1.78 4.8h31.73m-29.95-4.8 1.73-4.66m-1.73 4.67h-31.28m31.28 0h31.28m-62.56 0 2.16-4.67m-2.16 4.67H568.4m33.45-4.67h30.85m-30.85 0h-30.86m61.7 0h30.86m-100.56 14.4 2.75-4.94m-2.75 4.94-2.82 5.08m2.82-5.08h-32.18m0 0 3.2-4.94m-3.2 4.94h-32.18m35.38-4.94 3.11-4.8m-3.11 4.8h31.73m-31.73 0h-31.73m63.46 0 2.66-4.8m0 0 2.6-4.66m-2.6 4.67h-31.28m0 0 3.02-4.67m-3.02 4.67h-31.28m34.3-4.67H571m-30.86 0H509.3m-10.66 14.4 3.65-4.94m-3.65 4.94h-32.19m0 0 4.12-4.94m0 0 4-4.8m-4 4.8h31.72m0 0 3.56-4.8m0 0 3.45-4.66m-3.45 4.67h-31.28m0 0 3.88-4.67m0 0h30.85m83.54 19.48h32.65m-10.42 17.98-35.13 8.51m35.13-8.5 2.12-11.97m-2.12 11.96 35.35 9.81m-35.35-9.8-2.2 11.2m-32.93-2.7-2.8 7.4m2.8-7.4 2.63-12.85m-2.63 12.85-35.21 1.3m37.84-14.15 34.62-7.62m-34.62 7.62-34.59 6.7m69.21-14.32 34.87 15.87m-107.33 5.9.1-.23 3.15-7.22m-3.25 7.45-3.39 6.1m3.39-6.1h-35.23m0 0 3.83-5.9m-3.83 5.9-3.95 6.1m3.95-6.1h-35.23m39.06-5.9 34.65-1.55m-34.65 1.55h-34.69m34.69 0 3.58-12.12m31.07 10.57 3.03-14.91m0 0-34.1 4.34m0 0-34.08 3.7m-8.56 14.32 4.38-5.9m-4.38 5.9h-35.23m0 0 4.92-5.9m0 0 4.78-5.72m-4.78 5.72h34.69m0 0 4.18-8.41m0 0-34.1 2.69m161.86 23.57-2.4 6.94m2.4-6.94-36.37.44m36.37-.44 2.28-10.55m-38.65 11 2.92-6.3m-2.92 6.3-3.01 6.5m3.01-6.5h-36.38m39.3-6.3 35.73-4.7m-35.73 4.7h-35.8m-3.5 6.3 3.5-6.3m-3.5 6.3-3.61 6.5m3.61-6.5h-36.37m0 0 4.08-6.3m-4.08 6.3-4.22 6.5m8.3-12.8h35.8m59.1 33.66 2.67-7.2m-2.66 7.2-2.76 7.44m2.76-7.44h-38.92m38.92 0h38.91m-77.83 0 3.34-7.2m-3.34 7.2-3.44 7.44m3.44-7.44h-38.9m42.24-7.2 3.22-6.95m-3.22 6.95h38.24m-38.24 0h-38.25m76.5 0 2.52-10.63m-2.53 10.63h38.25m-35.72-10.63 2.54-3.04m-2.54 3.04-37.55 3.68m37.55-3.68 37.65 3.68m-75.2 0 3.1-6.72m-3.1 6.72h-37.6m40.7-6.72h36.99m-36.98 0h-36.98m73.96 0h36.98m-122.54 20.87.16-.28 3.84-6.92m-4 7.2h-38.91m38.91 0-4.14 7.44m-34.77-7.44 4.66-7.2m-4.66 7.2H444.8m38.91 0-4.83 7.44m9.5-14.63h38.24m-38.25 0h-38.24m38.24 0 4.51-6.96m33.74 6.95 3.86-6.95m0 0 3.74-6.72m-3.74 6.72h-37.6m0 0 4.36-6.72m-4.36 6.72h-37.6m41.96-6.72h36.98m-36.98 0h-36.98m-15.46 20.87h-38.92m38.92 0 5.33-7.2m-44.25 7.2 6-7.2m0 0h38.25m-38.25 0 5.8-6.95m32.45 6.95 5.15-6.95m0 0h-37.6m37.6 0 4.98-6.72m-42.58 6.72 5.6-6.72m0 0h36.98m134.57 36.03H554.5m40.32 0 2.86-7.72m-2.86 7.72-2.97 8m-37.35-8 3.58-7.72m-3.58 7.72-3.7 8m3.7-8H514.2m43.9-7.72h39.6m-39.6 0h-39.6m-4.3 7.72h-40.31m40.31 0 4.3-7.72m-4.3 7.72-4.44 8m-35.87-8 5-7.72m-5 7.72-5.2 8m10.2-15.72h39.6m63.8 41.59h-43.46m43.46 0 3.32-8.95m-3.32 8.95h43.45m-43.45 0-3.45 9.3m-40-9.3 4.14-8.95m-4.15 8.95-4.3 9.3m4.3-9.3h-43.45m47.6-8.95h42.63m-42.63 0h-42.63m42.63 0 4-8.62m38.63 8.62 3.19-8.62m-3.2 8.62h42.63m-39.43-8.62h-41.83m41.83 0 3.07-8.3m-3.07 8.3h41.83m-83.66 0 3.85-8.3m-3.85 8.3h-41.83m45.68-8.3h41.05m-41.05 0h-41.06m82.11 0h41.06m-137.55 25.87H451.9m43.46 0 4.97-8.95m-4.97 8.95-5.18 9.3m-38.28-9.3 5.8-8.95m-5.8 8.95h-43.45m43.45 0-6.03 9.3m11.84-18.25h42.62m-42.62 0h-42.63m42.63 0 5.59-8.62m37.03 8.62 4.8-8.62m0 0H463.3m41.82 0 4.62-8.3m-46.44 8.3 5.38-8.3m-5.38 8.3h-41.83m47.2-8.3h41.07m-41.06 0h-41.06m-19.17 25.87H365m43.46 0 6.63-8.95M365 319.98l7.47-8.95m0 0h42.62m-42.62 0 7.18-8.62m35.44 8.62 6.39-8.62m0 0h-41.83m41.83 0 6.15-8.3m-47.98 8.3 6.92-8.3m0 0h41.06m147.61 44.86h-45.21m45.21 0 3.59-9.68m-3.59 9.68-3.74 10.08m-41.47-10.08 4.48-9.68m-4.48 9.68-4.67 10.08m4.67-10.08H484.8m49.7-9.68h44.32m-44.32 0H490.2m-5.38 9.68H439.6m45.21 0 5.38-9.68m-5.38 9.68-5.6 10.08m-39.61-10.08 6.28-9.68m-6.28 9.68-6.54 10.08m12.82-19.76h44.31m69.11 52.68h-49.2m49.2 0 4.25-11.44m-4.25 11.44h49.2m-49.2 0-4.43 11.96m-44.76-11.96 5.3-11.44m-5.3 11.44-5.54 11.96m5.54-11.96h-49.2m54.5-11.44h48.14m-48.14 0h-48.14m48.14 0 5.08-10.96m43.06 10.96 4.06-10.96m-4.06 10.96h48.13m-44.07-10.96h-47.12m47.12 0 3.9-10.51m-3.9 10.5h47.12m-94.24 0 4.87-10.5m-4.87 10.5h-47.13m52-10.5h46.14m-46.14 0H479.2m92.3 0h46.14m-156.74 32.91h-49.2m49.2 0 6.36-11.44m-6.36 11.44-6.65 11.96m-42.55-11.96 7.42-11.44m-7.42 11.44-7.91 6.91m7.91-6.9h-49.2m56.62-11.45h48.14m-48.14 0H371m48.14 0 7.11-10.96m41.03 10.96 6.1-10.96m0 0h-47.13m47.12 0 5.85-10.51m-52.97 10.5 6.82-10.5m-6.82 10.5h-47.12m53.94-10.5h46.15m-46.15 0H386.9m-24.4 32.91 8.48-11.44m0 0 8.13-10.96m0 0H332m47.12 0 7.79-10.51M332 359.56l8.76-10.5m-8.76 10.5-9.04 10.84m17.8-21.34h46.15m163.33 57.39h-51.47m51.47 0 4.63-12.52m-4.63 12.52-4.86 13.1m-46.61-13.1 5.8-12.52m-5.8 12.52-6.07 13.1m6.07-13.1H447.3m57.27-12.52h50.3m-50.3 0h-50.31m-6.96 12.52-51.9-14.06m51.9 14.06 6.96-12.52m-6.96 12.52-7.28 13.1m-44.62-27.17 8.4-3.5m0 0 50.46 5.05m75.08 68.92h-56.7m56.7 0 5.6-15.15m-5.6 15.15h56.69m-56.7 0-5.9 15.93m-50.79-15.93 7.02-15.15m-7.02 15.15-7.38 15.93m14.4-31.08h55.29m-55.29 0 6.68-14.41m48.6 14.41 5.35-14.41m-5.34 14.41h55.29m-49.95-14.41h-53.95m53.95 0 5.1-13.74m-5.1 13.74h53.95m-107.9 0 6.36-13.74m-6.36 13.74h-53.95m60.31-13.74h52.68m-52.68 0h-52.68m105.36 0h52.68m-132.8 59.23-7.77 16.8m7.77-16.8h58.17m-91.04-45.5 7.63-13.73m77.19 76.02h-59.72m59.72 0 6.22-16.79m-6.22 16.8-6.57 17.7m-53.15-17.7-8.2 17.7m0 0L440.6 532m8.67-18.72h61.37M199.5 423.1l-15.57 22.07M488.6 572.78h-66.88m66.88 0 7.77-20.98m-7.77 20.98h66.87m-66.87 0-8.26 22.28m-58.62-22.28 9.72-20.98m-9.72 20.98-10.32 22.28m10.32-22.28h-66.87m76.6-20.98h64.92m-64.93 0 9.17-19.8m55.76 19.8 7.34-19.8m-7.34 19.8h64.93M503.71 532h-63.1m63.1 0 6.94-18.72M503.7 532h63.1m-126.2 0h-63.1m133.13-18.72h61.37m-217.16 59.5-12.39 22.28m-68.94 0-15.37 23.7m15.37-23.7h68.94m129.1 23.7h-71.14m71.14 0 8.78-23.7m-8.78 23.7-9.36 25.26m-61.78-25.26 10.98-23.7m-10.98 23.7-11.7 25.26m11.7-25.26H329.3m82.11-23.7h68.94m-68.94 0h-68.94m-13.17 23.7h-71.14m71.14 0 13.17-23.7m-13.17 23.7-14.04 25.26m-57.1-25.26-16.38 25.26m566.64-510.8-.6-3.26m.6 3.27.62 3.34m-.62-3.34h-26.16m0 0-.3-3.27m.3 3.27.31 3.34m-.3-3.34H756.1m25.85-3.27-.3-3.2m.3 3.2h25.85m-25.85 0H756.1m51.7 0-.59-3.2m-51.11 6.47v-3.27m0 3.27v3.34m0-3.34h-26.15m0 0 .3-3.27m-.3 3.27-.32 3.34m.62-6.6.3-3.2m-.3 3.2h25.85m0 0v-3.2m54.88 20.33-.67-3.6m.67 3.6.68 3.69m-.68-3.69h-27.44m27.44 0h27.44m-54.88 0-.33-3.6m.33 3.6.34 3.69m-.34-3.69H756.1m27.1-3.6-.32-3.5m.33 3.5h27.1m-27.1 0H756.1m54.21 0-.65-3.5m.65 3.5h27.1m-27.75-3.5-.63-3.43m.63 3.43h-26.78m26.78 0h26.78m-53.56 0-.32-3.43m.32 3.43H756.1m26.46-3.43h26.47m-26.47 0H756.1m52.93 0h26.46m-79.4 10.53v-3.6m0 3.6v3.69m0-3.69h-27.43m0 0 .33-3.6m-.33 3.6-.34 3.69m.34-3.69h-27.44m27.77-3.6.33-3.5m-.33 3.5h27.1m-27.1 0h-27.1m54.2 0V140m0 0v-3.43m0 3.43h-26.77m0 0 .31-3.43m-.31 3.43h-26.78m27.1-3.43h26.46m-26.47 0h-26.46m-1.95 10.53.67-3.6m-.67 3.6h-27.44m0 0 1-3.6m0 0 .98-3.5m-.98 3.5h27.1m0 0 .66-3.5m0 0 .63-3.43m-.63 3.43h-26.78m0 0 .95-3.43m0 0h26.46m109.2 18-.7-3.78m.7 3.77.7 3.88m-.7-3.88h-28.14m0 0-.35-3.77m.35 3.77.36 3.88m-.36-3.88H756.1m27.78-3.77h27.78m-27.78 0H756.1m0 3.77v-3.77m0 3.77v3.88m0-3.88h-28.13m0 0 .35-3.77m-.35 3.77-.36 3.88m.7-7.65h27.79m59.25 19.88-.78-4.18m.78 4.18.8 4.3m-.8-4.3h-29.63m29.63 0h29.62m-59.25 0-.39-4.18m.4 4.18.4 4.3m-.4-4.3H756.1m29.23-4.18-.37-4.08m.37 4.08h29.24m-29.24 0H756.1m58.47 0-.75-4.08m.75 4.08h29.24m-30-4.08-.73-3.97m.74 3.97h-28.86m28.86 0h28.85m-57.71 0-.37-3.97m.37 3.97H756.1m28.49-3.97h28.49m-28.5 0H756.1m56.98 0h28.49m-85.47 12.23v-4.18m0 4.18v4.3m0-4.3h-29.62m0 0 .38-4.18m-.38 4.18-.4 4.3m.4-4.3h-29.63m30.01-4.18.38-4.08m-.38 4.08h29.24m-29.24 0h-29.23m58.47 0v-4.08m0 0v-3.97m0 3.97h-28.86m0 0 .37-3.97m-.37 3.97h-28.86m29.23-3.97h28.49m-28.49 0h-28.49m-2.27 12.23.78-4.18m-.78 4.18h-29.62m0 0 1.16-4.18m0 0 1.14-4.08m-1.14 4.08h29.24m0 0 .75-4.08m0 0 .74-3.97m-.74 3.97h-28.85m0 0 1.1-3.97m0 0h28.49m117.84 20.94-.82-4.41m.82 4.41.84 4.54m-.84-4.53h-30.43m0 0-.4-4.42m.4 4.41.42 4.54m-.42-4.53H756.1m30.02-4.42h30.02m-30.02 0H756.1m0 4.41v-4.41m0 4.41v4.54m0-4.53h-30.43m0 0 .4-4.42m-.4 4.41-.42 4.54m.83-8.95h30.02m64.37 23.35-.92-4.94m.92 4.94.94 5.08m-.94-5.08h-32.19m32.19 0h32.18m-64.37 0-.45-4.94m.45 4.94.47 5.08m-.47-5.08H756.1m31.73-4.94-.45-4.8m.45 4.8h31.72m-31.72 0H756.1m63.45 0-.88-4.8m.88 4.8h31.73m-32.62-4.8-.86-4.66m.87 4.67h-31.29m31.28 0h31.29m-62.57 0-.43-4.67m.43 4.67H756.1m30.85-4.67h30.85m-30.85 0H756.1m61.7 0h30.85m-92.55 14.4v-4.94m0 4.94v5.08m0-5.08H723.9m0 0 .46-4.94m-.46 4.94-.47 5.08m.47-5.08h-32.18m32.64-4.94.45-4.8m-.45 4.8h31.73m-31.73 0h-31.73m63.46 0v-4.8m0 0v-4.66m0 4.67h-31.28m0 0 .43-4.67m-.43 4.67h-31.29m31.72-4.67h30.85m-30.85 0H694.4m-2.67 14.4.91-4.94m-.9 4.94h-32.2m0 0 1.38-4.94m0 0 1.33-4.8m-1.33 4.8h31.73m0 0 .88-4.8m0 0 .87-4.66m-.87 4.67h-31.28m0 0 1.3-4.67m0 0h30.85m127.98 24.7-.97-5.22m.97 5.23 1 5.38m-1-5.38h-33.14m0 0-.49-5.23m.49 5.23.5 5.38m-.5-5.38H756.1m32.65-5.23h32.66m-32.66 0H756.1m0 5.23v-5.23m0 5.23V214m0-5.38h-33.14m0 0 .48-5.23m-.48 5.23-.5 5.38m.98-10.61h32.66m70.46 27.8-1.1-5.91m1.1 5.9 1.13 6.1m-1.13-6.1h-35.23m35.23 0h35.23m-70.46 0-.55-5.9m.55 5.9.56 6.1m-.56-6.1H756.1m34.68-5.9-.53-5.72m.53 5.72h34.69m-34.69 0H756.1m69.37 0-1.07-5.72m1.07 5.72h34.68m-35.75-5.72-1.02-5.56m1.02 5.56h-34.15m34.15 0h34.16m-68.3 0-.52-5.56m.51 5.56H756.1m33.64-5.56h33.64m-33.64 0H756.1m67.28 0H857M756.1 231.2v-5.91m0 5.9v6.1m0-6.1h-35.23m0 0 .55-5.9m-.55 5.9-.57 6.1m.57-6.1h-35.23m35.78-5.9.53-5.72m-.53 5.72h34.68m-34.68 0h-34.69m69.37 0v-5.72m0 0V214m0 5.56h-34.15m0 0 .51-5.56m-.51 5.56h-34.16m34.67-5.56h33.64m-33.64 0h-33.64m-3.18 17.19 1.1-5.91m-1.1 5.9H650.4m0 0 1.64-5.9m0 0h34.68m0 0 1.06-5.72m0 0 1.03-5.56m-33.64 0h33.64m140.03 29.57-1.16-6.3m1.16 6.3 1.2 6.5m-1.2-6.5h-36.37m0 0-.59-6.3m.59 6.3.6 6.5m-.6-6.5H756.1m35.8-6.3h35.79m-35.8 0h-35.8m0 6.3v-6.3m0 6.3v6.5m0-6.5h-36.37m0 0 .58-6.3m-.58 6.3-.6 6.5m1.18-12.8h35.8m77.82 33.67-1.33-7.2m1.33 7.2 1.38 7.44m-1.38-7.44h-38.9m38.9 0h38.92m-77.83 0-.66-7.2m.66 7.2.7 7.44m-.7-7.44H756.1m38.25-7.2-.65-6.95m.65 6.95h38.24m-38.24 0H756.1m76.5 0-1.3-6.95m1.3 6.95h38.24m-39.54-6.95-1.24-6.72m1.24 6.72h-37.6m37.6 0h37.6m-75.2 0-.62-6.72m.62 6.72h-37.6m36.98-6.72h36.98m-36.98 0H756.1m73.96 0h36.98M756.1 270.95v-7.2m0 7.2v7.44m0-7.44h-38.91m0 0 .66-7.2m-.66 7.2-.7 7.44m.7-7.44h-38.92m39.58-7.2.65-6.95m-.65 6.95h38.25m-38.25 0h-38.24m76.49 0v-6.95m0 0v-6.72m0 6.72h-37.6m0 0 .62-6.72m-.62 6.72h-37.6m38.22-6.72h36.98m-36.98 0h-36.98m-3.87 20.87 1.34-7.2m-1.34 7.2h-38.9m0 0 1.99-7.2m0 0 1.93-6.95m-1.93 6.95h38.25m0 0 1.28-6.95m0 0 1.25-6.72m-1.25 6.72h-37.6m0 0 1.87-6.72m0 0h36.98m154.6 36.03-1.44-7.72m1.44 7.72h-40.32m40.32 0 1.48 8m-41.8-8-.72-7.72m.72 7.72.74 8m-.74-8H756.1m39.6-7.72h39.6m-39.6 0h-39.6m0 7.72v-7.72m0 7.72h-40.32m40.32 0v8m-40.32-8 .72-7.72m-.72 7.72-.74 8m1.46-15.72h39.6M843 319.98h-43.46m43.46 0-1.66-8.95m1.66 8.95h43.46m-43.46 0 1.72 9.3m-45.18-9.3-.82-8.95m.82 8.95.87 9.3m-.87-9.3H756.1m42.63-8.95h42.62m-42.63 0H756.1m42.63 0-.8-8.62m43.42 8.62-1.6-8.62m1.6 8.62h42.63m-44.23-8.62h-41.82m41.83 0-1.54-8.3m1.53 8.3h41.83m-83.65 0-.77-8.3m.77 8.3H756.1m41.06-8.3h41.06m-41.06 0H756.1m82.12 0h41.06M756.1 319.98h-43.46m43.46 0v-8.95m0 8.95v9.3m-43.46-9.3.83-8.95m-.83 8.95H669.2m43.45 0-.86 9.3m1.7-18.25h42.62m-42.63 0h-42.62m42.62 0 .8-8.62m41.83 8.62v-8.62m0 0h-41.83m41.83 0v-8.3m-41.83 8.3.77-8.3m-.77 8.3h-41.83m42.6-8.3h41.06m-41.06 0h-41.06m-4.8 25.87h-43.45m43.46 0 1.66-8.95m-45.12 8.95 2.5-8.95m0 0h42.62m-42.63 0 2.4-8.62m40.23 8.62 1.6-8.62m0 0h-41.83m41.82 0 1.54-8.3m-43.36 8.3 2.3-8.3m0 0h41.06m172.55 44.86H801.3m45.22 0-1.8-9.68m1.8 9.68 1.87 10.08m-47.09-10.08-.9-9.68m.9 9.68.94 10.08m-.94-10.08H756.1m44.32-9.68h44.31m-44.31 0H756.1m0 9.68h-45.22m45.22 0v-9.68m0 9.68v10.08m-45.22-10.08.9-9.68m-.9 9.68-.93 10.08m1.83-19.76h44.32m98.4 52.68h-49.2m49.2 0-2.12-11.44m2.12 11.44h49.2m-49.2 0 2.21 11.96m-51.41-11.96-1.06-11.44m1.06 11.44 1.1 11.96m-1.1-11.96h-49.2m48.14-11.44h48.14m-48.14 0H756.1m48.14 0-1.02-10.96m49.16 10.96-2.04-10.96m2.04 10.96h48.13m-50.17-10.96h-47.12m47.12 0-1.94-10.51m1.94 10.5h47.13m-94.25 0-.97-10.5m.97 10.5H756.1m46.15-10.5h46.15m-46.15 0H756.1m92.3 0h46.15M756.1 381.97h-49.2m49.2 0v-11.44m0 11.44v11.96m-49.2-11.96 1.06-11.44m-1.06 11.44h-49.2m49.2 0-1.1 11.96m2.16-23.4h48.14m-48.14 0h-48.14m48.14 0 1.02-10.96m47.12 10.96v-10.96m0 0h-47.12m47.12 0v-10.51m-47.12 10.5.97-10.5m-.97 10.5h-47.13m48.1-10.5h46.15m-46.15 0H663.8m-6.1 32.91h-49.2m49.2 0 2.12-11.44m-51.32 11.44 3.18-11.44m0 0h48.14m-48.14 0 3.05-10.96m45.1 10.96 2.02-10.96m0 0h-47.12m47.12 0 1.95-10.51m-49.07 10.5 2.92-10.5m0 0h46.15m195.23 57.39h-51.46m51.46 0-2.32-12.52m2.32 12.52 2.43 13.1m-53.9-13.1-1.15-12.52m1.16 12.52 1.2 13.1m-1.2-13.1H756.1m50.3-12.52h50.31m-50.3 0H756.1m0 12.52h-51.47m51.47 0v-12.52m0 12.52v13.1m-51.47-13.1 1.16-12.52m-1.16 12.52-1.21 13.1m2.37-25.62h50.3m113.4 68.92h-56.7m56.7 0-2.82-15.15m2.81 15.15h56.7m-56.7 0 2.95 15.93m-59.64-15.93-1.4-15.15m1.4 15.15 1.48 15.93m-1.48-15.93h-56.7m55.3-15.15h55.28m-55.28 0h-55.3m55.3 0-1.34-14.41m56.63 14.41L864 433.29m2.67 14.41h55.3M864 433.29h-53.95m53.95 0-2.54-13.74m2.54 13.74h53.96m-107.9 0-1.28-13.74m1.27 13.74H756.1m52.68-13.74h52.68m-52.68 0H756.1m105.36 0h52.68m-158.04 43.3h-56.7m56.7 0V447.7m0 15.15v15.93m-56.7-15.93 1.41-15.15m-1.4 15.15h-56.7m56.7 0-1.48 15.93m2.88-31.08h55.29m-55.29 0h-55.29m55.3 0 1.33-14.41m53.95 14.41v-14.41m0 0h-53.95m53.95 0v-13.74m-53.95 13.74 1.27-13.74m-1.27 13.74H648.2m55.22-13.74h52.68m-52.68 0h-52.68m-8.02 43.3h-56.7m56.7 0 2.8-15.15m-59.5 15.15 4.22-15.15m0 0h55.28m-55.28 0 4-14.41m51.28 14.41 2.68-14.41m0 0h-53.96m53.96 0 2.54-13.74m-56.5 13.74 3.82-13.74m0 0h52.68m224.8 76.02h-59.72m59.72 0-3.1-16.79m3.1 16.8 3.29 17.7m-63-17.7-1.56-16.8m1.55 16.8 1.64 17.7m-1.64-17.7H756.1m58.17-16.8h58.16m-58.16 0H756.1m0 16.8h-59.72m59.72 0v-16.8m0 16.8v17.7m-59.72-17.7 1.55-16.8m-1.55 16.8-1.64 17.7m3.2-34.5h58.16m133.75 94h-66.88m66.88 0-3.89-20.98m3.89 20.98h66.88m-66.88 0 4.13 22.28m-71-22.28-1.95-20.98m1.95 20.98 2.06 22.28m-2.06-22.28H756.1m64.93-20.98h64.93m-64.93 0H756.1m64.93 0L819.2 532m66.76 19.8L882.3 532m3.67 19.8h64.93M882.3 532h-63.1m63.1 0-3.46-18.72m3.46 18.72h63.1m-126.2 0-1.73-18.72M819.2 532h-63.1m61.36-18.72h61.37m-61.37 0H756.1m122.73 0h61.36m-184.1 59.5h-66.87m66.88 0V551.8m0 20.98v22.28m-66.88-22.28 1.95-20.98m-1.95 20.98h-66.87m66.87 0-2.06 22.28m4-43.26h64.94m-64.93 0h-64.93m64.93 0L693 532m63.1 19.8V532m0 0H693m63.1 0v-18.72M693 532l1.74-18.72M693 532h-63.1m64.84-18.72h61.36m-61.37 0h-61.36m-11.02 59.5h-66.88m66.88 0 3.89-20.98m-70.77 20.98 5.83-20.98m0 0h64.94m-64.94 0 5.5-19.8m59.44 19.8 3.66-19.8m0 0h-63.1m63.1 0 3.47-18.72M566.81 532l5.2-18.72m0 0h61.36m265 105.48h-71.14m71.14 0-4.4-23.7m4.4 23.7 4.68 25.26m-75.82-25.26-2.2-23.7m2.2 23.7 2.35 25.26m-2.35-25.26H756.1m68.94-23.7h68.94m-68.94 0H756.1m0 23.7h-71.14m71.14 0v-23.7m0 23.7v25.26m-71.14-25.26 2.2-23.7m-2.2 23.7-2.34 25.26m4.54-48.96h68.94M966.1 88.9l-2.45-1.75m2.45 1.75 2.53 1.37m-2.53-1.37-26.42 11.35m0 0-2.15-2.08m2.15 2.08 2.2 1.65m-2.2-1.65L913.3 111.5m24.23-13.33-2.08-2.63m2.08 2.63 26.12-11.02m-26.12 11.02-26.06 10.85m52.18-21.87-2.4-2.21m-47.95 26.56-1.83-2.48m1.83 2.48 1.88 1.97m-1.88-1.97L887 122.6m0 0-1.52-2.94m1.52 2.94 1.56 2.36m-3.08-5.3-1.48-3.68m1.48 3.68 26.01-10.65m0 0-1.78-3.1m66.6 4.03-27.47-3.52m27.47 3.52-2.46-14.92m2.46 14.92 27.46 3.08m-27.46-3.08 2.53 15.16m-30-18.68-2.36-2.1m2.36 2.1 2.21 15.23m-2.2-15.23-27.7 11.44m25.33-13.54-2.32-1.1m2.32 1.1 27.37-9.3m-27.37 9.3-27.36 12.08m54.73-21.38-2.61-3.68m2.6 3.68 27.16 2.93m-29.76-6.6-2.6-1.1m2.6 1.1-27.08 11.86m27.08-11.87 27.05-8.2m-54.13 20.07-2.26-1.32m2.26 1.32-27.02 11.85m24.76-13.17 26.75-11.63m-26.75 11.63-26.7 11.57m53.45-23.2 26.8-11.69m-74.3 39.29-2.03-1.46m2.03 1.46 2.08 1.98m-2.08-1.98-27.66 13.01m0 0-1.68-2.3m1.68 2.3 1.73 2.28m-1.73-2.28-27.6 13.04m25.92-15.35-1.64-1.7m1.64 1.7 27.3-12.16m-27.3 12.16-27.25 12.72m54.56-24.88-1.99-1.34m0 0-1.93-1.6m1.93 1.6-26.97 11.8m0 0-1.6-1.9m1.6 1.9-26.91 11.78m25.3-13.68 26.65-11.5m-26.64 11.5-26.6 11.4m3.94 7.55-1.34-2.63m1.34 2.63-27.47 3.18m0 0-1-3.6m0 0-.98-3.5m.98 3.5 27.13-2.2m0 0-1.31-2.65m0 0-1.28-2.28m1.28 2.28-26.8 1.35m0 0-.95-3.43m0 0 26.47-.2m119.44 4.46-28.1-3.37m28.1 3.37-2.57-15.72m2.57 15.72 2.64 16.28m-30.74-19.65.05.38 2.26 15.48m-2.31-15.86-2.26-15.8m2.26 15.8-28.11-4.22m25.85-11.58 27.79 3.45m-27.79-3.45-27.82-1.81m1.97 13.39-28.21 2.25m28.2-2.25-1.96-13.4m1.97 13.4 1.99 15.27m-30.2-13.02-1.77-2.33m1.77 2.33 1.76 7.04m-3.53-9.37 28-13.31m69.87 50.82-3.1-4.18m3.1 4.18 3.19 4.3m-3.19-4.3h-29.62m29.62 0h29.63m-59.25 0-2.71-4.18m2.71 4.18 2.79 4.3m-2.79-4.3h-29.62m26.9-4.18-2.64-4.08m2.65 4.08h29.23m-29.23 0H931.5m58.47 0-3.02-4.08m3.02 4.08h29.24m-32.26-4.08-2.92-5.3m2.92 5.3H958.1m28.86 0h28.86m-57.72 0-2.49-9.09m2.5 9.09h-28.87m26.37-9.09 28.43 3.8m-28.43-3.8-28.43-4.81m56.86 8.6 28.46 1.33m-78.66 12.23-2.33-4.18m2.33 4.18 2.39 4.3m-2.4-4.3h-29.62m0 0-1.93-4.18m1.93 4.18 2 4.3m-2-4.3H874.6m27.69-4.18h29.23m-29.23 0-29.18-5.78m29.18 5.78-1.82-9.85m31.05 9.85-2.26-4.08m0 0-28.8-5.77m28.8 5.77-2.07-13.9m-26.72 8.13-1.72-14.1m1.72 14.1-28.86-1.67m27.14-12.44 28.44 5.98m-28.44-5.97-28.62 9.44m4.47 18.7h-29.62m29.62 0-1.5-9.97m-28.12 9.96-1.16-4.18m0 0-1.14-4.08m1.14 4.08 29.29-5.78m0 0-1.5-5.74m0 0-1.48-3m1.48 3-28.93 7.44m0 0-1.1-3.97m0 0 28.55-6.46m129.42 27.4-3.27-4.41m3.27 4.41 3.36 4.54m-3.36-4.53h-30.43m0 0-2.86-4.42m2.86 4.41 2.94 4.54m-2.94-4.53h-30.43m27.57-4.42h30.02m-30.02 0h-30.02m2.45 4.41-2.45-4.41m2.45 4.41 2.52 4.54m-2.52-4.53h-30.43m0 0-2.04-4.42m2.04 4.41 2.1 4.54m-4.14-8.95h30.02m77.34 23.35-3.65-4.94m3.65 4.94 3.77 5.08m-3.77-5.08h-32.18m32.18 0h32.19m-64.37 0-3.2-4.94m3.2 4.94 3.3 5.08m-3.3-5.08H949.2m28.98-4.94-3.11-4.8m3.1 4.8h31.74m-31.73 0h-31.73m63.46 0-3.56-4.8m3.56 4.8h31.72m-35.28-4.8-3.46-4.66m3.46 4.67h-31.28m31.28 0h31.28m-62.56 0-3.03-4.67m3.03 4.67H943.8m28.25-4.67h30.85m-30.85 0H941.2m61.7 0h30.85m-84.54 14.4-2.75-4.94m2.75 4.94 2.82 5.08m-2.82-5.08h-32.19m0 0-2.29-4.94m2.29 4.94 2.35 5.08m-2.35-5.08h-32.18m29.9-4.94-2.23-4.8m2.22 4.8h31.73m-31.73 0h-31.72m63.45 0-2.66-4.8m0 0-2.6-4.66m2.6 4.67H912.5m0 0-2.16-4.67m2.16 4.67h-31.28m29.12-4.67h30.85m-30.85 0H879.5m5.34 14.4-1.83-4.94m1.83 4.94h-32.19m0 0-1.37-4.94m0 0-1.33-4.8m1.33 4.8h31.73m0 0-1.78-4.8m0 0-1.73-4.66m1.73 4.67h-31.28m0 0-1.3-4.67m0 0h30.85m141.71 24.7-3.87-5.22m3.87 5.23 4 5.38m-4-5.38h-33.14m0 0-3.39-5.23m3.4 5.23 3.49 5.38m-3.5-5.38h-33.14m29.75-5.23h32.66m-32.66 0h-32.65m2.9 5.23-2.9-5.23m2.9 5.23 3 5.38m-3-5.38H921.8m0 0-2.43-5.23m2.42 5.23 2.5 5.38m-4.92-10.61h32.66m85.91 27.8-4.38-5.91m4.38 5.9 4.52 6.1m-4.52-6.1h-35.23m35.23 0h35.23m-70.46 0-3.83-5.9m3.83 5.9 3.95 6.1m-3.95-6.1h-35.23m31.4-5.9-3.71-5.72m3.71 5.72h34.68m-34.68 0H964.2m69.36 0-4.24-5.72m4.24 5.72h34.69m-38.93-5.72-4.11-5.56m4.11 5.56h-34.15m34.15 0h34.15m-68.3 0-3.6-5.56m3.6 5.56h-34.15m30.55-5.56h33.64m-33.64 0h-33.64m67.28 0h33.63m-91.36 17.19-3.28-5.91m3.28 5.9 3.39 6.1m-3.39-6.1h-35.23m0 0-2.74-5.9m2.74 5.9 2.82 6.1m-2.82-6.1h-35.23m32.5-5.9-2.66-5.72m2.65 5.72h34.69m-34.69 0h-34.68m69.37 0-3.18-5.72m0 0-3.1-5.56m3.1 5.56h-34.16m0 0L924.3 214m2.57 5.56h-34.15m31.58-5.56h33.64m-33.64 0h-33.64m6.37 17.19-2.19-5.91m2.19 5.9h-35.23m0 0-1.64-5.9m0 0-1.6-5.72m1.6 5.72h34.68m0 0-2.12-5.72m0 0-2.06-5.56m2.06 5.56h-34.15m0 0-1.54-5.56m0 0h33.63m156.47 29.57-4.66-6.3m4.66 6.3 4.74 6.4.08.1m-4.82-6.5h-36.38m0 0-4.08-6.3m4.08 6.3 4.22 6.5m-4.22-6.5h-36.38m32.3-6.3h35.8m-35.8 0h-35.8m3.5 6.3-3.5-6.3m3.5 6.3 3.62 6.5m-3.62-6.5H938m0 0-2.92-6.3m2.92 6.3 3 6.5m-5.92-12.8h35.8m96.53 33.67h-38.91m38.91 0-5.33-7.2m5.33 7.2h38.91m-38.91 0 5.52 7.44m-44.43-7.44-4.66-7.2m4.66 7.2 4.83 7.44m-4.83-7.44h-38.91m34.25-7.2h38.24m-38.24 0h-38.25m38.25 0-4.51-6.95m42.75 6.95-5.15-6.95m5.15 6.95h38.25m-43.4-6.95h-37.6m37.6 0-4.98-6.72m4.98 6.72h37.6m-75.2 0-4.36-6.72m4.36 6.72h-37.6m33.24-6.72h36.98m-36.98 0h-36.98m73.96 0h36.98m-99.34 20.87-.16-.28-3.84-6.92m4 7.2h-38.92m38.92 0 4.14 7.44m-43.06-7.44-3.33-7.2m3.33 7.2h-38.91m38.91 0 3.45 7.44m-6.78-14.63-3.22-6.96m3.22 6.95h38.25m-38.25 0h-38.25m76.5 0-3.87-6.95m0 0-3.73-6.72m3.74 6.72h-37.6m0 0-3.12-6.72m3.11 6.72h-37.6m34.49-6.72h36.98m-36.98 0h-36.98m7.73 20.87-2.66-7.2m2.66 7.2h-38.91m0 0-2-7.2m0 0-1.93-6.95m1.93 6.95h38.25m0 0-2.58-6.95m0 0-2.49-6.72m2.49 6.72h-37.6m0 0-1.87-6.72m0 0h36.98m174.62 36.03h-40.32m40.32 0-5.72-7.72m5.72 7.72 5.93 8m-46.25-8-5-7.72m5 7.72 5.19 8m-5.19-8h-40.31m35.31-7.72h39.6m-39.6 0h-39.6m4.29 7.72h-40.32m40.32 0-4.3-7.72m4.3 7.72 4.44 8m-44.76-8-3.58-7.72m3.58 7.72 3.7 8m-7.28-15.72h39.6m110.03 41.59h-43.45m43.45 0-6.63-8.95m6.63 8.95h43.46m-43.46 0 6.9 9.3m-50.35-9.3-5.81-8.95m5.81 8.95 6.03 9.3m-6.03-9.3h-43.46m37.65-8.95h42.63m-42.63 0h-42.63m42.63 0-5.59-8.62m48.22 8.62-6.39-8.62m6.39 8.62h42.62m-49.01-8.62h-41.83m41.83 0-6.15-8.3m6.15 8.3h41.83m-83.66 0-5.38-8.3m5.38 8.3h-41.82m36.44-8.3h41.06m-41.06 0h-41.06m82.12 0h41.06m-108.8 25.87h-43.45m43.45 0-4.98-8.95m4.98 8.95 5.17 9.3m-48.62-9.3-4.15-8.95m4.15 8.95h-43.46m43.46 0 4.3 9.3m-8.45-18.25h42.62m-42.62 0H926.6m42.63 0-4-8.62m46.62 8.62-4.78-8.62m0 0h-41.83m41.83 0-4.62-8.3m-37.21 8.3-3.85-8.3m3.85 8.3H923.4m37.98-8.3h41.06m-41.06 0h-41.06m9.6 25.87h-43.46m43.45 0-3.32-8.95m-40.13 8.95-2.5-8.95m0 0h42.63m-42.62 0-2.4-8.62m45.02 8.62-3.19-8.62m0 0h-41.83m41.83 0-3.08-8.3m-38.75 8.3-2.3-8.3m0 0h41.05m197.49 44.86h-45.22m45.22 0-7.18-9.68m7.18 9.68 7.47 10.08m-52.69-10.08-6.28-9.68m6.28 9.68 6.54 10.08m-6.54-10.08h-45.21m38.93-9.68h44.32m-44.32 0H1022m5.39 9.68h-45.22m45.22 0-5.39-9.68m5.39 9.68 5.6 10.08m-50.82-10.08-4.48-9.68m4.48 9.68 4.67 10.08m-9.15-19.76H1022m127.69 52.68h-49.2m49.2 0-8.49-11.44m8.49 11.44h49.2m-49.2 0 8.86 11.96m-58.06-11.96-7.42-11.44m7.42 11.44 7.76 11.96m-7.76-11.96h-49.2m41.78-11.44h48.13m-48.13 0h-48.14m48.14 0-7.11-10.96m55.24 10.96-8.12-10.96m8.12 10.96h48.14m-56.26-10.96h-47.12m47.12 0-7.79-10.51m7.79 10.5h47.12m-94.24 0-6.82-10.5m6.82 10.5h-47.13m40.31-10.5h46.15m-46.15 0h-46.15m92.3 0h46.15m-120.15 32.91h-49.2m49.2 0-6.36-11.44m6.36 11.44 6.65 11.96m-55.85-11.96-5.3-11.44m5.3 11.44h-49.2m49.2 0 5.54 11.96m-10.84-23.4h48.14m-48.14 0h-48.14m48.14 0-5.08-10.96m53.22 10.96-6.1-10.96m0 0h-47.12m47.12 0-5.84-10.51m-41.28 10.5-4.87-10.5m4.87 10.5H944.6m42.25-10.5H1033m-46.15 0H940.7m12.2 32.91h-49.2m49.2 0-4.25-11.44m-44.95 11.44-3.19-11.44m0 0h48.14m-48.14 0-3.04-10.96m51.18 10.96-4.06-10.96m0 0h-47.12m47.12 0-3.9-10.51m-43.22 10.5-2.92-10.5m0 0h46.15m227.13 57.39h-51.47m51.47 0-9.28-12.52m9.28 12.52 9.71 13.1m-61.18-13.1-8.11-12.52m8.11 12.52 8.5 13.1m-8.5-13.1h-51.47m43.36-12.52h50.3m-50.3 0h-50.31m6.95 12.52h-51.46m51.46 0-6.95-12.52m6.95 12.52 7.29 13.1m-58.75-13.1-5.8-12.52m5.8 12.52 6.07 13.1m-11.87-25.62h50.31m151.69 68.92h-56.69m56.69 0-11.23-15.15m11.23 15.15h56.69m-56.69 0 11.81 15.93m-68.5-15.93-9.83-15.15m9.83 15.15 10.33 15.93m-10.33-15.93h-56.69m46.86-15.15h55.29m-55.29 0h-55.28m55.28 0-9.35-14.41m64.64 14.41-10.68-14.41m10.68 14.41h55.29m-65.97-14.41h-53.96m53.96 0-10.18-13.74m10.18 13.74h53.95m-107.91 0-8.9-13.74m8.9 13.74h-53.95m45.05-13.74h52.68m-52.68 0h-52.68m105.36 0h52.68m-133.97 43.3h-56.7m56.7 0-8.42-15.15m8.42 15.15 8.85 15.93m-65.55-15.93-7.01-15.15m7.01 15.15h-56.69m56.69 0 7.39 15.93m-14.4-31.08h55.29m-55.29 0h-55.29m55.29 0-6.68-14.41m61.97 14.41-8.02-14.41m0 0h-53.95m53.95 0-7.63-13.74m-46.32 13.74-6.36-13.74m6.36 13.74h-53.95m47.59-13.74h52.68m-52.68 0h-52.68m16.04 43.3h-56.69m56.7 0-5.62-15.15m-51.08 15.15-4.2-15.15m0 0h55.28m-55.29 0-4-14.41m59.29 14.41-5.34-14.41m0 0h-53.95m53.95 0-5.1-13.74m-48.85 13.74-3.82-13.74m0 0h52.68m267.06 76.02h-59.72m59.72 0-12.44-16.79m12.44 16.8 13.13 17.7m-72.85-17.7-10.89-16.8m10.89 16.8 11.48 17.7m-11.48-17.7h-59.72m48.83-16.8h58.17m-58.17 0h-58.17m9.34 16.8h-59.73m59.73 0-9.34-16.8m9.34 16.8 9.84 17.7m-69.57-17.7-7.77-16.8m7.77 16.8 8.21 17.7m-15.98-34.5h58.16m186 94h-66.87m66.87 0-15.55-20.98m15.55 20.98h66.88m-66.88 0 16.52 22.28m-83.39-22.28-13.61-20.98m13.61 20.98 14.45 22.28m-14.45-22.28h-66.88m53.27-20.98h64.93m-64.93 0h-64.93m64.93 0-12.84-19.8m77.77 19.8-14.67-19.8m14.67 19.8h64.93m-79.6-19.8h-63.1m63.1 0-13.87-18.72m13.87 18.72h63.09m-126.19 0-12.14-18.72m12.14 18.72h-63.1m50.96-18.72h61.37m-61.37 0h-61.36m122.73 0h61.36m-151.02 59.5-.13-.24-11.53-20.74m11.66 20.98h-66.87m66.87 0 12.39 22.28m-79.26-22.28-9.72-20.98m9.72 20.98h-66.88m66.88 0 10.32 22.28m-20.04-43.26h64.93m-64.93 0h-64.94m64.94 0-9.18-19.8m74.11 19.8-11.01-19.8m0 0h-63.1m63.1 0-10.4-18.72m-52.7 18.72-8.66-18.72m8.66 18.72h-63.09m54.43-18.72h61.36m-61.36 0h-61.37m22.05 59.5h-66.87m66.87 0-7.78-20.98m-59.1 20.98-5.83-20.98m0 0h64.93m-64.93 0-5.5-19.8m70.43 19.8-7.33-19.8m0 0h-63.1m63.1 0-6.94-18.72M945.39 532l-5.2-18.72m0 0h61.36m323.63 105.48h-71.13m71.13 0-17.56-23.7m17.56 23.7 18.72 25.26m-89.85-25.26-15.37-23.7m15.37 23.7 16.38 25.26m-16.38-25.26h-71.14m55.77-23.7h68.94m-68.94 0h-68.94m13.17 23.7h-71.13m71.13 0-13.17-23.7m13.17 23.7 14.04 25.26m-85.17-25.26-10.98-23.7m10.98 23.7 11.7 25.26m-22.68-48.96h68.94m-45.32-531.95-26.37 1.94m26.37-1.94-3.94-13.99m3.94 13.99 4.02 14.26m-30.39-12.32-3.65-14.15m3.65 14.15 3.73 14.4m-3.73-14.4-26.23-2.73m22.58-11.42 26.08-1.78m-26.08 1.78-25.95-2.7m25.95 2.7-3.57-13.9m29.65 12.12-3.86-13.7m-44.8 26.9-26.24-2.8m26.24 2.8-3.37-14.12m3.37 14.11 3.45 14.38m-29.69-17.17-3.3-5.66m3.3 5.66 3.16 14.33m-6.46-19.99-3.32-1.26m3.32 1.26 26.17-5.66m0 0-3.5-6.21m76.12 79.94-27.57 2.34m27.57-2.34-4.31-15.15m4.31 15.15 27.59-2.8m-27.59 2.8 4.3 15.09.1.36m-31.97-13.11-4-15.22m4 15.22 4.08 15.5m-4.08-15.5-27.42-2.84m23.42-12.38 27.26-2.27m-27.26 2.27-27.1-2.81m27.1 2.81-3.9-14.94m31.16 12.67-4.2-14.85m4.2 14.85 27.29-2.75m-31.49-12.1-26.96 2.18m26.96-2.18-4.12-14.56m4.12 14.56 26.98-2.71m-53.94 4.9-3.82-14.67m3.82 14.66-26.81-2.79m22.99-11.87 26.66-2.08m-26.66 2.08-26.51-2.76m53.17.68 26.69-2.67m-69.05 46.73-27.42-2.93m27.42 2.93-3.68-15.2m3.68 15.2 3.71 15.23.07.26m-31.2-18.42.04.17 3.42 15.29m-3.46-15.46-3.38-15.16m3.38 15.16-27.44-2.72m24.06-12.44 27.12 2.9m-27.12-2.9-27.14-2.73m27.14 2.73-3.31-14.88m30.43 17.78-3.61-14.92m0 0-26.82-2.86m26.82 2.86-3.52-14.63m-23.3 11.77-3.23-14.6m3.23 14.6-26.83-2.73m23.6-11.88 26.53 2.84m-26.53-2.84-26.54-2.72m9.02 44.65-27.46-2.75m27.46 2.75-3.08-15.17m-24.38 12.42-2.77-15.07m0 0 27.15 2.65m-27.15-2.65-2.7-14.8m29.85 17.45-3-14.88m0 0-26.86-2.57m26.86 2.57-2.94-14.6m-23.92 12.03-2.84-4.58m0 0 26.76-7.45m127.78 82.01 4.97 5.3m-4.97-5.3-28.18 1.42m28.18-1.42-4.51-15.76m-23.67 17.18 4.66 3.88m-4.66-3.88-4.22-14.78m4.22 14.78-28.08-1.85m23.86-12.93 27.89-2.4m-27.89 2.4-27.72-2.86m3.86 15.79 4.25 5.73m-4.25-5.73-28.06-3m28.06 3-3.86-15.8m-24.2 12.8-3.54-15.75m3.54 15.74 3.82 8.74m-7.36-24.48 27.74 2.96m80.96 33.75-5.43-4.18m5.43 4.18 5.58 4.3m-5.58-4.3h-29.62m29.62 0h29.63m-59.25 0-5.04-4.18m5.04 4.18 5.18 4.3m-5.18-4.3h-29.62m24.58-4.18-4.91-4.08m4.91 4.08h29.23m-29.23 0h-29.24m58.47 0-5.28-4.08m5.28 4.08h29.24m-34.52-4.08-5.16-3.97m5.16 3.97h-28.86m28.86 0h28.85m-57.71 0-4.79-3.97m4.79 3.97h-28.86m24.07-3.97h28.49m-28.49 0h-28.49m56.98 0h28.49m-71.86 12.23-4.66-4.18m4.66 4.18 4.77 4.3m-4.77-4.3h-29.63m0 0-4.26-4.18m4.26 4.18 4.38 4.3m-4.38-4.3h-29.62m25.36-4.18-4.16-4.08m4.16 4.08h29.23m-29.23 0h-29.24m58.47 0-4.53-4.08m0 0-4.42-3.97m4.42 3.97h-28.86m0 0-4.05-3.97m4.05 3.97h-28.85m24.8-3.97h28.49m-28.49 0h-28.49m11.34 12.23-3.88-4.18m3.88 4.18h-29.62m0 0-3.49-4.18m0 0-3.4-4.08m3.4 4.08h29.23m0 0-3.77-4.08m0 0-3.69-3.97m3.69 3.97h-28.86m0 0-3.32-3.97m0 0h28.49m141.13 20.94-5.72-4.41m5.72 4.41 5.89 4.54m-5.89-4.53h-30.43m0 0-5.31-4.42m5.31 4.41 5.47 4.54m-5.47-4.53h-30.43m25.12-4.42h30.02m-30.02 0h-30.03m4.91 4.41-4.91-4.41m4.91 4.41 5.05 4.54m-5.05-4.53h-30.43m0 0-4.5-4.42m4.5 4.41 4.63 4.54m-9.13-8.95h30.02m90.33 23.35-6.4-4.94m6.4 4.94h-32.19m32.19 0h32.18m-32.18 0 6.59 5.08m-38.78-5.08-5.94-4.94m5.94 4.94 6.12 5.08m-6.12-5.08h-32.18m26.24-4.94-5.78-4.8m5.78 4.8h31.73m-31.73 0h-31.73m63.46 0-6.22-4.8m6.22 4.8H1232m-37.94-4.8-6.05-4.66m6.05 4.67h-31.29m31.29 0h31.28m-62.57 0-5.61-4.67m5.61 4.67h-31.28m25.67-4.67h30.85m-30.85 0h-30.85m61.7 0h30.85m-76.55 14.4-5.49-4.94m5.49 4.94 5.65 5.08m-5.65-5.08h-32.18m0 0-5.03-4.94m5.03 4.94 5.17 5.08m-5.17-5.08h-32.19m27.16-4.94-4.89-4.8m4.89 4.8h31.72m-31.72 0h-31.73m63.45 0-5.33-4.8m0 0-5.18-4.66m5.18 4.67h-31.28m0 0-4.75-4.67m4.75 4.67h-31.28m26.53-4.67h30.85m-30.85 0h-30.86m13.34 14.4-4.57-4.94m4.57 4.94h-32.18m0 0-4.12-4.94m0 0-4-4.8m4 4.8h31.73m0 0-4.44-4.8m0 0-4.33-4.66m4.33 4.67h-31.29m0 0-3.89-4.67m0 0h30.85m155.45 24.7h-33.14m33.14 0-6.78-5.22m6.78 5.23 6.99 5.38m-40.13-5.38-6.2-5.16-.1-.07m6.3 5.23 6.49 5.38m-6.49-5.38h-33.14m26.84-5.23h32.66m-32.66 0h-32.65m5.81 5.23-5.81-5.23m5.81 5.23 5.99 5.38m-5.99-5.38h-33.14m0 0-5.33-5.23m5.33 5.23 5.49 5.38m-10.82-10.61h32.66m101.36 27.8h-35.23m35.23 0-7.66-5.91m7.66 5.9h19.27m-19.27 0 7.91 6.1m-43.14-6.1-7.11-5.9m7.11 5.9 7.34 6.1m-7.34-6.1h-35.23m28.12-5.9h34.68m-34.68 0h-34.68m34.68 0-6.9-5.72m41.58 5.72-7.42-5.72m7.42 5.72h34.3m-41.72-5.72h-34.16m34.16 0-7.2-5.56m7.2 5.56h34.15m-68.31 0-6.68-5.56m6.68 5.56h-34.15m27.47-5.56h33.64m-33.64 0h-33.64m67.28 0h33.63m-81.81 17.19h-35.23m35.23 0-6.56-5.91m6.56 5.9 6.78 6.1m-42.01-6.1-6.02-5.9m6.02 5.9h-35.23m35.23 0 6.21 6.1m-12.23-12-5.73-5.62-.1-.1m5.83 5.72h34.69m-34.69 0h-34.68m69.37 0-6.37-5.72m0 0-.19-.18-5.98-5.38m6.17 5.56h-34.15m0 0-5.66-5.56m5.66 5.56h-34.15m28.49-5.56h33.64m-33.64 0h-33.64m15.92 17.19-5.47-5.91m5.47 5.9h-35.23m0 0-4.92-5.9m0 0-4.78-5.72m4.78 5.72h34.68m0 0-5.3-5.72m0 0-5.15-5.56m5.15 5.56h-34.16m0 0-4.63-5.56m0 0h33.64m136.53 29.57-7.58-6.3m7.58 6.3h30.47m-30.47 0h-36.38m36.38 0 7.83 6.5m-15.41-12.8h35.8m-35.8 0h-35.79m71.59 0 4.39 3.4m-4.39-3.4h6.88m-2.49 3.4-2.14 2.9m2.14-2.9 2.49-3.4m-71.48 6.3h-36.38m36.38 0-6.99-6.3m6.99 6.3 7.23 6.5m-43.61-6.5-6.41-6.3m6.41 6.3 6.63 6.5m-13.04-12.8h35.8m59.29 19.52h4.11m-4.11 0 2.14 1.78m-2.14-1.78-8.09-6.72m8.09 6.72h-37.6m29.51-6.72h17.86m-17.86 0h-36.98m54.84 0-3.52 4.8m3.52-4.8 4.71-6.4.07-.1m-36.43 27.37 3.89 3.5m-3.89-3.5h-38.91m38.91 0-7.99-7.2m7.99 7.2h10.33m-49.24 0-7.33-7.2m7.33 7.2h-38.91m38.91 0 7.59 7.44m-14.92-14.63h38.25m-38.25 0h-38.25m38.25 0-7.08-6.96m45.33 6.95-7.73-6.95m7.73 6.95h26.28m-34.01-6.95h-37.6m37.6 0-7.47-6.72m-30.13 6.72-6.85-6.72m6.85 6.72h-37.6m30.75-6.72h36.98m-36.98 0h-36.98m19.33 20.87h-38.92m38.92 0-6.67-7.2m-32.25 7.2-5.99-7.2m0 0h38.24m-38.24 0-5.8-6.95m44.04 6.95-6.43-6.95m0 0h-37.61m37.61 0-6.23-6.72m-31.38 6.72-5.6-6.72m0 0h36.98m73.69 36.03-7.86-7.72m7.86 7.72 8.16 8m-8.16-8 18.08-7.72m-25.94 0h25.94m0 0 9.27-3.95m141.93-39.05-43.49-5.95m43.49 5.95-11.59-11.24m11.59 11.24 43.41 6.34m-43.41-6.34 11.45 22.65m-54.94-28.6-11.11-3.66m11.11 3.66-20.22-3.28m20.22 3.28 10.71 21.33m-21.82-24.99-2.36.1m2.36-.1 12.94-.49m-22.05.87 6.75-.28m-6.75.28-5.4-.87m12.15.6-.88-.6m16.18 0 17.46-.66m-17.46.66h-16.18m33.64-.66 12.61-.48m-12.61.48-7.97-5.06m20.58 4.58 21.1-.07m0 0 21.85-.07m-21.85.07-7.53-4.51m29.38 4.44 12.96.2m-12.96-.2 12.05 17.72m.91-17.51 29.95.47m-29.95-.47-8.19-4.65m38.14 5.12 6.33.44m-6.33-.44 12.56 22.59m-6.23-22.15 2.28.16m-2.28-.16-10.32-5.56m12.6 5.72 34.14 2.36m-34.14-2.36h32.69m1.45 2.36 4.11.5m-4.11-.5 13.13 26.01m-9.02-25.51-5.56-2.86m5.56 2.86 25.36 3.04m0 0 13.13 1.58m-13.13-1.58h15.8m-2.67 1.58 7.48.78m-7.48-.78 13.88 26.21m-6.4-25.43-4.81-2.36m4.81 2.37 35.12 3.67m-289.18-14.83-5.72 2.78m5.72-2.78-47.8 97.58m47.8-97.58 17.85 2.89m-17.85-2.9 9.86 21.88m-57.66 75.71 9.48 9.3m-9.48-9.3-9.12-8.95m9.12 8.95h-43.46m83.8 39.58-10.71-10.5m10.71 10.5 49.5-49.08m-49.5 49.08h-47.13m47.13 0 11.17 10.97m-21.88-21.47-10.28-10.09m10.28 10.08h-46.15m46.15 0 49-60.24m-59.28 50.16-9.87-9.68m9.87 9.68 48.56-72.03m-58.43 62.35 48.18-85.02m-66.78 66.76-8.79-8.62m8.79 8.62h-42.63m42.63 0 46.26-83.45m-55.05 74.83-8.45-8.3m8.45 8.3h-41.82m41.82 0 34.98-47.54m-43.43 39.24 24.08-21.76m-24.08 21.76h-41.06m15.67 16.92h-42.63m42.63 0-7.98-8.62m7.98 8.62 8.29 8.95m80.6-92.4 4.71-2.29m-4.71 2.3-2.66 3.6m7.37-5.9.23-.11m0 0-7.8-5.61m31.37 5.72h11.27m-79.2 47.06 1.55-1.4m-1.55 1.4-4.89 2.1m6.44-3.5 7.96-7.2m0 0 5.73-5.17m0 0 1.97-1.78m0 0 2.14-1.93m-60.53 65.11h-43.45m0 0-7.47-8.95m0 0-7.18-8.62m41.83 0h-41.83m41.83 0-7.69-8.3m-34.14 8.3-6.92-8.3m0 0h41.06m225.59-13.77-45.07-7.46m45.07 7.46-11.96-22.3m11.96 22.3 12.48 22.16m-57.55-29.62-11.12-22.11m11.12 22.1 2.58 5.3.11.22 8.83 18.12m-11.52-23.63-45.19-5.94m34.07-16.17 44.23 7.27m-44.23-7.27-44.32-6.5m10.25 22.67-10.25-22.67m10.25 22.67 10.72 21.87m-95.15 60.25h-46.15m46.15 0 9.73 10.5m85.42-70.75 11.21 21.67m-11.21-21.67 45.99 7.7m-34.78 13.97 46.8 9.9m-46.8-9.9 9.81 60.05m111.37 7.14-48.53-12.45m48.53 12.45L1431 353.81m14.13 23.86 48.95 4.3m-48.95-4.3 15.26 16.26m-63.79-28.71-13.25-21.8m13.25 21.8 13.94 20.58m-13.94-20.58-50.12 16.75m36.87-38.55 47.65 10.4m-47.65-10.4-49.59 27.1m49.59-27.1-12.6-23.04m60.25 33.44-13.44-25.16m13.44 25.15 47.37 13.57m-60.81-38.72-46.81-8.28m46.81 8.28-12.8-26.16m12.8 26.16 46.51 12.23m-93.32-20.5-12.02-23.88m0 0 46.03 6m0 0 45.61 12.17m-103.89 67.3h-49.2m49.2 0-12.72-11.45m12.72 11.44 13.3 11.96m-62.5-11.96-11.66-11.44m11.66 11.44h-49.2m49.2 0 12.19 11.96m-23.85-23.4h48.14m-48.14 0h-48.14m10.6 11.44h-49.19m49.19 0-10.6-11.44m-38.59 11.44-9.55-11.44m0 0h48.14m-48.14 0-9.14-10.96m57.28 10.96-10.16-10.96m0 0h-47.12m0 0-8.76-10.51m305.18 57.39-51.4-1.08m51.4 1.08-16.23-12.52m16.23 12.52 16.99 13.1m-68.39-14.18-14.68-19.57m14.68 19.57 15.72 14.18m-15.72-14.18-51.53 1.08m36.85-20.65 49.85 8.13m-49.85-8.13-50.76 8.13m13.91 12.52h-51.47m51.47 0-13.91-12.52m13.91 12.52 14.57 13.1m-66.04-13.1-12.75-12.52m12.75 12.52 13.36 13.1m-26.11-25.62h50.31m170.35 53.77 19.64 15.15h-56.69m37.05-15.15h-55.29m55.29 0h55.28m-55.28 0-18.7-14.41m-18.35 29.56-18.24-15.15m18.24 15.15 19.19 15.93m-19.19-15.93h-56.69m38.45-15.15h-55.29m55.29 0-17.36-14.41m53.95 0h-53.95m53.95 0-17.82-13.74m17.82 13.74h53.95l-19.09-13.74m-88.81 13.74-16.54-13.74m16.54 13.74h-53.96m37.42-13.74h52.67m-52.67 0h-52.68m105.35 0h52.68m-109.9 43.3h-56.69m56.69 0-16.84-15.15m16.84 15.15 17.72 15.93m-74.41-15.93-15.44-15.15m15.44 15.15h-56.69m56.69 0 16.24 15.93m-31.68-31.08h55.29m-55.29 0h-55.28m55.28 0-14.69-14.41m69.98 14.41-16.03-14.41m0 0h-53.95m53.95 0-15.26-13.74m-38.69 13.74-13.99-13.74m13.99 13.74h-53.95m39.96-13.74h52.68m-52.68 0h-52.68m40.11 43.3h-56.69m56.69 0-14.03-15.15m-42.66 15.15-12.63-15.15m0 0h55.29m-55.29 0-12.02-14.41m67.31 14.41-13.36-14.41m0 0h-53.95m53.95 0-12.72-13.74m-41.23 13.74-11.45-13.74m0 0h52.68m309.32 76.02h-59.73m0 0-20.22-16.79m20.22 16.8 21.34 17.7h-61.37m40.03-17.7h-59.72m39.5-16.8h58.17m-58.17 0h-58.16m18.66 16.8h-59.72m59.72 0-18.66-16.8m18.66 16.8 19.69 17.7m-79.41-17.7-17.11-16.8m17.11 16.8 18.05 17.7m-35.16-34.5h58.17m81.16 73.02 23.34 20.98h-66.88m43.54-20.98h-64.93m64.93 0-22.01-19.8m22.01 19.8h64.94m-108.48 20.98-21.39-20.98m21.39 20.98h-66.88m66.88 0 22.71 22.28m-44.1-43.26h-64.93m64.93 0-20.17-19.8m63.09 0h-63.09m63.09 0-20.8-18.72m20.8 18.72h63.1m-126.19 0-19.07-18.72m19.07 18.72h-63.1m44.03-18.72h61.36m-61.36 0h-61.37m55.12 59.5h-66.87m66.87 0-19.44-20.98m-47.43 20.98-17.5-20.98m0 0h64.93m-64.93 0-16.51-19.8m81.44 19.8-18.34-19.8m0 0h-63.1m63.1 0-17.34-18.72M1323.97 532l-15.6-18.72m0 0h61.36m239.99 105.48h-71.13m0 0-24.15-23.7m0 0h68.93m-301.13-531.4-26.18-3.03m26.18 3.02-5.6-14.41m5.6 14.41 5.74 14.6m-31.92-17.62-5.33-14.36m5.33 14.36 5.45 14.56m-5.45-14.56-26.19-3.2m20.86-11.16 25.91 2.97m-25.91-2.97-25.91-3.13m25.91 3.13-5.21-14.16m31.12 17.13L1271.15 35m-41.28 22.43-26.23-2.36m26.23 2.36-5.05-14.3m5.05 14.3 5.17 14.52m-31.4-16.88-4.8-13.67m4.8 13.67 4.9 14.14m-9.7-27.81 25.98 1.74m-25.98-1.74-4.69-13.33m30.67 15.07-4.96-13.57m86.14 93.55-27.37-3m27.37 3-6.15-15.14m6.15 15.14 27.42 1.47m-27.42-1.47 6.29 15.3m-33.66-18.3-5.84-15.18m5.84 15.18 5.98 15.4m-5.98-15.4-27.36-3.28m21.52-11.9 27.06 3.04m-27.06-3.04-27.06-3.3m27.06 3.3-5.7-14.98m32.76 18.02-6.01-14.95m6.01 14.95 27.09 2.03m-33.1-16.98-26.75-3.07m26.75 3.07-5.86-14.78m5.86 14.78 26.77 2.63m-53.52-5.7-5.58-14.77m5.58 14.77-26.76-3.28m21.18-11.49 26.47 3.06m-26.47-3.06-26.47-3.24m52.94 6.3 26.46 2.81m-63.17 35.78-27.41-2.64m27.41 2.64-5.54-15.2m5.54 15.2 5.66 15.44m-33.07-18.08-5.22-15.32m5.22 15.32-27.6 2.29m27.6-2.3 5.34 15.72m-10.56-31.03 27.09 2.76m-27.09-2.76-27.29 2.35m27.29-2.35-5.11-15m32.2 17.76-5.4-14.96m0 0-26.8-2.8m26.8 2.8-5.29-14.73m-21.51 11.93-4.99-14.67m4.99 14.67-27 2.58m22.01-17.25 26.5 2.74m-26.5-2.74-26.72 2.77m14.44 44.51-27.6 2.65m27.6-2.65-4.91-15.26m-22.69 17.9-4.61-15.1m0 0 27.3-2.8m-27.3 2.8-4.51-14.81m31.81 12-4.82-14.76m0 0-26.99 2.76m26.99-2.76-4.71-14.48m-22.28 17.24-4.41-14.52m0 0 26.69-2.72m136.93 81.9-28.01-2.75m28.01 2.74-6.46-15.45m6.46 15.45 7.14 4.57m-35.15-7.31-6.13-15.6m6.13 15.6 6.66 7.3m-6.66-7.3-28.01-3.1m21.88-12.5 27.68 2.89m-27.68-2.9-27.68-3.24m5.8 15.75-28.06-2.1m28.06 2.1-5.8-15.75m5.8 15.75 6.18 10.4m-34.24-12.5-5.47-16.02m5.47 16.03 5.75 12.5m-11.22-28.53 27.73 2.37m91.63 38.4h-29.62m29.62 0-7.75-4.2m7.75 4.2h29.62m-29.62 0 7.96 4.29m-37.58-4.3-7.37-4.18m7.37 4.18 7.56 4.3m-7.56-4.3h-29.63m22.26-4.18h29.24m-29.24 0h-29.23m29.23 0-7.18-4.08m36.42 4.08-7.56-4.08m7.56 4.08h29.23m-36.79-4.08-.19-.1-7.17-3.87m7.36 3.97h-28.86m28.86 0h28.86m-57.72 0-6.99-3.97m6.99 3.97h-28.85m21.86-3.97h28.49m-28.49 0h-28.49m56.98 0h28.49m-65.07 12.23-6.97-4.18m6.97 4.18h-29.62m29.62 0 7.17 4.3m-36.79-4.3-6.59-4.18m6.59 4.18 6.77 4.3m-6.77-4.3h-29.62m23.03-4.18-6.42-4.08m6.42 4.08h29.24m-29.24 0h-29.24m58.48 0-6.8-4.08m0 0-6.63-3.97m6.63 3.97h-28.86m0 0-6.26-3.97m6.26 3.97h-28.86m22.6-3.97h28.49m-28.49 0h-28.49m18.14 12.23-6.21-4.18m6.21 4.18h-29.62m0 0-5.82-4.18m0 0-5.67-4.08m5.67 4.08h29.23m0 0-6.04-4.08m0 0-5.89-3.97m5.89 3.97h-28.86m0 0-5.52-3.97m0 0h28.49m152.78 20.94h-30.44m30.44 0-8.19-4.41m8.19 4.41 8.4 4.54m-38.84-4.53-7.77-4.42m7.77 4.41 7.99 4.54m-7.99-4.53h-30.43m22.66-4.42h30.02m-30.02 0h-30.02m7.36 4.41h-30.43m30.43 0-7.36-4.41m7.36 4.41 7.57 4.54m-38-4.53-6.85-4.36-.1-.06m6.95 4.41.3.2 6.85 4.34m-14.1-8.95h30.02m103.3 23.35h-32.18m32.18 0-9.14-4.94m9.14 4.94h32.19m-32.19 0 9.41 5.08m-41.59-5.08-8.69-4.94m8.69 4.94 8.94 5.08m-8.94-5.08h-32.18m23.49-4.94h31.73m-31.73 0h-31.72m31.72 0-8.44-4.8m40.17 4.8-8.89-4.8m8.89 4.8h31.73m-40.62-4.8h-31.28m31.28 0-8.64-4.66m8.64 4.67h31.29m-62.57 0-8.21-4.67m8.21 4.67h-31.28m23.07-4.67h30.85m-30.85 0h-30.85m61.7 0h30.85m-68.54 14.4h-32.19m32.19 0-8.23-4.94m8.23 4.94 8.47 5.08m-40.66-5.08-7.77-4.94m7.77 4.94h-32.18m32.18 0 8 5.08m-15.77-10.02h31.73m-31.73 0h-31.73m31.73 0-7.56-4.8m39.29 4.8-8-4.8m0 0h-31.29m31.29 0-7.78-4.66m-23.51 4.67-7.34-4.67m7.34 4.67h-31.28m23.94-4.67h30.85m-30.85 0h-30.85m21.34 14.4h-32.19m32.19 0-7.32-4.94m-24.87 4.94-6.57-4.73-.29-.2m0 0-6.56-4.73-.1-.07m6.66 4.8h31.73m0 0-7.11-4.8m0 0h-31.28m31.28 0-6.91-4.67m-24.37 4.67-6.48-4.67m0 0h30.85m169.17 24.7h-33.13m33.13 0-9.69-5.22m9.69 5.23 9.99 5.38m-43.12-5.38-9.21-5.23m9.21 5.23 9.48 5.38m-9.48-5.38h-33.14m23.93-5.23h32.65m-32.65 0h-32.65m8.72 5.23h-33.14m33.14 0-8.72-5.23m8.72 5.23 8.98 5.38m-42.12-5.38-8.24-5.23m8.24 5.23 8.48 5.38m-16.72-10.61h32.66m95.26 16.17H1405m34.15 0-10.28-5.56m10.28 5.56h34.16m-68.31 0-9.77-5.56m9.77 5.56h-34.15m24.38-5.56h33.64m-33.64 0h-33.64m67.28 0h33.64m-91.66 5.56h-34.15m34.15 0-9.26-5.56m-24.89 5.56-8.75-5.56m8.75 5.56h-34.16m25.41-5.56h33.64m-33.64 0h-33.64m16.72 11.28-8.49-5.72m0 0h-34.15m34.15 0-8.23-5.56m-25.92 5.56-7.72-5.56m0 0h33.64m248.06 44.97-43.35-5.32m43.35 5.32 43.36 4.5m-43.36-4.5 14.28 26.51m-57.63-31.83-43.32-6.38m43.32 6.38 13.64 26.46m-56.96-32.84-43.42-5.55m159.49 71.32-44.92-6.09m0 0-14.19-26.84m14.19 26.84 14.74 27.8m-28.93-54.64 41.07 5.24M1510.48 353l46.7 6.56-15.59-24.8M1510.48 353l-46.41-12.11m46.41 12.11-14.53-27.16m14.53 27.16 15.83 17.53m15.28-35.76 45.71 6.92m-45.71-6.92-45.64-8.93m-1.87 56.13-15.71-14.6m0 0 47.94 3.16m-47.94-3.15-14.3-26.5m62.24 29.65h48.14m-110.38-29.64-13.7-26.21m0 0 45.58 11.16m50.34 93.7h52.68M1439.27 78l-25.78-9m25.78 9-7.77-5.77m7.77 5.77 7.99 5.08m-33.77-14.08-7.52-5.02m7.52 5.02 7.73 4.34m-7.73-4.34-25.8-9.5m18.28 4.48 25.53 8.25m-25.53-8.25-25.54-8.83m25.54 8.83-7.3-5.7m32.83 13.95-7.55-6.44m-36.26-6.3-26.43 2.28m26.43-2.28-7.26-4.34m7.26 4.34 7.05 11.58m-33.48-9.3-6.51-13.12m6.51 13.12 6.66 13.34m-13.17-26.46 25.68 6.5m-25.68-6.5-6.66-7.18m32.34 13.68-7.05-4.99m99.16 46.7-27.98 7.44m27.98-7.43-8.57-5.65m8.57 5.65 8.43 11.58m-36.41-4.15-7.84-12.61m7.84 12.61 8.05 12.45m-8.05-12.45-27.9 6.42m20.06-19.03 27.25-.47m-27.25.47-27.54 5.75m27.54-5.75L1429.07 79m34.9 12.2-8.48-3.75m8.48 3.75 26.56 10.76m-35.04-14.5L1429.07 79m26.42 8.45-8.23-4.4m8.23 4.4 26.29 10.03M1429.07 79l-7.85-5.68m7.85 5.68-27.2 5.18m19.35-10.86 26.04 9.74m-26.04-9.74-26.48-2.27m52.52 12 26.03 9.25m-56.63 18.4-27.81 5.46m27.81-5.46-7.48-13.28m7.48 13.28 7.69 13.23m-35.5-7.77-7.14-13.83m7.14 13.83-27.74 4.59m27.74-4.59 7.32 13.87m-14.46-27.7 27.47-4.9m-27.47 4.9-27.41 4.16m27.41-4.16-6.98-13.7m34.45 8.8-7.31-13.25m0 0-27.14 4.44m27.14-4.44-7.13-13.13m-20.01 17.57-6.81-13.53m6.81 13.53-27.08 3.8m20.27-17.33 26.82-4.04m-26.82 4.04-26.77 3.47m19.96 42.19-27.69 3.83m27.69-3.83-6.81-14.26m-20.88 18.1-6.48-14.6m0 0 27.36-3.5m-27.36 3.5-6.33-14.34m33.69 10.84-6.65-14.08m0 0-27.04 3.24m27.04-3.24-6.5-13.85m-20.54 17.09-6.17-14.6m0 0 26.71-2.5m148.5 41.07-28.76 9.27m28.76-9.27-8.68-11.19m8.68 11.19 8.93 10.62m-37.69-1.35-8.28-12.16m8.28 12.16 8.52 11.69m-8.52-11.7-28.65 8.09m20.37-20.24 28.36-8.3m-28.36 8.3-28.26 7.2m7.89 13.04-28.55 6.89m28.55-6.89-7.89-13.04m7.89 13.04 8.11 12.7m-36.66-5.81-7.52-13.83m7.52 13.83 7.72 13.63m-15.24-27.46 28.18-6.1m102.81 33.48-30.48 13.25m30.48-13.25-9.83-8.22m9.83 8.22 10.13 7.9m-10.13-7.9 30.58-13.67-10.25-7.88m-50.81 34.8-9.41-8.84m9.41 8.84 9.95 4.3m-9.95-4.3h-29.63m20.22-8.84 30.06-12.63m-30.06 12.63-29.52 4.66m29.52-4.66-9.07-10.2m39.13-2.43-9.53-9.05m9.53 9.05 30.16-13.33m-39.69 4.28-29.6 11.47m29.6-11.47-9.22-9.9m9.22 9.9 29.74-12.55m-59.34 24.02-8.79-11.03m8.79 11.03-29.49 10.25m20.7-21.28 29.17-10.34m-29.17 10.34-29.06 9.1m58.23-19.44 29.3-11.47m-60.83 51.9h-29.62m29.62 0-9.3-4.2m9.3 4.2 9.56 4.29m-39.18-4.3-8.92-4.18m8.92 4.18h-29.62m29.62 0 9.16 4.3m-18.08-8.48h29.24m-29.24 0h-29.23m29.23 0-8.69-4.08m37.93 4.08-9.04-4.62m0 0-28.89.54m28.89-.54-8.36-12.18m-20.53 12.72-8.41-4.9m8.41 4.9h-28.85m20.44-4.9 28.94-7.82m-28.94 7.81-28.54.94m24.94 12.23h-29.63m29.63 0-8.53-4.18m-21.1 4.18-8.14-4.18m0 0h29.24m-29.24 0-7.93-4.08m37.17 4.08-8.31-4.08m0 0h-28.86m28.86 0-8.1-3.97m-20.76 3.97-7.73-3.97m0 0h28.49m164.89 13.9-30.9 7.04m30.9-7.05-10.47-7.02m10.47 7.02 10.81 6.27-31.21 5.32m20.4-11.59 31.5-15.2m-62.4 22.25-10.23-4.41m10.23 4.41 10.5 4.54m-10.5-4.53h-30.43m20.2-4.42 30.66-9.66m-30.66 9.66h-30.02m60.68-9.66 31.03-14.5m-81.89 28.57H1456m30.43 0-9.82-4.41m9.82 4.41 10.08 4.54M1456 179.4l-9.41-4.42m9.41 4.41 9.66 4.54m-19.07-8.95h30.02m93.13 9.3-31.57 4.32m0 0-10.81-4.67m10.81 4.67h-31.29m31.29 0 11.11 4.8h-31.73m9.81-9.47h-30.85m32.01 14.4h-32.18m32.18 0-10.97-4.94m10.97 4.94h32.19m-32.19 0 11.29 5.08m-43.47-5.08-10.52-4.94m10.52 4.94h-32.19m32.19 0 10.82 5.08m-21.34-10.02h31.73m-31.73 0h-31.73m31.73 0-10.22-4.8m41.95 4.8-10.67-4.8m0 0h-31.28m31.28 0-10.37-4.66m-20.91 4.67-9.94-4.67m9.94 4.67h-31.28m21.34-4.67h30.85m-30.85 0h-30.85m29.34 14.4h-32.18m32.18 0-10.06-4.94m-22.12 4.94-9.6-4.94m0 0h31.72m-31.72 0-9.33-4.8m41.05 4.8-9.77-4.8m0 0h-31.28m31.28 0-9.51-4.66m-21.77 4.67-9.08-4.67m0 0h30.85m105 19.48 11.63 5.23h-33.14m21.51-5.23h-32.65m32.65 0h32.66m-54.17 5.23-11.14-5.23m11.14 5.23 11.48 5.38m45.98 5.56h-34.15m0 0-11.83-5.56m11.83 5.56h-34.15m34.15 0 12.2 5.72h-34.68m10.65-11.28h33.64m-33.64 0h-33.64m35.02 17.19-12.03-5.91m12.03 5.9h35.23m-81.95-5.9h34.69m-34.69 0-11.13-5.72m45.82 5.72-11.67-5.72m0 0h-34.15m34.15 0-11.32-5.56m-22.83 5.56-10.8-5.56m0 0h33.63m46.2-105.32-25.75-7.12m25.75 7.12-8.73-8.96m8.73 8.96 8.99 8.35-25.99-8.12m17-.23 25.79 6.28m-51.54-13.4-8.5-8.01m8.5 8 8.75 7.36m-17.25-15.36 25.52 6.17m-25.52-6.17-8.27-8.59m33.79 14.76-8.49-9.44m8.49 9.44 25.56 5.35m-15.58 17.15 26.53 9.26m-26.53-9.26-9.26-6.27m26.25 8.68-26.25-8.68m0 0-8.99-7.04m8.99 7.04-26.27-8.93m17.28 1.9-26.03-7.97m-8.78 1.01-8.75-4.48m26.28 9.54-26.28-9.54m26.28 9.54-8.75-6.07m-17.53-3.47-8.49-5.18m0 0 26.02 8.65m48.18 34.91 20.44-1.2m-20.44 1.2-9.95-8.27m0 0-9.66-8.82m9.66 8.82 18.67 2.01M218.48 114.7l-5.95 2.91m5.95-2.91h-24.44m0 0-6.22 2.91m6.22-2.91H169.6m0 0-6.48 2.91m6.48-2.91h-24.43m0 0-6.76 2.91m55.46 9.16 6.36-3.12m-6.36 3.12h-25.55m25.55 0h25.56m-51.11 0 6.65-3.12m-6.65 3.12h-25.56m32.2-3.12 6.5-3.05m-6.5 3.05h25.27m-25.26 0H149.7m50.53 0 6.22-3.05m-6.22 3.05h25.27m-19.05-3.05 6.08-2.99m-6.08 2.99h-24.98m24.98 0h24.98m-49.96 0 6.35-2.99m-6.35 2.99h-24.99m31.34-2.99h24.71m-24.7 0H163.1m49.42 0h24.7m-94.47 9.16 6.94-3.12m-6.94 3.12h-25.55m0 0 7.22-3.12m-7.23 3.12H91.66m32.78-3.12 7.07-3.05m-7.07 3.05h25.27m-25.27 0H99.17m50.53 0 6.78-3.05m0 0 6.64-2.99m-6.64 2.99H131.5m0 0 6.9-2.99m-6.9 2.99H106.5m31.9-2.99h24.7m-24.7 0H113.7m-22.05 9.16 7.52-3.12m-7.52 3.12H66.09m0 0 7.6-3.04.21-.08m-7.8 3.12H40.53m33.36-3.12 7.63-3.05m-7.63 3.05h25.27m-25.27 0H48.63m50.54 0 7.34-3.05m0 0 7.19-2.99m-7.19 2.99H81.53m0 0 7.46-2.99m-7.46 2.99H56.55m32.44-2.99h24.71m-24.7 0H64.28M364.45 94.9l-24.19 8.35m24.2-8.35-4.04 11.94m-20.16-3.6-4.62 2.29m4.63-2.28L316.2 113.9m0 0-4.87 2.82m4.87-2.82-24.41.79m0 0-5.14 2.91m60.56 9.16 4.62-3.12m-4.62 3.12h-25.56m25.56 0h25.55m-51.1 0 4.9-3.12m-4.9 3.12L296 124.43m30.57-.78h25.26m-25.26 0-25.37-2.55m25.37 2.55 4.54-10.23m20.72 10.23 4.46-5.08m-4.46 5.08h25.27m-20.81-5.08-25.18-5.15m25.18 5.15 4.13-11.74m-4.13 11.74 25.05 2.03m-50.23-7.18 4.53-7.9m-4.53 7.9-24.78 5.64m29.31-13.54 24.78 1.31m-24.78-1.31-24.31 11.2m49.09-9.89 24.83 3.41M296 124.43l5.2-3.33m-5.2 3.33-25.46 2.34m0 0 5.5-3.12m-5.5 3.12h-25.56m31.05-3.12 5.37-3.05m-5.37 3.05 25.17-2.55m-25.17 2.55h-25.26m50.43-2.55 5.13-2.03m0 0 5-2.34m-5 2.33-24.93 1.54m0 0 5.25-2.99m-5.25 2.99h-24.98m30.23-2.99 24.68-.88m-24.68.88h-24.7m-16.97 9.16 5.79-3.12m-5.79 3.12h-25.55m0 0 6.07-3.12m0 0 5.93-3.05m-5.93 3.05h25.27m0 0 5.65-3.05m0 0 5.53-2.99m-5.53 2.99h-24.99m0 0 5.8-2.99m0 0h24.72m249.62-10.7-24.48-1m24.48 1-2.55 10.7m-21.93-11.7-2.77 11.7m2.77-11.7-24.49-1.33m0 0-24.5-1.75m24.5 1.75-3 13.03m-21.5-14.78-3.23 13.5m65.67 10.44 2.9-3.12m-2.9 3.12H475m25.55 0h25.56m-51.11 0 3.18-3.12m-3.18 3.12h-25.56m28.74-3.12 3.1-3.05m-3.1 3.05h25.26m-25.26 0H452.9m50.53 0 2.83-3.05m-2.83 3.05h25.27m-22.44-3.05 2.76-2.99m-2.76 2.99h-24.99m24.99 0h24.98m-49.97 0 3.05-2.99m-3.05 2.99H456.3m28.02-2.99h24.71m-24.7 0H459.6m49.41 0h24.71m-84.3 9.16 3.47-3.12m-3.47 3.12h-25.56m0 0 3.76-3.12m-3.76 3.12h-25.55m29.31-3.12 3.68-3.05m-3.68 3.05h25.27m-25.27 0h-25.26m50.53 0 3.4-3.05m0 0 3.3-2.99m-3.3 2.99h-25m0 0 3.57-4.27m-3.56 4.27h-24.99m28.55-4.27 24.74 1.28m-24.74-1.28-24.8-2.62m-11.75 13.06 4.05-3.12m-4.05 3.12h-25.56m0 0 4.34-3.12m0 0 4.24-3.05m-4.24 3.05h25.27m0 0 3.95-3.05m0 0 3.76-6.9m-3.76 6.9h-24.98m0 0 3.92-10.36m0 0 24.82 3.47m248.26-.66-1.07 4.56m1.07-4.56-24.43 1.65m0 0-1.35 2.91m1.35-2.91-24.44-.36m0 0-1.62 3.27m1.62-3.27L585 111.8m0 0-1.85 5.81m70.73 9.16 1.15-3.12m-1.15 3.12h-25.56m25.56 0h25.55m-51.1 0 1.44-3.12m-1.45 3.12h-25.56m27-3.12 1.42-3.05m-1.41 3.05h25.26m-25.26 0H604.5m50.53 0 1.13-3.05m-1.13 3.05h25.27m-24.14-3.05 1.1-2.99m-1.1 2.99h-24.98m24.98 0h24.99m-49.97 0 1.38-2.99m-1.38 2.99H606.2m26.36-2.99h24.7m-24.7 0h-24.7m49.4 0h24.72m-79.22 9.16 1.74-3.12m-1.74 3.12h-25.55m0 0 2.02-3.12m-2.02 3.12h-25.56m27.58-3.12 1.98-3.05m-1.98 3.05h25.27m-25.27 0h-25.26m50.53 0 1.7-3.05m0 0 1.65-2.99m-1.65 2.99H581.2m0 0 1.94-2.99m-1.94 2.99h-24.98m26.92-2.99h24.7m-24.7 0h-24.71m-6.79 9.16 2.32-3.12m-2.32 3.12H526.1m0 0 2.6-3.12m0 0 2.54-3.05m-2.54 3.05h25.27m0 0 2.26-3.05m0 0 2.2-2.99m-2.2 2.99h-24.99m0 0 2.49-2.99m0 0h24.7m246.63-23-24.52 20.09m24.52-20.09.5 13.28m-25.02 6.8.27 2.92m-.27-2.91H756.1m0 0v2.91m0-2.91h-24.44m0 0-.27 2.91m75.82 9.16-.58-3.12m.58 3.12h-25.56m25.56 0h25.56m-51.12 0-.28-3.12m.28 3.12H756.1m25.27-3.12-.29-3.05m.29 3.05h25.26m-25.26 0H756.1m50.53 0-.56-3.05m.56 3.05h25.27m-25.83-3.05h-24.99m24.99 0-.52-12.7m.52 12.7 25.02-5.9m-50 5.9-.28-2.99m.27 2.99H756.1m24.7-2.99 24.75-9.72m-24.74 9.72H756.1m49.45-9.72 24.76-5.13m-74.21 24v-3.11m0 3.12h-25.56m0 0 .3-3.12m-.3 3.12H705m25.84-3.12.28-3.05m-.28 3.05h25.27m-25.27 0h-25.26m50.53 0v-3.05m0 0v-2.99m0 2.99H731.1m0 0 .28-2.99m-.27 2.99h-24.99m25.26-2.99h24.7m-24.7 0h-24.7m-1.7 9.16.58-3.12m-.58 3.12h-25.56m0 0 .87-3.12m0 0 .85-3.05m-.85 3.05h25.27m0 0 .56-3.05m0 0 .55-2.99m-.55 2.99h-24.98m0 0 .83-2.99m0 0h24.7m245.88-61.54-24.68 8.23m24.68-8.23 2.08 8.59m-26.76-.36 1.81 9.24m-1.8-9.24-24.64 7.64m0 0-24.6 6.95m24.6-6.95 1.54 9.97m-26.14-3.02 1.28 10.76m81.33-4.71-2.3-4.44m2.3 4.44-25.8 10.6m25.8-10.6 25.86-10.8m-51.66 21.4-2-5.02m2 5.02-25.76 10.38m23.76-15.4 25.5-10.02m-25.5 10.02L908 100.2m25.46-9.67-1.91-8.24m27.42-1.78-2.2-7.7m2.2 7.7 25.55-10.3m-27.75 2.6-.14-.56-2-7.58m2.14 8.13-25.22 9.5m25.22-9.5 25.27-9.84m-50.49 19.33-1.86-8.74m1.86 8.74-25.18 9.05m23.32-17.79 24.95-8.88m-24.95 8.88-24.9 8.37m49.85-17.25 24.99-9.32m-69.93 50.58-1.7-5.73m1.7 5.73L884 115.99m0 0-1.42-6.6M884 116l-25.66 9.67m24.25-16.26 25.42-9.21m-25.42 9.2-25.37 8.65m25.37-8.64-1.34-9.56m26.76.35-1.63-8.86m0 0-25.13 8.5m25.13-8.5-1.58-9.42m-23.55 17.93-1.31-10.2m1.3 10.2-25.09 7.83m23.79-18.02 24.86-7.74m-24.86 7.74-24.83 6.99m3.23 29.02-1.12-7.62m1.12 7.62-25.56 1.1m0 0-.87-3.11m0 0 25.31-5.61m-25.31 5.6-.81-8.95m26.12 3.35-1.07-10.37m0 0-25.05 7.02m25.05-7.02-1.04-11.03m-24.01 18.05-.78-11.93m0 0 24.8-6.12m246.17-88.4 3.7 6.96m-3.7-6.96-24.72 2.27m0 0 3.46 6.23m-3.46-6.23L1051.68 20m0 0 3.18 6.6m-3.18-6.6-24.84 9.23m0 0 2.9 7m86.88-.8L1090.83 37m25.79-1.58-3.89-9.49m3.89 9.49 25.84-2.55M1090.83 37l-3.64-8.37m3.64 8.37-25.88 4.99m22.24-13.36-3.63-5.86m3.63 5.86 25.54-2.7m-25.54 2.7-25.74 10.46m51.28-13.16-3.96-4.03m3.96 4.03 25.56-2.52m-29.52-1.51-3.79-6.7m3.79 6.7-25.21.87m25.21-.87 25.2-.21m-50.41 1.08-3.54-6.03m3.54 6.03-25.45 10.17m21.91-16.2 24.96-1.54m-24.96 1.54-25.16 9.85m50.12-11.39 24.84 2.43m-64.87 24.36-3.5-2.9m3.5 2.9-25.99 10.6m0 0-3.2-3.18m3.2 3.19-25.94 10.6m22.74-13.79-3.05-6.46m3.05 6.46 25.69-10.32m-25.69 10.32-25.64 10.25m51.33-20.57-3.34-6.15m0 0-3.25-6.35m3.25 6.35-25.4 10m0 0-2.97-6.71m2.97 6.72-25.35 9.87m22.38-16.6 25.12-9.63m-25.12 9.64-25.07 9.45m8.35 17.53-2.9-3.55m2.9 3.55-25.9 10.93m0 0-2.6-3.94m0 0-2.48-7.25m2.48 7.25 25.6-10.54m0 0-2.76-6.84m0 0-2.69-7.14m2.69 7.14-25.32 10.13m0 0-2.37-7.48-.04-.13m0 0 25.04-9.66m244.4-34.14-24.64-.2m24.64.2 5.29 7.06m-29.93-7.27 5.05 6.27m-5.05-6.27-24.66.34m0 0 4.85 4.5m-4.85-4.5-24.7 1.5m0 0 4.66 2.32m91.42 19.5-25.63-2.88m25.63 2.89-5.48-11.36m5.48 11.36 25.63 2.7m-51.26-5.6-5.23-10.79m5.23 10.8-25.66-2.54m20.43-8.26-5.47-1.62m5.47 1.62 25.38 2.33m-25.38-2.33-25.43-1.5m50.81 3.83-5.72-2.47m5.72 2.47 25.39 2.01m-31.11-4.48-5.59-2.57m5.59 2.57-25.13-1.48m25.13 1.48 25.11 1.89m-50.24-3.37-5.34-2.1m5.34 2.1-25.14-1.47m19.8-.62 24.88 1m-24.88-1-24.86-1.44m49.74 2.44 24.94-.73m-59.44 11.7-25.71-1.5m25.71 1.5-5-9.76m-20.71 8.26-4.73-9.36m4.73 9.36-25.85 2.21m21.12-11.57-4.91-1.38m4.91 1.38 25.44 1.1m-25.44-1.1-25.56 2.09m51-1-5.18-1.58m0 0-5.06-2.06m5.06 2.06-25.17-.9m0 0-4.78-1.83m4.78 1.84-25.26 1.8m20.48-3.64-.28.02-24.69 1.5m24.97-1.52 24.89.67m-36.32 14.12-25.84 2.6m25.84-2.6-4.44-9.48m-21.4 12.07-4.17-9.46m0 0-4.32-1.72m4.32 1.72 25.57-2.61m0 0-4.61-1.67m0 0-4.49-2.13m4.49 2.13-25.28 2.56m0 0-4.15-4.06m0 0 24.94-.63m241.36 10.51-24.37-4.86m24.37 4.86 6.63 11.28m-31-16.14 6.46 9.72m-6.46-9.72-24.31-6.43m0 0L1323.1 9.9m24.34 6.33 6.23 9.1M1323.1 9.9l6.04 7.8m94.81 48.09-25.28-7.5m25.28 7.5-7.34-7.07m7.34 7.07 25.29 6.8m-50.57-14.3-7.1-6.33m7.1 6.33-25.29-8.13m18.19 1.8 25.04 6.76m-25.04-6.76-25.04-7.44m25.04 7.44-6.74-10.16m31.78 16.92-7.01-9.85m7.01 9.85 25.06 6.03m-32.07-15.88-24.77-7.07m24.77 7.07-6.85-10.07m6.85 10.07 24.8 5.9m-49.57-12.97-6.62-9.42m6.62 9.42-24.77-7.55m18.15-1.87 24.54 6.42m-24.54-6.42-24.54-7.04m49.08 13.46 24.34 4.22.29.05m-54 7.1-25.29-8.7m25.29 8.7-6.85-5.65m-18.44-3.05-6.36-4.97-.24-.18m6.6 5.15-25.59-3.02m18.99-2.13 25.04 8.2m-25.04-8.2-25.03-8.94m25.03 8.94-6.22-9.9m31.26 18.1-6.47-10.27m0 0-24.79-7.84m24.79 7.84-6.39-8.91m-18.4 1.07-6.13-8.71m6.13 8.71-24.92-5.65m18.79-3.06 24.53 7.64m-24.53-7.64-24.84-1.7m18.2 22.45-25.72-.75m25.72.75-6.04-11.07m-19.68 10.32-5.72-12.04m0 0-6-2.6m6 2.6 25.4 1.72m0 0-6.11-6.62m0 0-6.05-4.76m6.05 4.76-25.29 2.3m0 0-5.76-5.18m0 0 25-1.88m238.83 21.87-24.59.03m24.59-.03 7.99 13.8-24.83-.19m16.84-13.61 24.64-.63m-49.23.66 7.75 13.58m-7.75-13.58-24.56-.62m0 0-24.52-1.33m24.52 1.33 7.52 13.28m-32.04-14.6 7.29 12.91m48.37 41.43 25.33 4.54-8.24-14.49m-17.09 9.95-25.3-5.32m25.3 5.32-8.14-11.95m25.23 2-.57-.04-24.66-1.96m25.23 2 24.72 1.1m-24.72-1.1-8.02-14.97m25.05.81-25.05-.8m0 0-7.9-13.9m7.9 13.9-24.68-1.6-.31-.02m17.09-12.29-24.79-.92m-1.68 34.42-8.02-9.57m8.02 9.57-25.28-6.1m17.26-3.47 25.18 2.94m-25.18-2.94-25.08-4.78m25.08 4.78-7.58-13.79m32.76 16.73-7.78-14.58m0 0-24.98-2.15m24.98 2.15-7.7-13.2m-17.28 11.05-7.47-12.75m7.47 12.75-24.93-3m17.46-9.75 24.75 1.7m-24.75-1.7-24.7-2.5m22.49 32.52-25.3-6.3m25.3 6.3-7.82-8.26m-17.48 1.96-7.57-7.84m0 0 25.05 5.88m-25.05-5.88-7.27-9.99m32.32 15.87-7.43-12m0 0-24.89-3.87m24.89 3.86-7.24-12.24m-17.65 8.38-7.02-11.69m0 0 24.67 3.3M71.85 114.7l-7.56 2.91m7.56-2.91H47.42m0 0-.17.06-7.67 2.85m7.84-2.91H22.98m0 0H-1.46m24.44 0-8.11 2.91m-16.33-2.91-8.38 2.91m50.38 9.16H14.98m25.56 0 8.1-3.12m-33.66 3.12 8.39-3.12m-8.39 3.12h-25.55m33.94-3.12h25.26m-25.26 0H-1.9m25.27 0 8.2-3.05m17.06 3.05 7.92-3.05m0 0 .1-.04 7.64-2.95m-7.74 2.99H31.56m0 0 7.68-2.86.34-.13m-8.02 2.99H6.58m33-2.99h24.7m-24.7 0H14.87m-25.44 9.16h-25.56l8.96-3.12m16.6 3.12 8.67-3.12m-25.27 0H-1.9m-25.27 0 8.76-3.05m-8.76 3.05h-25.26m50.53 0 8.48-3.05m0 0h-24.99m24.99 0 8.29-2.99m-33.28 2.99 8.57-2.99m-8.57 2.99h-24.98l8.84-2.99m24.71 0h24.7m-24.7 0h-24.7m-24.71 0h24.7M1264.11 237.3l4.48-6.1M322.96 370.4l-.87.14m-255-195.65.35.09m-103.2 357.22v15.24m0-15.24v-66.5m21.43 76.3-21.43 5.44m0 0v57.64m2.15-154.97-2.15 3.2m0 0v12.38m0-12.38-9.08 13.56 9.08-1.18m-2.9 142.86 2.9-3.47m0 0v3m0 0v11.46"/>
  <defs>
    <linearGradient id="paint0_linear_33766_2898" x1="760" x2="760" y1="-18.28" y2="647.55" gradientUnits="userSpaceOnUse">
      <stop stop-color="#19191C"/>
      <stop offset="1" stop-color="#fff" stop-opacity="0"/>
    </linearGradient>
  </defs>
</svg>
