    <svg
      width="1520"
      height="262"
      viewBox="0 0 1520 262"
      fill="none"
      xmlns="http://www.w3.org/2000/svg"
    >
      <path
        opacity="0.5"
        d="M33.5909 261H-1V228.3M33.5909 261V228.3M33.5909 261H68.1818M33.5909 228.3H-1M33.5909 228.3V195.6M33.5909 228.3H68.1818M-1 228.3V195.6M33.5909 195.6H-1M33.5909 195.6V162.9M33.5909 195.6H68.1818M-1 195.6V162.9M33.5909 162.9H-1M33.5909 162.9V130.2M33.5909 162.9H68.1818M-1 162.9V130.2M33.5909 130.2H-1M33.5909 130.2V97.5M33.5909 130.2H68.1818M-1 130.2V97.5M33.5909 97.5H-1M33.5909 97.5V64.8M33.5909 97.5H68.1818M-1 97.5V64.8M33.5909 64.8H-1M33.5909 64.8V32.1M33.5909 64.8H68.1818M-1 64.8V32.1M33.5909 32.1H-1M33.5909 32.1V-0.59999M33.5909 32.1H68.1818M-1 32.1V-0.59999M33.5909 -0.59999H-1M33.5909 -0.59999V-33.3M33.5909 -0.59999H68.1818M-1 -0.59999V-33.3M33.5909 -33.3H-1M33.5909 -33.3V-66M33.5909 -33.3H68.1818M-1 -33.3V-66M33.5909 -66H-1M33.5909 -66V-98.7M33.5909 -66H68.1818M-1 -66V-98.7M33.5909 -98.7H-1M33.5909 -98.7V-131.4M33.5909 -98.7H68.1818M-1 -98.7V-131.4M33.5909 -131.4H-1M33.5909 -131.4V-164.1M33.5909 -131.4H68.1818M-1 -131.4V-164.1M33.5909 -164.1H-1M33.5909 -164.1V-196.8M33.5909 -164.1H68.1818M-1 -164.1V-196.8M33.5909 -196.8H-1M33.5909 -196.8V-229.5M33.5909 -196.8H68.1818M-1 -196.8V-229.5M33.5909 -229.5H-1M33.5909 -229.5V-262.2M33.5909 -229.5H68.1818M-1 -229.5V-262.2M33.5909 -262.2H-1M33.5909 -262.2V-294.9M33.5909 -262.2H68.1818M-1 -262.2V-294.9M33.5909 -294.9H-1M33.5909 -294.9V-327.6M33.5909 -294.9H68.1818M-1 -294.9V-327.6M33.5909 -327.6H-1M33.5909 -327.6V-360.3M33.5909 -327.6H68.1818M-1 -327.6V-360.3M33.5909 -360.3H-1M33.5909 -360.3V-393M33.5909 -360.3H68.1818M-1 -360.3V-393H33.5909M33.5909 -393H68.1818M68.1818 261V228.3M68.1818 261H102.773M68.1818 228.3V195.6M68.1818 228.3H102.773M68.1818 195.6V162.9M68.1818 195.6H102.773M68.1818 162.9V130.2M68.1818 162.9H102.773M68.1818 130.2V97.5M68.1818 130.2H102.773M68.1818 97.5V64.8M68.1818 97.5H102.773M68.1818 64.8V32.1M68.1818 64.8H102.773M68.1818 32.1V-0.59999M68.1818 32.1H102.773M68.1818 -0.59999V-33.3M68.1818 -0.59999H102.773M68.1818 -33.3V-66M68.1818 -33.3H102.773M68.1818 -66V-98.7M68.1818 -66H102.773M68.1818 -98.7V-131.4M68.1818 -98.7H102.773M68.1818 -131.4V-164.1M68.1818 -131.4H102.773M68.1818 -164.1V-196.8M68.1818 -164.1H102.773M68.1818 -196.8V-229.5M68.1818 -196.8H102.773M68.1818 -229.5V-262.2M68.1818 -229.5H102.773M68.1818 -262.2V-294.9M68.1818 -262.2H102.773M68.1818 -294.9V-327.6M68.1818 -294.9H102.773M68.1818 -327.6V-360.3M68.1818 -327.6H102.773M68.1818 -360.3V-393M68.1818 -360.3H102.773M68.1818 -393H102.773M102.773 261V228.3M102.773 261H137.364M102.773 228.3V195.6M102.773 228.3H137.364M102.773 195.6V162.9M102.773 195.6H137.364M102.773 162.9V130.2M102.773 162.9H137.364M102.773 130.2V97.5M102.773 130.2H137.364M102.773 97.5V64.8M102.773 97.5H137.364M102.773 64.8V32.1M102.773 64.8H137.364M102.773 32.1V-0.59999M102.773 32.1H137.364M102.773 -0.59999V-33.3M102.773 -0.59999H137.364M102.773 -33.3V-66M102.773 -33.3H137.364M102.773 -66V-98.7M102.773 -66H137.364M102.773 -98.7V-131.4M102.773 -98.7H137.364M102.773 -131.4V-164.1M102.773 -131.4H137.364M102.773 -164.1V-196.8M102.773 -164.1H137.364M102.773 -196.8V-229.5M102.773 -196.8H137.364M102.773 -229.5V-262.2M102.773 -229.5H137.364M102.773 -262.2V-294.9M102.773 -262.2H137.364M102.773 -294.9V-327.6M102.773 -294.9H137.364M102.773 -327.6V-360.3M102.773 -327.6H137.364M102.773 -360.3V-393M102.773 -360.3H137.364M102.773 -393H137.364M137.364 261V228.3M137.364 261H171.955M137.364 228.3V195.6M137.364 228.3H171.955M137.364 195.6V162.9M137.364 195.6H171.955M137.364 162.9V130.2M137.364 162.9H171.955M137.364 130.2V97.5M137.364 130.2H171.955M137.364 97.5V64.8M137.364 97.5H171.955M137.364 64.8V32.1M137.364 64.8H171.955M137.364 32.1V-0.59999M137.364 32.1H171.955M137.364 -0.59999V-33.3M137.364 -0.59999H171.955M137.364 -33.3V-66M137.364 -33.3H171.955M137.364 -66V-98.7M137.364 -66H171.955M137.364 -98.7V-131.4M137.364 -98.7H171.955M137.364 -131.4V-164.1M137.364 -131.4H171.955M137.364 -164.1V-196.8M137.364 -164.1H171.955M137.364 -196.8V-229.5M137.364 -196.8H171.955M137.364 -229.5V-262.2M137.364 -229.5H171.955M137.364 -262.2V-294.9M137.364 -262.2H171.955M137.364 -294.9V-327.6M137.364 -294.9H171.955M137.364 -327.6V-360.3M137.364 -327.6H171.955M137.364 -360.3V-393M137.364 -360.3H171.955M137.364 -393H171.955M171.955 261V228.3M171.955 261H206.545M171.955 228.3V195.6M171.955 228.3H206.545M171.955 195.6V162.9M171.955 195.6H206.545M171.955 162.9V130.2M171.955 162.9H206.545M171.955 130.2V97.5M171.955 130.2H206.545M171.955 97.5V64.8M171.955 97.5H206.545M171.955 64.8V32.1M171.955 64.8H206.545M171.955 32.1V-0.59999M171.955 32.1H206.545M171.955 -0.59999V-33.3M171.955 -0.59999H206.545M171.955 -33.3V-66M171.955 -33.3H206.545M171.955 -66V-98.7M171.955 -66H206.545M171.955 -98.7V-131.4M171.955 -98.7H206.545M171.955 -131.4V-164.1M171.955 -131.4H206.545M171.955 -164.1V-196.8M171.955 -164.1H206.545M171.955 -196.8V-229.5M171.955 -196.8H206.545M171.955 -229.5V-262.2M171.955 -229.5H206.545M171.955 -262.2V-294.9M171.955 -262.2H206.545M171.955 -294.9V-327.6M171.955 -294.9H206.545M171.955 -327.6V-360.3M171.955 -327.6H206.545M171.955 -360.3V-393M171.955 -360.3H206.545M171.955 -393H206.545M206.545 261V228.3M206.545 261H241.136M206.545 228.3V195.6M206.545 228.3H241.136M206.545 195.6V162.9M206.545 195.6H241.136M206.545 162.9V130.2M206.545 162.9H241.136M206.545 130.2V97.5M206.545 130.2H241.136M206.545 97.5V64.8M206.545 97.5H241.136M206.545 64.8V32.1M206.545 64.8H241.136M206.545 32.1V-0.59999M206.545 32.1H241.136M206.545 -0.59999V-33.3M206.545 -0.59999H241.136M206.545 -33.3V-66M206.545 -33.3H241.136M206.545 -66V-98.7M206.545 -66H241.136M206.545 -98.7V-131.4M206.545 -98.7H241.136M206.545 -131.4V-164.1M206.545 -131.4H241.136M206.545 -164.1V-196.8M206.545 -164.1H241.136M206.545 -196.8V-229.5M206.545 -196.8H241.136M206.545 -229.5V-262.2M206.545 -229.5H241.136M206.545 -262.2V-294.9M206.545 -262.2H241.136M206.545 -294.9V-327.6M206.545 -294.9H241.136M206.545 -327.6V-360.3M206.545 -327.6H241.136M206.545 -360.3V-393M206.545 -360.3H241.136M206.545 -393H241.136M241.136 261V228.3M241.136 261H275.727M241.136 228.3V195.6M241.136 228.3H275.727M241.136 195.6V162.9M241.136 195.6H275.727M241.136 162.9V130.2M241.136 162.9H275.727M241.136 130.2V97.5M241.136 130.2H275.727M241.136 97.5V64.8M241.136 97.5H275.727M241.136 64.8V32.1M241.136 64.8H275.727M241.136 32.1H275.727M241.136 32.1V-0.59999M241.136 -0.59999V-33.3M241.136 -0.59999H275.727M241.136 -33.3V-66M241.136 -33.3H275.727M241.136 -66V-98.7M241.136 -66H275.727M241.136 -98.7V-131.4M241.136 -98.7H275.727M241.136 -131.4V-164.1M241.136 -131.4H275.727M241.136 -164.1V-196.8M241.136 -164.1H275.727M241.136 -196.8V-229.5M241.136 -196.8H275.727M241.136 -229.5V-262.2M241.136 -229.5H275.727M241.136 -262.2V-294.9M241.136 -262.2H275.727M241.136 -294.9V-327.6M241.136 -294.9H275.727M241.136 -327.6V-360.3M241.136 -327.6H275.727M241.136 -360.3V-393M241.136 -360.3H275.727M241.136 -393H275.727M275.727 261V228.3M275.727 261H310.318M275.727 228.3V195.6M275.727 228.3H310.318M275.727 195.6V162.9M275.727 195.6H310.318M275.727 162.9V130.2M275.727 162.9H310.318M275.727 130.2V97.5M275.727 130.2H310.318M275.727 97.5V64.8M275.727 97.5H310.318M275.727 64.8V32.1M275.727 64.8H310.318M275.727 32.1V-0.59999M275.727 32.1H310.318M275.727 -0.59999V-33.3M275.727 -0.59999H310.318M275.727 -33.3V-66M275.727 -33.3H310.318M275.727 -66V-98.7M275.727 -66H310.318M275.727 -98.7V-131.4M275.727 -98.7H310.318M275.727 -131.4V-164.1M275.727 -131.4H310.318M275.727 -164.1V-196.8M275.727 -164.1H310.318M275.727 -196.8V-229.5M275.727 -196.8H310.318M275.727 -229.5V-262.2M275.727 -229.5H310.318M275.727 -262.2V-294.9M275.727 -262.2H310.318M275.727 -294.9V-327.6M275.727 -294.9H310.318M275.727 -327.6V-360.3M275.727 -327.6H310.318M275.727 -360.3V-393M275.727 -360.3H310.318M275.727 -393H310.318M310.318 261V228.3M310.318 261H344.909M310.318 228.3V195.6M310.318 228.3H344.909M310.318 195.6V162.9M310.318 195.6H344.909M310.318 162.9V130.2M310.318 162.9H344.909M310.318 130.2V97.5M310.318 130.2H344.909M310.318 97.5V64.8M310.318 97.5H344.909M310.318 64.8V32.1M310.318 64.8H344.909M310.318 32.1V-0.59999M310.318 32.1H344.909M310.318 -0.59999V-33.3M310.318 -0.59999H344.909M310.318 -33.3V-66M310.318 -33.3H344.909M310.318 -66V-98.7M310.318 -66H344.909M310.318 -98.7V-131.4M310.318 -98.7H344.909M310.318 -131.4V-164.1M310.318 -131.4H344.909M310.318 -164.1V-196.8M310.318 -164.1H344.909M310.318 -196.8V-229.5M310.318 -196.8H344.909M310.318 -229.5V-262.2M310.318 -229.5H344.909M310.318 -262.2V-294.9M310.318 -262.2H344.909M310.318 -294.9V-327.6M310.318 -294.9H344.909M310.318 -327.6V-360.3M310.318 -327.6H344.909M310.318 -360.3V-393M310.318 -360.3H344.909M310.318 -393H344.909M344.909 261V228.3M344.909 261H379.5M344.909 228.3V195.6M344.909 228.3H379.5M344.909 195.6V162.9M344.909 195.6H379.5M344.909 162.9V130.2M344.909 162.9H379.5M344.909 130.2V97.5M344.909 130.2H379.5M344.909 97.5V64.8M344.909 97.5H379.5M344.909 64.8V32.1M344.909 64.8H379.5M344.909 32.1V-0.59999M344.909 32.1H379.5M344.909 -0.59999V-33.3M344.909 -0.59999H379.5M344.909 -33.3V-66M344.909 -33.3H379.5M344.909 -66V-98.7M344.909 -66H379.5M344.909 -98.7V-131.4M344.909 -98.7H379.5M344.909 -131.4V-164.1M344.909 -131.4H379.5M344.909 -164.1V-196.8M344.909 -164.1H379.5M344.909 -196.8V-229.5M344.909 -196.8H379.5M344.909 -229.5V-262.2M344.909 -229.5H379.5M344.909 -262.2V-294.9M344.909 -262.2H379.5M344.909 -294.9V-327.6M344.909 -294.9H379.5M344.909 -327.6V-360.3M344.909 -327.6H379.5M344.909 -360.3V-393M344.909 -360.3H379.5M344.909 -393H379.5M379.5 261V228.3M379.5 261H414.091M379.5 228.3V195.6M379.5 228.3H414.091M379.5 195.6V162.9M379.5 195.6H414.091M379.5 162.9V130.2M379.5 162.9H414.091M379.5 130.2V97.5M379.5 130.2H414.091M379.5 97.5V64.8M379.5 97.5H414.091M379.5 64.8V32.1M379.5 64.8H414.091M379.5 32.1V-0.59999M379.5 32.1H414.091M379.5 -0.59999V-33.3M379.5 -0.59999H414.091M379.5 -33.3V-66M379.5 -33.3H414.091M379.5 -66V-98.7M379.5 -66H414.091M379.5 -98.7V-131.4M379.5 -98.7H414.091M379.5 -131.4V-164.1M379.5 -131.4H414.091M379.5 -164.1V-196.8M379.5 -164.1H414.091M379.5 -196.8V-229.5M379.5 -196.8H414.091M379.5 -229.5V-262.2M379.5 -229.5H414.091M379.5 -262.2V-294.9M379.5 -262.2H414.091M379.5 -294.9V-327.6M379.5 -294.9H414.091M379.5 -327.6V-360.3M379.5 -327.6H414.091M379.5 -360.3V-393M379.5 -360.3H414.091M379.5 -393H414.091M414.091 261V228.3M414.091 261H448.682M414.091 228.3V195.6M414.091 228.3H448.682M414.091 195.6V162.9M414.091 195.6H448.682M414.091 162.9V130.2M414.091 162.9H448.682M414.091 130.2V97.5M414.091 130.2H448.682M414.091 97.5V64.8M414.091 97.5H448.682M414.091 64.8V32.1M414.091 64.8H448.682M414.091 32.1V-0.59999M414.091 32.1H448.682M414.091 -0.59999V-33.3M414.091 -0.59999H448.682M414.091 -33.3V-66M414.091 -33.3H448.682M414.091 -66V-98.7M414.091 -66H448.682M414.091 -98.7V-131.4M414.091 -98.7H448.682M414.091 -131.4V-164.1M414.091 -131.4H448.682M414.091 -164.1V-196.8M414.091 -164.1H448.682M414.091 -196.8V-229.5M414.091 -196.8H448.682M414.091 -229.5V-262.2M414.091 -229.5H448.682M414.091 -262.2V-294.9M414.091 -262.2H448.682M414.091 -294.9V-327.6M414.091 -294.9H448.682M414.091 -327.6V-360.3M414.091 -327.6H448.682M414.091 -360.3V-393M414.091 -360.3H448.682M414.091 -393H448.682M448.682 261V228.3M448.682 261H483.273M448.682 228.3V195.6M448.682 228.3H483.273M448.682 195.6V162.9M448.682 195.6H483.273M448.682 162.9V130.2M448.682 162.9H483.273M448.682 130.2V97.5M448.682 130.2H1071.32M448.682 97.5V64.8M448.682 97.5H1071.32M448.682 64.8V32.1M448.682 64.8H483.273M448.682 32.1V-0.59999M448.682 32.1H483.273M448.682 -0.59999V-33.3M448.682 -0.59999H483.273M448.682 -33.3V-66M448.682 -33.3H483.273M448.682 -66V-98.7M448.682 -66H483.273M448.682 -98.7V-131.4M448.682 -98.7H483.273M448.682 -131.4V-164.1M448.682 -131.4H483.273M448.682 -164.1V-196.8M448.682 -164.1H483.273M448.682 -196.8V-229.5M448.682 -196.8H483.273M448.682 -229.5V-262.2M448.682 -229.5H483.273M448.682 -262.2V-294.9M448.682 -262.2H483.273M448.682 -294.9V-327.6M448.682 -294.9H483.273M448.682 -327.6V-360.3M448.682 -327.6H483.273M448.682 -360.3V-393M448.682 -360.3H483.273M448.682 -393H483.273M483.273 261V228.3M483.273 261H517.864M483.273 228.3V195.6M483.273 228.3H517.864M483.273 195.6V162.9M483.273 195.6H517.864M483.273 162.9H517.864M483.273 162.9V64.8M483.273 64.8V32.1M483.273 64.8H1036.73M483.273 32.1V-0.59999M483.273 32.1H1036.73M483.273 -0.59999V-33.3M483.273 -0.59999H517.864M483.273 -33.3V-66M483.273 -33.3H517.864M483.273 -66V-98.7M483.273 -66H517.864M483.273 -98.7V-131.4M483.273 -98.7H517.864M483.273 -131.4V-164.1M483.273 -131.4H517.864M483.273 -164.1V-196.8M483.273 -164.1H517.864M483.273 -196.8V-229.5M483.273 -196.8H517.864M483.273 -229.5V-262.2M483.273 -229.5H517.864M483.273 -262.2V-294.9M483.273 -262.2H517.864M483.273 -294.9V-327.6M483.273 -294.9H517.864M483.273 -327.6V-360.3M483.273 -327.6H517.864M483.273 -360.3V-393M483.273 -360.3H517.864M483.273 -393H517.864M517.864 261V228.3M517.864 261H552.455M517.864 228.3V195.6M517.864 228.3H552.455M517.864 195.6V162.9M517.864 195.6H552.455M517.864 162.9H552.455M517.864 162.9V-0.59999M517.864 -0.59999V-33.3M517.864 -0.59999H552.455M517.864 -33.3V-66M517.864 -33.3H552.455M517.864 -66V-98.7M517.864 -66H552.455M517.864 -98.7V-131.4M517.864 -98.7H552.455M517.864 -131.4V-164.1M517.864 -131.4H552.455M517.864 -164.1V-196.8M517.864 -164.1H552.455M517.864 -196.8V-229.5M517.864 -196.8H552.455M517.864 -229.5V-262.2M517.864 -229.5H552.455M517.864 -262.2V-294.9M517.864 -262.2H552.455M517.864 -294.9V-327.6M517.864 -294.9H552.455M517.864 -327.6V-360.3M517.864 -327.6H552.455M517.864 -360.3V-393M517.864 -360.3H552.455M517.864 -393H552.455M552.455 261V228.3M552.455 261H587.045M552.455 228.3V195.6M552.455 228.3H587.045M552.455 195.6V162.9M552.455 195.6H587.045M552.455 162.9H587.045M552.455 162.9V-0.59999M552.455 -0.59999V-33.3M552.455 -0.59999H587.045M552.455 -33.3V-66M552.455 -33.3H587.045M552.455 -66V-98.7M552.455 -66H587.045M552.455 -98.7V-131.4M552.455 -98.7H587.045M552.455 -131.4V-164.1M552.455 -131.4H587.045M552.455 -164.1V-196.8M552.455 -164.1H587.045M552.455 -196.8V-229.5M552.455 -196.8H587.045M552.455 -229.5V-262.2M552.455 -229.5H587.045M552.455 -262.2V-294.9M552.455 -262.2H587.045M552.455 -294.9V-327.6M552.455 -294.9H587.045M552.455 -327.6V-360.3M552.455 -327.6H587.045M552.455 -360.3V-393M552.455 -360.3H587.045M552.455 -393H587.045M587.045 261V228.3M587.045 261H621.636M587.045 228.3V195.6M587.045 228.3H621.636M587.045 195.6V162.9M587.045 195.6H621.636M587.045 162.9H621.636M587.045 162.9V-0.59999M587.045 -0.59999V-33.3M587.045 -0.59999H621.636M587.045 -33.3V-66M587.045 -33.3H621.636M587.045 -66V-98.7M587.045 -66H621.636M587.045 -98.7V-131.4M587.045 -98.7H621.636M587.045 -131.4V-164.1M587.045 -131.4H621.636M587.045 -164.1V-196.8M587.045 -164.1H621.636M587.045 -196.8V-229.5M587.045 -196.8H621.636M587.045 -229.5V-262.2M587.045 -229.5H621.636M587.045 -262.2V-294.9M587.045 -262.2H621.636M587.045 -294.9V-327.6M587.045 -294.9H621.636M587.045 -327.6V-360.3M587.045 -327.6H621.636M587.045 -360.3V-393M587.045 -360.3H621.636M587.045 -393H621.636M621.636 261V228.3M621.636 261H656.227M621.636 228.3V195.6M621.636 228.3H656.227M621.636 195.6V162.9M621.636 195.6H656.227M621.636 162.9H656.227M621.636 162.9V-0.59999M621.636 -0.59999V-33.3M621.636 -0.59999H656.227M621.636 -33.3V-66M621.636 -33.3H656.227M621.636 -66V-98.7M621.636 -66H656.227M621.636 -98.7V-131.4M621.636 -98.7H656.227M621.636 -131.4V-164.1M621.636 -131.4H656.227M621.636 -164.1V-196.8M621.636 -164.1H656.227M621.636 -196.8V-229.5M621.636 -196.8H656.227M621.636 -229.5V-262.2M621.636 -229.5H656.227M621.636 -262.2V-294.9M621.636 -262.2H656.227M621.636 -294.9V-327.6M621.636 -294.9H656.227M621.636 -327.6V-360.3M621.636 -327.6H656.227M621.636 -360.3V-393M621.636 -360.3H656.227M621.636 -393H656.227M656.227 261V228.3M656.227 261H690.818M656.227 228.3V195.6M656.227 228.3H690.818M656.227 195.6V162.9M656.227 195.6H690.818M656.227 162.9H690.818M656.227 162.9V-0.59999M656.227 -0.59999V-33.3M656.227 -0.59999H690.818M656.227 -33.3V-66M656.227 -33.3H690.818M656.227 -66V-98.7M656.227 -66H690.818M656.227 -98.7V-131.4M656.227 -98.7H690.818M656.227 -131.4V-164.1M656.227 -131.4H690.818M656.227 -164.1V-196.8M656.227 -164.1H690.818M656.227 -196.8V-229.5M656.227 -196.8H690.818M656.227 -229.5V-262.2M656.227 -229.5H690.818M656.227 -262.2V-294.9M656.227 -262.2H690.818M656.227 -294.9V-327.6M656.227 -294.9H690.818M656.227 -327.6V-360.3M656.227 -327.6H690.818M656.227 -360.3V-393M656.227 -360.3H690.818M656.227 -393H690.818M690.818 261V228.3M690.818 261H725.409M690.818 228.3V195.6M690.818 228.3H725.409M690.818 195.6V162.9M690.818 195.6H725.409M690.818 162.9H725.409M690.818 162.9V-0.59999M690.818 -0.59999V-33.3M690.818 -0.59999H725.409M690.818 -33.3V-66M690.818 -33.3H725.409M690.818 -66V-98.7M690.818 -66H725.409M690.818 -98.7V-131.4M690.818 -98.7H725.409M690.818 -131.4V-164.1M690.818 -131.4H725.409M690.818 -164.1V-196.8M690.818 -164.1H725.409M690.818 -196.8V-229.5M690.818 -196.8H725.409M690.818 -229.5V-262.2M690.818 -229.5H725.409M690.818 -262.2V-294.9M690.818 -262.2H725.409M690.818 -294.9V-327.6M690.818 -294.9H725.409M690.818 -327.6V-360.3M690.818 -327.6H725.409M690.818 -360.3V-393M690.818 -360.3H725.409M690.818 -393H725.409M725.409 261V228.3M725.409 261H760M725.409 228.3H760M725.409 228.3V195.6M725.409 195.6V162.9M725.409 195.6H760M725.409 162.9H760M725.409 162.9V-0.59999M725.409 -0.59999V-33.3M725.409 -0.59999H760M725.409 -33.3V-66M725.409 -33.3H760M725.409 -66V-98.7M725.409 -66H760M725.409 -98.7V-131.4M725.409 -98.7H760M725.409 -131.4V-164.1M725.409 -131.4H760M725.409 -164.1V-196.8M725.409 -164.1H760M725.409 -196.8V-229.5M725.409 -196.8H760M725.409 -229.5V-262.2M725.409 -229.5H760M725.409 -262.2V-294.9M725.409 -262.2H760M725.409 -294.9V-327.6M725.409 -294.9H760M725.409 -327.6V-360.3M725.409 -327.6H760M725.409 -360.3V-393M725.409 -360.3H760M725.409 -393H760M760 261V228.3M760 261H794.591M760 228.3H794.591M760 228.3V195.6M760 195.6V162.9M760 195.6H794.591M760 162.9H794.591M760 162.9V-0.59999M760 -0.59999V-33.3M760 -0.59999H794.591M760 -33.3V-66M760 -33.3H794.591M760 -66V-98.7M760 -66H794.591M760 -98.7V-131.4M760 -98.7H794.591M760 -131.4V-164.1M760 -131.4H794.591M760 -164.1V-196.8M760 -164.1H794.591M760 -196.8V-229.5M760 -196.8H794.591M760 -229.5V-262.2M760 -229.5H794.591M760 -262.2V-294.9M760 -262.2H794.591M760 -294.9V-327.6M760 -294.9H794.591M760 -327.6V-360.3M760 -327.6H794.591M760 -360.3V-393M760 -360.3H794.591M760 -393H794.591M794.591 261V228.3M794.591 261H829.182M794.591 228.3H829.182M794.591 228.3V195.6M794.591 195.6V162.9M794.591 195.6H829.182M794.591 162.9H829.182M794.591 162.9V-0.59999M794.591 -0.59999V-33.3M794.591 -0.59999H829.182M794.591 -33.3V-66M794.591 -33.3H829.182M794.591 -66V-98.7M794.591 -66H829.182M794.591 -98.7V-131.4M794.591 -98.7H829.182M794.591 -131.4V-164.1M794.591 -131.4H829.182M794.591 -164.1V-196.8M794.591 -164.1H829.182M794.591 -196.8V-229.5M794.591 -196.8H829.182M794.591 -229.5V-262.2M794.591 -229.5H829.182M794.591 -262.2V-294.9M794.591 -262.2H829.182M794.591 -294.9V-327.6M794.591 -294.9H829.182M794.591 -327.6V-360.3M794.591 -327.6H829.182M794.591 -360.3V-393M794.591 -360.3H829.182M794.591 -393H829.182M829.182 261V228.3M829.182 261H863.773M829.182 228.3H863.773M829.182 228.3V195.6M829.182 195.6V162.9M829.182 195.6H863.773M829.182 162.9H863.773M829.182 162.9V-0.59999M829.182 -0.59999V-33.3M829.182 -0.59999H863.773M829.182 -33.3V-66M829.182 -33.3H863.773M829.182 -66V-98.7M829.182 -66H863.773M829.182 -98.7V-131.4M829.182 -98.7H863.773M829.182 -131.4V-164.1M829.182 -131.4H863.773M829.182 -164.1V-196.8M829.182 -164.1H863.773M829.182 -196.8V-229.5M829.182 -196.8H863.773M829.182 -229.5V-262.2M829.182 -229.5H863.773M829.182 -262.2V-294.9M829.182 -262.2H863.773M829.182 -294.9V-327.6M829.182 -294.9H863.773M829.182 -327.6V-360.3M829.182 -327.6H863.773M829.182 -360.3V-393M829.182 -360.3H863.773M829.182 -393H863.773M863.773 261V228.3M863.773 261H898.364M863.773 228.3V195.6M863.773 228.3H898.364M863.773 195.6V162.9M863.773 195.6H898.364M863.773 162.9H898.364M863.773 162.9V-0.59999M863.773 -0.59999V-33.3M863.773 -0.59999H898.364M863.773 -33.3V-66M863.773 -33.3H898.364M863.773 -66V-98.7M863.773 -66H898.364M863.773 -98.7V-131.4M863.773 -98.7H898.364M863.773 -131.4V-164.1M863.773 -131.4H898.364M863.773 -164.1V-196.8M863.773 -164.1H898.364M863.773 -196.8V-229.5M863.773 -196.8H898.364M863.773 -229.5V-262.2M863.773 -229.5H898.364M863.773 -262.2V-294.9M863.773 -262.2H898.364M863.773 -294.9V-327.6M863.773 -294.9H898.364M863.773 -327.6V-360.3M863.773 -327.6H898.364M863.773 -360.3V-393M863.773 -360.3H898.364M863.773 -393H898.364M898.364 261V228.3M898.364 261H932.955M898.364 228.3V195.6M898.364 228.3H932.955M898.364 195.6V162.9M898.364 195.6H932.955M898.364 162.9H932.955M898.364 162.9V-0.59999M898.364 -0.59999V-33.3M898.364 -0.59999H932.955M898.364 -33.3V-66M898.364 -33.3H932.955M898.364 -66V-98.7M898.364 -66H932.955M898.364 -98.7V-131.4M898.364 -98.7H932.955M898.364 -131.4V-164.1M898.364 -131.4H932.955M898.364 -164.1V-196.8M898.364 -164.1H932.955M898.364 -196.8V-229.5M898.364 -196.8H932.955M898.364 -229.5V-262.2M898.364 -229.5H932.955M898.364 -262.2V-294.9M898.364 -262.2H932.955M898.364 -294.9V-327.6M898.364 -294.9H932.955M898.364 -327.6V-360.3M898.364 -327.6H932.955M898.364 -360.3V-393M898.364 -360.3H932.955M898.364 -393H932.955M932.955 261V228.3M932.955 261H967.545M932.955 228.3V195.6M932.955 228.3H967.545M932.955 195.6V162.9M932.955 195.6H967.545M932.955 162.9H967.545M932.955 162.9V-0.59999M932.955 -0.59999V-33.3M932.955 -0.59999H967.545M932.955 -33.3V-66M932.955 -33.3H967.545M932.955 -66V-98.7M932.955 -66H967.545M932.955 -98.7V-131.4M932.955 -98.7H967.545M932.955 -131.4V-164.1M932.955 -131.4H967.545M932.955 -164.1V-196.8M932.955 -164.1H967.545M932.955 -196.8V-229.5M932.955 -196.8H967.545M932.955 -229.5V-262.2M932.955 -229.5H967.545M932.955 -262.2V-294.9M932.955 -262.2H967.545M932.955 -294.9V-327.6M932.955 -294.9H967.545M932.955 -327.6V-360.3M932.955 -327.6H967.545M932.955 -360.3V-393M932.955 -360.3H967.545M932.955 -393H967.545M967.545 261V228.3M967.545 261H1002.14M967.545 228.3V195.6M967.545 228.3H1002.14M967.545 195.6V162.9M967.545 195.6H1002.14M967.545 162.9H1002.14M967.545 162.9V-0.59999M967.545 -0.59999V-33.3M967.545 -0.59999H1002.14M967.545 -33.3V-66M967.545 -33.3H1002.14M967.545 -66V-98.7M967.545 -66H1002.14M967.545 -98.7V-131.4M967.545 -98.7H1002.14M967.545 -131.4V-164.1M967.545 -131.4H1002.14M967.545 -164.1V-196.8M967.545 -164.1H1002.14M967.545 -196.8V-229.5M967.545 -196.8H1002.14M967.545 -229.5V-262.2M967.545 -229.5H1002.14M967.545 -262.2V-294.9M967.545 -262.2H1002.14M967.545 -294.9V-327.6M967.545 -294.9H1002.14M967.545 -327.6V-360.3M967.545 -327.6H1002.14M967.545 -360.3V-393M967.545 -360.3H1002.14M967.545 -393H1002.14M1002.14 261V228.3M1002.14 261H1036.73M1002.14 228.3V195.6M1002.14 228.3H1036.73M1002.14 195.6V162.9M1002.14 195.6H1036.73M1002.14 162.9H1036.73M1002.14 162.9V-0.59999M1002.14 -0.59999V-33.3M1002.14 -0.59999H1036.73M1002.14 -33.3V-66M1002.14 -33.3H1036.73M1002.14 -66V-98.7M1002.14 -66H1036.73M1002.14 -98.7V-131.4M1002.14 -98.7H1036.73M1002.14 -131.4V-164.1M1002.14 -131.4H1036.73M1002.14 -164.1V-196.8M1002.14 -164.1H1036.73M1002.14 -196.8V-229.5M1002.14 -196.8H1036.73M1002.14 -229.5V-262.2M1002.14 -229.5H1036.73M1002.14 -262.2V-294.9M1002.14 -262.2H1036.73M1002.14 -294.9V-327.6M1002.14 -294.9H1036.73M1002.14 -327.6V-360.3M1002.14 -327.6H1036.73M1002.14 -360.3V-393M1002.14 -360.3H1036.73M1002.14 -393H1036.73M1036.73 261V228.3M1036.73 261H1071.32M1036.73 228.3V195.6M1036.73 228.3H1071.32M1036.73 195.6V162.9M1036.73 195.6H1071.32M1036.73 162.9H1071.32M1036.73 162.9V64.8M1036.73 64.8V32.1M1036.73 64.8H1071.32M1036.73 32.1V-0.59999M1036.73 32.1H1071.32M1036.73 -0.59999V-33.3M1036.73 -0.59999H1071.32M1036.73 -33.3V-66M1036.73 -33.3H1071.32M1036.73 -66V-98.7M1036.73 -66H1071.32M1036.73 -98.7V-131.4M1036.73 -98.7H1071.32M1036.73 -131.4V-164.1M1036.73 -131.4H1071.32M1036.73 -164.1V-196.8M1036.73 -164.1H1071.32M1036.73 -196.8V-229.5M1036.73 -196.8H1071.32M1036.73 -229.5V-262.2M1036.73 -229.5H1071.32M1036.73 -262.2V-294.9M1036.73 -262.2H1071.32M1036.73 -294.9V-327.6M1036.73 -294.9H1071.32M1036.73 -327.6V-360.3M1036.73 -327.6H1071.32M1036.73 -360.3V-393M1036.73 -360.3H1071.32M1036.73 -393H1071.32M1071.32 261V228.3M1071.32 261H1105.91M1071.32 228.3V195.6M1071.32 228.3H1105.91M1071.32 195.6V162.9M1071.32 195.6H1105.91M1071.32 162.9V130.2M1071.32 162.9H1105.91M1071.32 130.2V97.5M1071.32 130.2H1105.91M1071.32 97.5V64.8M1071.32 97.5H1105.91M1071.32 64.8V32.1M1071.32 64.8H1105.91M1071.32 32.1V-0.59999M1071.32 32.1H1105.91M1071.32 -0.59999V-33.3M1071.32 -0.59999H1105.91M1071.32 -33.3V-66M1071.32 -33.3H1105.91M1071.32 -66V-98.7M1071.32 -66H1105.91M1071.32 -98.7V-131.4M1071.32 -98.7H1105.91M1071.32 -131.4V-164.1M1071.32 -131.4H1105.91M1071.32 -164.1V-196.8M1071.32 -164.1H1105.91M1071.32 -196.8V-229.5M1071.32 -196.8H1105.91M1071.32 -229.5V-262.2M1071.32 -229.5H1105.91M1071.32 -262.2V-294.9M1071.32 -262.2H1105.91M1071.32 -294.9V-327.6M1071.32 -294.9H1105.91M1071.32 -327.6V-360.3M1071.32 -327.6H1105.91M1071.32 -360.3V-393M1071.32 -360.3H1105.91M1071.32 -393H1105.91M1105.91 261V228.3M1105.91 261H1140.5M1105.91 228.3V195.6M1105.91 228.3H1140.5M1105.91 195.6V162.9M1105.91 195.6H1140.5M1105.91 162.9V130.2M1105.91 162.9H1140.5M1105.91 130.2V97.5M1105.91 130.2H1140.5M1105.91 97.5V64.8M1105.91 97.5H1140.5M1105.91 64.8V32.1M1105.91 64.8H1140.5M1105.91 32.1V-0.59999M1105.91 32.1H1140.5M1105.91 -0.59999V-33.3M1105.91 -0.59999H1140.5M1105.91 -33.3V-66M1105.91 -33.3H1140.5M1105.91 -66V-98.7M1105.91 -66H1140.5M1105.91 -98.7V-131.4M1105.91 -98.7H1140.5M1105.91 -131.4V-164.1M1105.91 -131.4H1140.5M1105.91 -164.1V-196.8M1105.91 -164.1H1140.5M1105.91 -196.8V-229.5M1105.91 -196.8H1140.5M1105.91 -229.5V-262.2M1105.91 -229.5H1140.5M1105.91 -262.2V-294.9M1105.91 -262.2H1140.5M1105.91 -294.9V-327.6M1105.91 -294.9H1140.5M1105.91 -327.6V-360.3M1105.91 -327.6H1140.5M1105.91 -360.3V-393M1105.91 -360.3H1140.5M1105.91 -393H1140.5M1140.5 261V228.3M1140.5 261H1175.09M1140.5 228.3V195.6M1140.5 228.3H1175.09M1140.5 195.6V162.9M1140.5 195.6H1175.09M1140.5 162.9V130.2M1140.5 162.9H1175.09M1140.5 130.2V97.5M1140.5 130.2H1175.09M1140.5 97.5V64.8M1140.5 97.5H1175.09M1140.5 64.8V32.1M1140.5 64.8H1175.09M1140.5 32.1V-0.59999M1140.5 32.1H1175.09M1140.5 -0.59999V-33.3M1140.5 -0.59999H1175.09M1140.5 -33.3V-66M1140.5 -33.3H1175.09M1140.5 -66V-98.7M1140.5 -66H1175.09M1140.5 -98.7V-131.4M1140.5 -98.7H1175.09M1140.5 -131.4V-164.1M1140.5 -131.4H1175.09M1140.5 -164.1V-196.8M1140.5 -164.1H1175.09M1140.5 -196.8V-229.5M1140.5 -196.8H1175.09M1140.5 -229.5V-262.2M1140.5 -229.5H1175.09M1140.5 -262.2V-294.9M1140.5 -262.2H1175.09M1140.5 -294.9V-327.6M1140.5 -294.9H1175.09M1140.5 -327.6V-360.3M1140.5 -327.6H1175.09M1140.5 -360.3V-393M1140.5 -360.3H1175.09M1140.5 -393H1175.09M1175.09 261V228.3M1175.09 261H1209.68M1175.09 228.3V195.6M1175.09 228.3H1209.68M1175.09 195.6V162.9M1175.09 195.6H1209.68M1175.09 162.9V130.2M1175.09 162.9H1209.68M1175.09 130.2V97.5M1175.09 130.2H1209.68M1175.09 97.5V64.8M1175.09 97.5H1209.68M1175.09 64.8V32.1M1175.09 64.8H1209.68M1175.09 32.1V-0.59999M1175.09 32.1H1209.68M1175.09 -0.59999V-33.3M1175.09 -0.59999H1209.68M1175.09 -33.3V-66M1175.09 -33.3H1209.68M1175.09 -66V-98.7M1175.09 -66H1209.68M1175.09 -98.7V-131.4M1175.09 -98.7H1209.68M1175.09 -131.4V-164.1M1175.09 -131.4H1209.68M1175.09 -164.1V-196.8M1175.09 -164.1H1209.68M1175.09 -196.8V-229.5M1175.09 -196.8H1209.68M1175.09 -229.5V-262.2M1175.09 -229.5H1209.68M1175.09 -262.2V-294.9M1175.09 -262.2H1209.68M1175.09 -294.9V-327.6M1175.09 -294.9H1209.68M1175.09 -327.6V-360.3M1175.09 -327.6H1209.68M1175.09 -360.3V-393M1175.09 -360.3H1209.68M1175.09 -393H1209.68M1209.68 261V228.3M1209.68 261H1244.27M1209.68 228.3V195.6M1209.68 228.3H1244.27M1209.68 195.6V162.9M1209.68 195.6H1244.27M1209.68 162.9V130.2M1209.68 162.9H1244.27M1209.68 130.2V97.5M1209.68 130.2H1244.27M1209.68 97.5V64.8M1209.68 97.5H1244.27M1209.68 64.8V32.1M1209.68 64.8H1244.27M1209.68 32.1V-0.59999M1209.68 32.1H1244.27M1209.68 -0.59999V-33.3M1209.68 -0.59999H1244.27M1209.68 -33.3V-66M1209.68 -33.3H1244.27M1209.68 -66V-98.7M1209.68 -66H1244.27M1209.68 -98.7V-131.4M1209.68 -98.7H1244.27M1209.68 -131.4V-164.1M1209.68 -131.4H1244.27M1209.68 -164.1V-196.8M1209.68 -164.1H1244.27M1209.68 -196.8V-229.5M1209.68 -196.8H1244.27M1209.68 -229.5V-262.2M1209.68 -229.5H1244.27M1209.68 -262.2V-294.9M1209.68 -262.2H1244.27M1209.68 -294.9V-327.6M1209.68 -294.9H1244.27M1209.68 -327.6V-360.3M1209.68 -327.6H1244.27M1209.68 -360.3V-393M1209.68 -360.3H1244.27M1209.68 -393H1244.27M1244.27 261V228.3M1244.27 261H1278.86M1244.27 228.3V195.6M1244.27 228.3H1278.86M1244.27 195.6V162.9M1244.27 195.6H1278.86M1244.27 162.9V130.2M1244.27 162.9H1278.86M1244.27 130.2V97.5M1244.27 130.2H1278.86M1244.27 97.5V64.8M1244.27 97.5H1278.86M1244.27 64.8V32.1M1244.27 64.8H1278.86M1244.27 32.1V-0.59999M1244.27 32.1H1278.86M1244.27 -0.59999V-33.3M1244.27 -0.59999H1278.86M1244.27 -33.3V-66M1244.27 -33.3H1278.86M1244.27 -66V-98.7M1244.27 -66H1278.86M1244.27 -98.7V-131.4M1244.27 -98.7H1278.86M1244.27 -131.4V-164.1M1244.27 -131.4H1278.86M1244.27 -164.1V-196.8M1244.27 -164.1H1278.86M1244.27 -196.8V-229.5M1244.27 -196.8H1278.86M1244.27 -229.5V-262.2M1244.27 -229.5H1278.86M1244.27 -262.2V-294.9M1244.27 -262.2H1278.86M1244.27 -294.9V-327.6M1244.27 -294.9H1278.86M1244.27 -327.6V-360.3M1244.27 -327.6H1278.86M1244.27 -360.3V-393M1244.27 -360.3H1278.86M1244.27 -393H1278.86M1278.86 261V228.3M1278.86 261H1313.45M1278.86 228.3V195.6M1278.86 228.3H1313.45M1278.86 195.6V162.9M1278.86 195.6H1313.45M1278.86 162.9V130.2M1278.86 162.9H1313.45M1278.86 130.2V97.5M1278.86 130.2H1313.45M1278.86 97.5V64.8M1278.86 97.5H1313.45M1278.86 64.8V32.1M1278.86 64.8H1313.45M1278.86 32.1H1313.45M1278.86 32.1V-0.59999M1278.86 -0.59999V-33.3M1278.86 -0.59999H1313.45M1278.86 -33.3V-66M1278.86 -33.3H1313.45M1278.86 -66V-98.7M1278.86 -66H1313.45M1278.86 -98.7V-131.4M1278.86 -98.7H1313.45M1278.86 -131.4V-164.1M1278.86 -131.4H1313.45M1278.86 -164.1V-196.8M1278.86 -164.1H1313.45M1278.86 -196.8V-229.5M1278.86 -196.8H1313.45M1278.86 -229.5V-262.2M1278.86 -229.5H1313.45M1278.86 -262.2V-294.9M1278.86 -262.2H1313.45M1278.86 -294.9V-327.6M1278.86 -294.9H1313.45M1278.86 -327.6V-360.3M1278.86 -327.6H1313.45M1278.86 -360.3V-393M1278.86 -360.3H1313.45M1278.86 -393H1313.45M1313.45 261V228.3M1313.45 261H1348.05M1313.45 228.3V195.6M1313.45 228.3H1348.05M1313.45 195.6V162.9M1313.45 195.6H1348.05M1313.45 162.9V130.2M1313.45 162.9H1348.05M1313.45 130.2V97.5M1313.45 130.2H1348.05M1313.45 97.5V64.8M1313.45 97.5H1348.05M1313.45 64.8V32.1M1313.45 64.8H1348.05M1313.45 32.1V-0.59999M1313.45 32.1H1348.05M1313.45 -0.59999V-33.3M1313.45 -0.59999H1348.05M1313.45 -33.3V-66M1313.45 -33.3H1348.05M1313.45 -66V-98.7M1313.45 -66H1348.05M1313.45 -98.7V-131.4M1313.45 -98.7H1348.05M1313.45 -131.4V-164.1M1313.45 -131.4H1348.05M1313.45 -164.1V-196.8M1313.45 -164.1H1348.05M1313.45 -196.8V-229.5M1313.45 -196.8H1348.05M1313.45 -229.5V-262.2M1313.45 -229.5H1348.05M1313.45 -262.2V-294.9M1313.45 -262.2H1348.05M1313.45 -294.9V-327.6M1313.45 -294.9H1348.05M1313.45 -327.6V-360.3M1313.45 -327.6H1348.05M1313.45 -360.3V-393M1313.45 -360.3H1348.05M1313.45 -393H1348.05M1348.05 261V228.3M1348.05 261H1382.64M1348.05 228.3V195.6M1348.05 228.3H1382.64M1348.05 195.6V162.9M1348.05 195.6H1382.64M1348.05 162.9V130.2M1348.05 162.9H1382.64M1348.05 130.2V97.5M1348.05 130.2H1382.64M1348.05 97.5V64.8M1348.05 97.5H1382.64M1348.05 64.8V32.1M1348.05 64.8H1382.64M1348.05 32.1V-0.59999M1348.05 32.1H1382.64M1348.05 -0.59999V-33.3M1348.05 -0.59999H1382.64M1348.05 -33.3V-66M1348.05 -33.3H1382.64M1348.05 -66V-98.7M1348.05 -66H1382.64M1348.05 -98.7V-131.4M1348.05 -98.7H1382.64M1348.05 -131.4V-164.1M1348.05 -131.4H1382.64M1348.05 -164.1V-196.8M1348.05 -164.1H1382.64M1348.05 -196.8V-229.5M1348.05 -196.8H1382.64M1348.05 -229.5V-262.2M1348.05 -229.5H1382.64M1348.05 -262.2V-294.9M1348.05 -262.2H1382.64M1348.05 -294.9V-327.6M1348.05 -294.9H1382.64M1348.05 -327.6V-360.3M1348.05 -327.6H1382.64M1348.05 -360.3V-393M1348.05 -360.3H1382.64M1348.05 -393H1382.64M1382.64 261V228.3M1382.64 261H1417.23M1382.64 228.3V195.6M1382.64 228.3H1417.23M1382.64 195.6V162.9M1382.64 195.6H1417.23M1382.64 162.9V130.2M1382.64 162.9H1417.23M1382.64 130.2V97.5M1382.64 130.2H1417.23M1382.64 97.5V64.8M1382.64 97.5H1417.23M1382.64 64.8V32.1M1382.64 64.8H1417.23M1382.64 32.1V-0.59999M1382.64 32.1H1417.23M1382.64 -0.59999V-33.3M1382.64 -0.59999H1417.23M1382.64 -33.3V-66M1382.64 -33.3H1417.23M1382.64 -66V-98.7M1382.64 -66H1417.23M1382.64 -98.7V-131.4M1382.64 -98.7H1417.23M1382.64 -131.4V-164.1M1382.64 -131.4H1417.23M1382.64 -164.1V-196.8M1382.64 -164.1H1417.23M1382.64 -196.8V-229.5M1382.64 -196.8H1417.23M1382.64 -229.5V-262.2M1382.64 -229.5H1417.23M1382.64 -262.2V-294.9M1382.64 -262.2H1417.23M1382.64 -294.9V-327.6M1382.64 -294.9H1417.23M1382.64 -327.6V-360.3M1382.64 -327.6H1417.23M1382.64 -360.3V-393M1382.64 -360.3H1417.23M1382.64 -393H1417.23M1417.23 261V228.3M1417.23 261H1451.82M1417.23 228.3V195.6M1417.23 228.3H1451.82M1417.23 195.6V162.9M1417.23 195.6H1451.82M1417.23 162.9V130.2M1417.23 162.9H1451.82M1417.23 130.2V97.5M1417.23 130.2H1451.82M1417.23 97.5V64.8M1417.23 97.5H1451.82M1417.23 64.8V32.1M1417.23 64.8H1451.82M1417.23 32.1V-0.59999M1417.23 32.1H1451.82M1417.23 -0.59999V-33.3M1417.23 -0.59999H1451.82M1417.23 -33.3V-66M1417.23 -33.3H1451.82M1417.23 -66V-98.7M1417.23 -66H1451.82M1417.23 -98.7V-131.4M1417.23 -98.7H1451.82M1417.23 -131.4V-164.1M1417.23 -131.4H1451.82M1417.23 -164.1V-196.8M1417.23 -164.1H1451.82M1417.23 -196.8V-229.5M1417.23 -196.8H1451.82M1417.23 -229.5V-262.2M1417.23 -229.5H1451.82M1417.23 -262.2V-294.9M1417.23 -262.2H1451.82M1417.23 -294.9V-327.6M1417.23 -294.9H1451.82M1417.23 -327.6V-360.3M1417.23 -327.6H1451.82M1417.23 -360.3V-393M1417.23 -360.3H1451.82M1417.23 -393H1451.82M1451.82 261V228.3M1451.82 261H1486.41M1451.82 228.3V195.6M1451.82 228.3H1486.41M1451.82 195.6V162.9M1451.82 195.6H1486.41M1451.82 162.9V130.2M1451.82 162.9H1486.41M1451.82 130.2V97.5M1451.82 130.2H1486.41M1451.82 97.5V64.8M1451.82 97.5H1486.41M1451.82 64.8V32.1M1451.82 64.8H1486.41M1451.82 32.1V-0.59999M1451.82 32.1H1486.41M1451.82 -0.59999V-33.3M1451.82 -0.59999H1486.41M1451.82 -33.3V-66M1451.82 -33.3H1486.41M1451.82 -66V-98.7M1451.82 -66H1486.41M1451.82 -98.7V-131.4M1451.82 -98.7H1486.41M1451.82 -131.4V-164.1M1451.82 -131.4H1486.41M1451.82 -164.1V-196.8M1451.82 -164.1H1486.41M1451.82 -196.8V-229.5M1451.82 -196.8H1486.41M1451.82 -229.5V-262.2M1451.82 -229.5H1486.41M1451.82 -262.2V-294.9M1451.82 -262.2H1486.41M1451.82 -294.9V-327.6M1451.82 -294.9H1486.41M1451.82 -327.6V-360.3M1451.82 -327.6H1486.41M1451.82 -360.3V-393M1451.82 -360.3H1486.41M1451.82 -393H1486.41M1486.41 261V228.3M1486.41 261H1521V228.3M1486.41 228.3V195.6M1486.41 228.3H1521M1486.41 195.6V162.9M1486.41 195.6H1521M1486.41 162.9V130.2M1486.41 162.9H1521M1486.41 130.2V97.5M1486.41 130.2H1521M1486.41 97.5V64.8M1486.41 97.5H1521M1486.41 64.8V32.1M1486.41 64.8H1521M1486.41 32.1V-0.59999M1486.41 32.1H1521M1486.41 -0.59999V-33.3M1486.41 -0.59999H1521M1486.41 -33.3V-66M1486.41 -33.3H1521M1486.41 -66V-98.7M1486.41 -66H1521M1486.41 -98.7V-131.4M1486.41 -98.7H1521M1486.41 -131.4V-164.1M1486.41 -131.4H1521M1486.41 -164.1V-196.8M1486.41 -164.1H1521M1486.41 -196.8V-229.5M1486.41 -196.8H1521M1486.41 -229.5V-262.2M1486.41 -229.5H1521M1486.41 -262.2V-294.9M1486.41 -262.2H1521M1486.41 -294.9V-327.6M1486.41 -294.9H1521M1486.41 -327.6V-360.3M1486.41 -327.6H1521M1486.41 -360.3V-393M1486.41 -360.3H1521M1486.41 -393H1521V-360.3M1521 228.3V195.6M1521 195.6V162.9M1521 162.9V130.2M1521 130.2V97.5M1521 97.5V64.8M1521 64.8V32.1M1521 32.1V-0.59999M1521 -0.59999V-33.3M1521 -33.3V-66M1521 -66V-98.7M1521 -98.7V-131.4M1521 -131.4V-164.1M1521 -164.1V-196.8M1521 -196.8V-229.5M1521 -229.5V-262.2M1521 -262.2V-294.9M1521 -294.9V-327.6M1521 -327.6V-360.3"
        stroke="url(#paint0_radial_33747_5394)"
        stroke-width="0.5"
      />
      <defs>
        <radialGradient
          id="paint0_radial_33747_5394"
          cx="0"
          cy="0"
          r="1"
          gradientUnits="userSpaceOnUse"
          gradientTransform="translate(760 -78.6713) rotate(-90) scale(208.118 576.624)"
        >
          <stop stop-color="white" stop-opacity="0.65" />
          <stop offset="1" stop-color="white" stop-opacity="0" />
        </radialGradient>
      </defs>
    </svg>

