<svg width="87" height="34" viewBox="0 0 87 34" fill="none" xmlns="http://www.w3.org/2000/svg">
<g clip-path="url(#clip0_33807_34643)">
<path d="M7.80124 1.13403H1.68945V7.26232H7.80124V1.13403Z" fill="#5F6165"/>
<path d="M7.64908 33.0622V10.9698H1.8418V33.0404H7.64908V33.0622ZM46.1033 33.2803V27.8717C45.255 27.8717 44.5373 27.828 44.0153 27.7408C43.4063 27.6536 42.9495 27.4355 42.645 27.1302C42.3405 26.8248 42.1448 26.3887 42.036 25.7998C41.949 25.2546 41.9055 24.5349 41.9055 23.6626V15.964H46.1033V10.9698H41.9055V2.37712H36.0982V23.728C36.0982 25.5381 36.2505 27.0647 36.555 28.286C36.8595 29.4855 37.3815 30.4669 38.0993 31.2084C38.817 31.9499 39.774 32.4733 40.9268 32.8005C42.1013 33.1276 43.5803 33.2803 45.342 33.2803H46.1033ZM79.3375 33.0622V0.676025H73.5302V33.0622H79.3375ZM30.5085 13.1507C28.899 11.406 26.6369 10.5336 23.7659 10.5336C22.3739 10.5336 21.0907 10.8171 19.9597 11.3842C18.8069 11.9512 17.8499 12.7363 17.0669 13.7395L16.7624 14.1539V13.7831V10.9698H11.0421V33.0404H16.8059V21.2854V22.0923C16.8059 21.9615 16.8059 21.8306 16.8059 21.6998C16.8711 19.6279 17.3714 18.1013 18.3284 17.1199C19.3506 16.0731 20.5904 15.5497 22.0042 15.5497C23.6789 15.5497 24.9622 16.0731 25.8104 17.0763C26.6369 18.0795 27.0719 19.4971 27.0719 21.3072V21.3726V33.0404H32.9227V20.5221C32.9445 17.3816 32.118 14.8954 30.5085 13.1507ZM70.5287 21.9833C70.5287 20.3912 70.2459 18.9082 69.7022 17.5125C69.1367 16.1385 68.3537 14.9172 67.3749 13.8704C66.3744 12.8236 65.1782 12.0166 63.7862 11.4278C62.3941 10.839 60.8499 10.5554 59.1751 10.5554C57.5874 10.5554 56.0866 10.8608 54.6946 11.4496C53.3026 12.0602 52.0846 12.8672 51.0623 13.8922C50.0401 14.9172 49.2136 16.1385 48.6263 17.5343C48.0173 18.93 47.7346 20.4348 47.7346 22.0269C47.7346 23.6189 48.0173 25.1238 48.5828 26.5195C49.1483 27.9153 49.9531 29.1366 50.9536 30.1616C51.9541 31.1866 53.1938 32.0153 54.6294 32.6042C56.0649 33.2148 57.6526 33.5202 59.3491 33.5202C64.2647 33.5202 67.3097 31.2738 69.1367 29.1802L64.9607 25.9961C64.0907 27.0429 62.0026 28.4605 59.3926 28.4605C57.7614 28.4605 56.4129 28.0898 55.3906 27.3264C54.3684 26.5849 53.6723 25.5381 53.3026 24.2514L53.2373 24.0551H70.5287V21.9833ZM53.2808 19.9551C53.2808 18.3412 55.1296 15.5279 59.1099 15.506C63.0902 15.506 64.9607 18.3194 64.9607 19.9332L53.2808 19.9551ZM85.9495 30.2706C85.8408 30.0089 85.6885 29.7908 85.4928 29.5946C85.297 29.3983 85.0795 29.2456 84.8185 29.1366C84.5575 29.0275 84.2748 28.9621 83.992 28.9621C83.6875 28.9621 83.4265 29.0275 83.1655 29.1366C82.9045 29.2456 82.687 29.3983 82.4913 29.5946C82.2955 29.7908 82.1433 30.0089 82.0345 30.2706C81.9258 30.5323 81.8605 30.8159 81.8605 31.0994C81.8605 31.4047 81.9258 31.6664 82.0345 31.9281C82.1433 32.1898 82.2955 32.4079 82.4913 32.6042C82.687 32.8005 82.9045 32.9531 83.1655 33.0622C83.4265 33.1712 83.7093 33.2366 83.992 33.2366C84.2965 33.2366 84.5575 33.1712 84.8185 33.0622C85.0795 32.9531 85.297 32.8005 85.4928 32.6042C85.6885 32.4079 85.8408 32.1898 85.9495 31.9281C86.0583 31.6664 86.1235 31.3829 86.1235 31.0994C86.1235 30.8159 86.0583 30.5323 85.9495 30.2706ZM85.6015 31.7973C85.5145 32.0153 85.384 32.2116 85.2318 32.3643C85.0795 32.5169 84.8838 32.6478 84.6663 32.735C84.4488 32.8223 84.2313 32.8659 83.9703 32.8659C83.731 32.8659 83.4918 32.8223 83.2743 32.735C83.0568 32.6478 82.861 32.5169 82.7088 32.3643C82.5565 32.2116 82.426 32.0153 82.339 31.7973C82.252 31.5792 82.2085 31.3611 82.2085 31.0994C82.2085 30.8595 82.252 30.6196 82.339 30.4015C82.426 30.1834 82.5565 29.9871 82.7088 29.8345C82.861 29.6818 83.0568 29.5509 83.2743 29.4637C83.4918 29.3765 83.7093 29.3329 83.9703 29.3329C84.2095 29.3329 84.4488 29.3765 84.6663 29.4637C84.8838 29.5509 85.0795 29.6818 85.2318 29.8345C85.384 29.9871 85.5145 30.1834 85.6015 30.4015C85.6885 30.6196 85.732 30.8377 85.732 31.0994C85.732 31.3611 85.6885 31.5792 85.6015 31.7973ZM84.3835 31.2957C84.5575 31.2738 84.688 31.2084 84.7968 31.0994C84.9055 30.9903 84.9708 30.8377 84.9708 30.6196C84.9708 30.3797 84.9055 30.2052 84.7533 30.0744C84.6228 29.9435 84.3835 29.8781 84.1008 29.8781H83.1438V32.3425H83.6005V31.3393H83.9268L84.5358 32.3425H85.0143L84.3835 31.2957ZM84.1443 30.9249C84.079 30.9249 84.0138 30.9249 83.9268 30.9249H83.6005V30.227H83.9268C83.992 30.227 84.0573 30.227 84.1443 30.227C84.2095 30.227 84.2748 30.2488 84.34 30.2706C84.4053 30.2924 84.4488 30.3361 84.4705 30.3797C84.514 30.4233 84.514 30.4887 84.514 30.576C84.514 30.6632 84.4923 30.7286 84.4705 30.7722C84.427 30.8159 84.3835 30.8595 84.34 30.8813C84.2748 30.9031 84.2095 30.9249 84.1443 30.9249Z" fill="#5F6165"/>
</g>
<defs>
<clipPath id="clip0_33807_34643">
<rect width="86" height="34" fill="white" transform="translate(0.666992)"/>
</clipPath>
</defs>
</svg>
