<svg width="155" height="32" viewBox="0 0 155 32" fill="none" xmlns="http://www.w3.org/2000/svg">
<g clip-path="url(#clip0_33807_34659)">
<path d="M64.3779 6.40001V25.6H60.9567V10.5333H60.9111L54.7985 25.6H52.5177L46.2683 10.5333H46.2227V25.6H43.0752V6.40001H48.0017L53.6581 20.6222H53.7494L59.7251 6.40001H64.3779ZM67.2061 7.86667C67.2061 7.33334 67.3886 6.88889 67.7991 6.53334C68.2097 6.17778 68.6658 6.00001 69.2132 6.00001C69.8062 6.00001 70.308 6.17778 70.6729 6.53334C71.0379 6.88889 71.266 7.33334 71.266 7.86667C71.266 8.40001 71.0835 8.84445 70.6729 9.20001C70.2624 9.55556 69.8062 9.73334 69.2132 9.73334C68.6202 9.73334 68.1641 9.55556 67.7991 9.20001C67.4342 8.80001 67.2061 8.35556 67.2061 7.86667ZM70.901 11.8222V25.6H67.571V11.8222H70.901ZM80.9822 23.2444C81.484 23.2444 82.0314 23.1556 82.6244 22.8889C83.2174 22.6667 83.7648 22.3556 84.2665 22V25.0222C83.7192 25.3333 83.1261 25.5556 82.4419 25.6889C81.7577 25.8222 81.0278 25.9111 80.2067 25.9111C78.1084 25.9111 76.4206 25.2889 75.1433 24C73.8205 22.7111 73.1818 21.0667 73.1818 19.1111C73.1818 16.8889 73.8661 15.0667 75.1889 13.6444C76.5118 12.2222 78.3821 11.5111 80.8453 11.5111C81.484 11.5111 82.1226 11.6 82.7156 11.7333C83.3542 11.8667 83.856 12.0889 84.2209 12.2667V15.3778C83.7192 15.0222 83.1718 14.7111 82.67 14.5333C82.1226 14.3556 81.5752 14.2222 81.0278 14.2222C79.7049 14.2222 78.6558 14.6222 77.8347 15.4667C77.0136 16.3111 76.6487 17.4222 76.6487 18.8444C76.6487 20.2222 77.0592 21.3333 77.8347 22.0889C78.6101 22.8444 79.6593 23.2444 80.9822 23.2444ZM93.7091 11.6C93.9828 11.6 94.2109 11.6 94.4389 11.6444C94.667 11.6889 94.8495 11.7333 94.9863 11.7778V15.0667C94.8039 14.9333 94.5758 14.8 94.2109 14.7111C93.8459 14.6222 93.481 14.5333 92.9792 14.5333C92.1581 14.5333 91.4739 14.8889 90.9265 15.5556C90.3791 16.2222 90.0598 17.2444 90.0598 18.6667V25.6H86.7298V11.8222H90.0598V14H90.1054C90.4247 13.2444 90.8809 12.6667 91.4739 12.2222C92.1125 11.8222 92.8424 11.6 93.7091 11.6ZM95.1688 18.9333C95.1688 16.6667 95.853 14.8444 97.1303 13.5111C98.4532 12.1778 100.278 11.5111 102.604 11.5111C104.794 11.5111 106.527 12.1333 107.759 13.4222C108.99 14.7111 109.629 16.4444 109.629 18.6222C109.629 20.8444 108.945 22.6222 107.668 23.9556C106.345 25.2889 104.566 25.9556 102.285 25.9556C100.095 25.9556 98.3619 25.3333 97.0847 24.0889C95.8074 22.8 95.1688 21.0667 95.1688 18.9333ZM98.6356 18.8C98.6356 20.2222 98.9549 21.3333 99.6392 22.0889C100.323 22.8444 101.281 23.2444 102.513 23.2444C103.699 23.2444 104.657 22.8889 105.296 22.0889C105.934 21.3333 106.254 20.2222 106.254 18.7111C106.254 17.2444 105.934 16.1333 105.296 15.3333C104.657 14.5778 103.699 14.1778 102.559 14.1778C101.327 14.1778 100.415 14.5778 99.7304 15.3778C98.9549 16.2222 98.6356 17.3333 98.6356 18.8ZM114.601 15.4667C114.601 15.9111 114.738 16.3111 115.057 16.5778C115.377 16.8444 116.015 17.1556 117.065 17.5556C118.387 18.0889 119.345 18.6667 119.847 19.2889C120.395 19.9556 120.668 20.7111 120.668 21.6444C120.668 22.9333 120.166 23.9556 119.117 24.7556C118.114 25.5556 116.7 25.9111 114.966 25.9111C114.373 25.9111 113.735 25.8222 113.005 25.6889C112.275 25.5556 111.682 25.3778 111.18 25.1556V21.9556C111.773 22.3556 112.457 22.7111 113.142 22.9333C113.826 23.1556 114.464 23.2889 115.057 23.2889C115.787 23.2889 116.38 23.2 116.7 22.9778C117.065 22.7556 117.247 22.4444 117.247 21.9556C117.247 21.5111 117.065 21.1556 116.7 20.8C116.335 20.4889 115.605 20.1333 114.601 19.7333C113.37 19.2444 112.503 18.6667 112.001 18.0444C111.499 17.4222 111.226 16.6222 111.226 15.6444C111.226 14.4 111.727 13.3778 112.731 12.5778C113.735 11.7778 115.057 11.3778 116.654 11.3778C117.156 11.3778 117.703 11.4222 118.296 11.5556C118.889 11.6889 119.437 11.8222 119.847 11.9556V15.1111C119.391 14.8444 118.889 14.5778 118.296 14.3556C117.703 14.1333 117.11 14.0444 116.563 14.0444C115.924 14.0444 115.422 14.1778 115.103 14.4C114.784 14.7111 114.601 15.0222 114.601 15.4667ZM122.082 18.9333C122.082 16.6667 122.767 14.8444 124.044 13.5111C125.367 12.1778 127.191 11.5111 129.518 11.5111C131.707 11.5111 133.441 12.1333 134.672 13.4222C135.904 14.7111 136.543 16.4444 136.543 18.6222C136.543 20.8444 135.858 22.6222 134.581 23.9556C133.258 25.2889 131.479 25.9556 129.198 25.9556C127.009 25.9556 125.275 25.3333 123.998 24.0889C122.767 22.8 122.082 21.0667 122.082 18.9333ZM125.549 18.8C125.549 20.2222 125.868 21.3333 126.553 22.0889C127.237 22.8444 128.195 23.2444 129.426 23.2444C130.613 23.2444 131.57 22.8889 132.209 22.0889C132.848 21.3333 133.167 20.2222 133.167 18.7111C133.167 17.2444 132.848 16.1333 132.209 15.3333C131.57 14.5778 130.613 14.1778 129.472 14.1778C128.24 14.1778 127.328 14.5778 126.644 15.3778C125.914 16.2222 125.549 17.3333 125.549 18.8ZM147.627 14.4889H142.655V25.6H139.28V14.4889H136.908V11.8222H139.28V9.91112C139.28 8.48889 139.781 7.28889 140.739 6.35556C141.697 5.42223 142.929 4.97778 144.434 4.97778C144.845 4.97778 145.21 5.02223 145.529 5.02223C145.848 5.02223 146.122 5.11112 146.35 5.20001V8.00001C146.259 7.95556 146.031 7.86667 145.757 7.77778C145.483 7.68889 145.164 7.64445 144.799 7.64445C144.115 7.64445 143.567 7.86667 143.203 8.26667C142.838 8.66667 142.655 9.33334 142.655 10.1333V11.7778H147.627V8.66667L150.957 7.68889V11.7778H154.333V14.4444H150.957V20.8889C150.957 21.7333 151.14 22.3111 151.413 22.6667C151.733 23.0222 152.235 23.2 152.919 23.2C153.101 23.2 153.329 23.1556 153.603 23.0667C153.877 22.9778 154.105 22.8889 154.287 22.7556V25.4222C154.059 25.5556 153.74 25.6444 153.238 25.7333C152.736 25.8222 152.28 25.8667 151.778 25.8667C150.364 25.8667 149.315 25.5111 148.631 24.8C147.947 24.0889 147.582 22.9778 147.582 21.5111L147.627 14.4889Z" fill="#5F6165"/>
<path d="M15.9337 0H0.333008V15.2H15.9337V0Z" fill="#5F6165"/>
<path d="M33.1769 0H17.5762V15.2H33.1769V0Z" fill="#5F6165"/>
<path d="M15.9337 16.8H0.333008V32H15.9337V16.8Z" fill="#5F6165"/>
<path d="M33.1769 16.8H17.5762V32H33.1769V16.8Z" fill="#5F6165"/>
</g>
<defs>
<clipPath id="clip0_33807_34659">
<rect width="154" height="32" fill="white" transform="translate(0.333008)"/>
</clipPath>
</defs>
</svg>
