<svg width="512" height="512" viewBox="0 0 512 512" fill="none" xmlns="http://www.w3.org/2000/svg">
<path d="M145.631 217.5H366.299L375.625 163.125H136.375L145.631 217.5Z" fill="#0F1113" stroke="#0F1113" stroke-width="4"/>
<path d="M256 21.75C123.896 21.75 16.75 128.896 16.75 261C16.75 393.104 123.896 500.25 256 500.25C388.104 500.25 495.25 393.104 495.25 261C495.25 128.896 388.104 21.75 256 21.75ZM216.923 451.929V292.093H295.077V451.929C282.471 454.534 269.362 455.879 256 455.879C242.638 455.879 229.529 454.534 216.923 451.929ZM354.574 429.072V292.093H397.6L409.533 239.403H102.382L114.316 292.093H157.342V429.072C99.6934 395.205 61.0369 332.599 61.0369 261C61.0369 153.35 148.35 66.0369 256 66.0369C363.65 66.0369 450.879 153.266 450.879 260.916C450.879 332.599 412.139 395.205 354.574 428.988V429.072Z" fill="#0F1113" stroke="#0F1113" stroke-width="4"/>
</svg>
